<svg width="210" height="136" viewBox="0 0 210 136" fill="none" xmlns="http://www.w3.org/2000/svg">
<g clip-path="url(#clip0_731_2211)">
<path d="M175.832 10.6473H0.195557C0.443629 9.20774 0.928103 7.84585 1.60521 6.61237C3.76789 2.67004 7.89183 0 12.617 0H163.411C168.133 0 172.26 2.67004 174.42 6.61237C175.097 7.84584 175.584 9.20774 175.832 10.6473Z" fill="#F2F2F2"/>
<path d="M210 135.503C210 135.7 209.845 135.858 209.653 135.858H137.479C137.287 135.858 137.132 135.7 137.132 135.503C137.132 135.407 137.167 135.324 137.225 135.261H163.411C163.968 135.261 164.514 135.222 165.051 135.147H209.653C209.845 135.147 210 135.306 210 135.503V135.503Z" fill="#3F3D56"/>
<path d="M139.963 63.0594H36.0623C35.0967 63.0594 34.3112 62.2556 34.3112 61.2674C34.3112 60.2793 35.0967 59.4755 36.0623 59.4755H139.963C140.929 59.4755 141.715 60.2793 141.715 61.2674C141.715 62.2556 140.929 63.0594 139.963 63.0594Z" fill="#E6E6E6"/>
<path d="M175.832 10.6473C175.584 9.20774 175.097 7.84585 174.42 6.61237C172.26 2.67004 168.133 0 163.411 0H12.617C7.89183 0 3.76788 2.67004 1.60521 6.61237C0.928103 7.84584 0.443629 9.20774 0.195556 10.6473C0.0671388 11.382 0 12.1376 0 12.9111V122.947C0 130.067 5.65911 135.858 12.617 135.858H163.411C164.853 135.858 166.242 135.607 167.535 135.147C172.473 133.397 176.028 128.589 176.028 122.947V12.9111C176.028 12.1406 175.961 11.382 175.832 10.6473ZM175.444 122.947C175.444 129.177 170.92 134.329 165.051 135.147C164.514 135.222 163.968 135.261 163.411 135.261H30.5399C13.9946 135.261 0.583714 121.534 0.583714 104.603V12.9111C0.583714 12.1376 0.653757 11.382 0.788017 10.6473C1.05069 9.19578 1.56144 7.83688 2.27648 6.61237C4.37494 3.01052 8.22163 0.597323 12.617 0.597323H163.411C167.806 0.597323 171.653 3.01052 173.751 6.61237C174.466 7.83688 174.977 9.19578 175.24 10.6473C175.374 11.382 175.444 12.1376 175.444 12.9111V122.947Z" fill="#3F3D56"/>
<path d="M168.088 64.5347L167.101 60.829L171.545 59.1446L172.039 62.5134L168.088 64.5347Z" fill="#FFB6B6"/>
<path opacity="0.1" d="M168.088 64.5347L167.101 60.829L169.718 59.6993L168.905 64.0679L168.088 64.5347Z" fill="black"/>
<path d="M155.078 96.2937C154.229 95.7769 154.185 94.2513 154.978 92.8863C155.326 92.2887 155.776 91.8211 156.244 91.5273L156.71 90.7481L162.606 79.9317C162.606 79.9317 165.187 69.7306 166.238 68.4972C167.289 67.2637 168.808 67.5543 168.808 67.5543L170.155 68.7792L165.346 83.2277L159.411 91.7808L158.615 92.9711C158.586 93.5321 158.4 94.1604 158.052 94.7579C157.259 96.1229 155.927 96.8105 155.078 96.2937V96.2937Z" fill="#FFB6B6"/>
<path d="M167.845 63.4762C167.845 63.4762 169.721 63.402 170.904 64.8927C172.087 66.3835 165.888 83.1854 165.888 83.1854L160.839 83.0025L167.845 63.4762V63.4762Z" fill="#6C63FF"/>
<path d="M168.335 61.4186C170.881 61.4186 172.944 59.307 172.944 56.7022C172.944 54.0975 170.881 51.9859 168.335 51.9859C165.79 51.9859 163.726 54.0975 163.726 56.7022C163.726 59.307 165.79 61.4186 168.335 61.4186Z" fill="#FFB6B6"/>
<path d="M157.554 125.173L154.426 133.09L152.616 131.237L151.957 127.7L154.591 124.331L157.554 125.173Z" fill="#FFB6B6"/>
<path d="M186.853 122.31L189.98 126.015L188.499 129.047L185.207 128.542L183.561 123.826L186.853 122.31Z" fill="#FFB6B6"/>
<path d="M166.031 78.0941L165.619 84.9159L175.825 83.0631L175.166 78.8521L166.031 78.0941Z" fill="#FFB6B6"/>
<path d="M165.537 85.0002L175.825 81.5472C175.825 81.5472 179.61 89.2954 175.495 94.1802C171.38 99.065 157.718 126.858 157.718 126.858L153.603 124.836L159.529 107.15L166.113 90.8114L165.537 85.0002V85.0002Z" fill="#2F2E41"/>
<path d="M175.495 91.3167L179.446 109.003L187.676 122.647L183.396 125.173L171.874 109.003L168.088 96.5384L175.495 91.3167Z" fill="#2F2E41"/>
<path d="M150.476 127.026H147.625C147.625 127.026 144.299 125.679 143.519 127.026C142.739 128.374 146.997 132.195 146.997 132.195C146.997 132.195 152.945 135.616 153.768 135.448C154.591 135.28 154.92 133.258 154.92 133.258L155.908 130.9L154.426 131.405C154.426 131.405 152.451 130.226 152.945 128.205L150.476 127.026V127.026Z" fill="#2F2E41"/>
<path d="M189.322 126.521V124.836L191.236 126.521C191.236 126.521 194.425 127.7 191.956 130.226C189.487 132.753 186.359 135.448 186.359 135.448C186.359 135.448 181.421 136.796 181.092 135.28C180.763 133.764 181.092 133.15 181.092 133.15L182.902 132.248L184.548 127.868L187.182 128.205L189.322 126.521Z" fill="#2F2E41"/>
<path d="M169.734 57.6286L168.253 57.4602L165.537 54.6809C165.537 54.6809 163.068 56.0285 163.068 55.0178C163.068 50.3015 165.866 50.4699 168.17 50.133C170.475 49.7962 170.228 49.7119 170.969 50.9753C171.307 51.553 172.532 51.9017 172.532 51.9017C172.532 51.9017 174.837 48.7013 175.989 52.5754C177.141 56.4496 175.66 68.4088 176.812 69.4195C177.964 70.4301 172.081 71.4393 172.718 67.4817C173.355 63.5241 174.508 57.4602 173.849 56.1127C173.191 54.7652 173.026 55.102 173.026 55.102C173.842 54.7611 174.375 60.766 171.299 61.06L171.216 58.134C171.216 58.134 170.722 56.618 169.734 57.6286V57.6286Z" fill="#2F2E41"/>
<path d="M167.677 63.4398L172.615 61.4185L179.199 81.6314L165.652 81.1264L164.432 75.0935C164.432 75.0935 163.241 71.9536 164.229 70.1008C165.217 68.2479 167.677 63.4398 167.677 63.4398V63.4398Z" fill="#6C63FF"/>
<path d="M180.526 97.2989C179.542 97.3854 178.637 96.1726 178.504 94.5901C178.446 93.8973 178.545 93.2486 178.758 92.7308L178.693 91.8196L177.321 79.514C177.321 79.514 174.768 69.4482 174.919 67.8193C175.07 66.1903 175.309 65.7578 175.309 65.7578L177.101 65.9491L181.425 80.5575L181.476 91.0475L181.507 92.4891C181.803 92.9622 182.01 93.5841 182.068 94.2768C182.201 95.8594 181.51 97.2124 180.526 97.2989H180.526Z" fill="#FFB6B6"/>
<path d="M172.203 63.0187C172.203 63.0187 173.685 61.8396 175.495 62.3449C177.306 62.8503 181.842 80.1996 181.842 80.1996L177.635 83.0631L172.203 63.0187V63.0187Z" fill="#6C63FF"/>
<path d="M86.4497 92.1789H66.7039C65.4988 92.1789 64.5184 91.1756 64.5184 89.9425V87.9215C64.5184 86.6884 65.4988 85.6854 66.7039 85.6854H86.4497C87.6548 85.6854 88.6352 86.6884 88.6352 87.9215V89.9425C88.6352 91.1756 87.6547 92.1789 86.4497 92.1789Z" fill="#6C63FF"/>
<path d="M162.333 26.1362H142.587C141.382 26.1362 140.401 25.1329 140.401 23.8997V21.8788C140.401 20.6457 141.382 19.6426 142.587 19.6426H162.333C163.538 19.6426 164.518 20.6457 164.518 21.8788V23.8997C164.518 25.1329 163.538 26.1362 162.333 26.1362Z" fill="#6C63FF"/>
<path d="M115.743 92.3282H95.9969C94.7113 92.3282 93.6655 91.2578 93.6655 89.9424V87.9215C93.6655 86.6061 94.7113 85.536 95.9969 85.536H115.743C117.028 85.536 118.074 86.6061 118.074 87.9215V89.9424C118.074 91.2578 117.028 92.3282 115.743 92.3282ZM95.9969 86.1333C95.0333 86.1333 94.2492 86.9354 94.2492 87.9215V89.9424C94.2492 90.9285 95.0333 91.7309 95.9969 91.7309H115.743C116.706 91.7309 117.49 90.9285 117.49 89.9424V87.9215C117.49 86.9354 116.706 86.1333 115.743 86.1333H95.9969Z" fill="#6C63FF"/>
<path d="M139.963 53.8009H36.0623C35.0967 53.8009 34.3112 52.9971 34.3112 52.0089C34.3112 51.0208 35.0967 50.217 36.0623 50.217H139.963C140.929 50.217 141.715 51.0208 141.715 52.0089C141.715 52.9971 140.929 53.8009 139.963 53.8009Z" fill="#E6E6E6"/>
<path d="M29.4454 24.6814H16.3119C15.3462 24.6814 14.5607 23.8776 14.5607 22.8894C14.5607 21.9013 15.3462 21.0975 16.3119 21.0975H29.4454C30.4111 21.0975 31.1966 21.9013 31.1966 22.8894C31.1966 23.8776 30.4111 24.6814 29.4454 24.6814V24.6814Z" fill="#E6E6E6"/>
<path d="M107.955 24.6814H94.8215C93.8559 24.6814 93.0703 23.8776 93.0703 22.8894C93.0703 21.9013 93.8559 21.0975 94.8215 21.0975H107.955C108.921 21.0975 109.706 21.9013 109.706 22.8894C109.706 23.8776 108.921 24.6814 107.955 24.6814Z" fill="#E6E6E6"/>
<path d="M132.763 24.6814H119.629C118.664 24.6814 117.878 23.8776 117.878 22.8894C117.878 21.9013 118.664 21.0975 119.629 21.0975H132.763C133.729 21.0975 134.514 21.9013 134.514 22.8894C134.514 23.8776 133.729 24.6814 132.763 24.6814Z" fill="#E6E6E6"/>
<path d="M116.907 72.3179H59.119C58.1534 72.3179 57.3679 71.5141 57.3679 70.526C57.3679 69.5378 58.1534 68.734 59.119 68.734H116.907C117.872 68.734 118.658 69.5378 118.658 70.526C118.658 71.5141 117.872 72.3179 116.907 72.3179Z" fill="#E6E6E6"/>
<path d="M119.426 111.519H56.6019C56.018 111.519 55.5431 111.033 55.5431 110.436C55.5431 109.838 56.018 109.352 56.6019 109.352H119.426C120.01 109.352 120.485 109.838 120.485 110.436C120.485 111.033 120.01 111.519 119.426 111.519Z" fill="#E6E6E6"/>
<path d="M105.485 117.117H70.5432C69.9593 117.117 69.4844 116.631 69.4844 116.034C69.4844 115.436 69.9593 114.95 70.5432 114.95H105.485C106.068 114.95 106.543 115.436 106.543 116.034C106.543 116.631 106.068 117.117 105.485 117.117Z" fill="#E6E6E6"/>
<path d="M120.01 6.39012H57.1857C56.6018 6.39012 56.1268 5.90409 56.1268 5.3066C56.1268 4.70911 56.6018 4.22308 57.1857 4.22308H120.01C120.593 4.22308 121.068 4.70911 121.068 5.3066C121.068 5.90409 120.593 6.39012 120.01 6.39012Z" fill="white"/>
<path d="M128.462 2.97534L128.064 3.41284L129.857 5.11908H124.411C124.249 5.11908 124.119 5.2528 124.119 5.41774C124.119 5.58267 124.249 5.7164 124.411 5.7164H129.858L128.064 7.42318L128.462 7.86068L131.029 5.41832L128.462 2.97534V2.97534Z" fill="#6C63FF"/>
</g>
<defs>
<clipPath id="clip0_731_2211">
<rect width="210" height="136" fill="white"/>
</clipPath>
</defs>
</svg>
