<svg width="1440" height="768" viewBox="0 0 1440 768" fill="none" xmlns="http://www.w3.org/2000/svg">
<g clip-path="url(#clip0_68_2472)">
<rect width="1440" height="768" fill="white"/>
<g clip-path="url(#clip1_68_2472)">
<rect width="1440" height="768" fill="#2A3342"/>
<g opacity="0.4">
<rect width="1440" height="1320" transform="translate(0 -276)" fill="#2A3342"/>
<line x1="1465" y1="396.5" x2="-23" y2="396.5" stroke="#333F51"/>
<line x1="1465" y1="420.5" x2="-23" y2="420.5" stroke="#333F51"/>
<line x1="1465" y1="444.5" x2="-23" y2="444.5" stroke="#333F51"/>
<line x1="1465" y1="468.5" x2="-23" y2="468.5" stroke="#333F51"/>
<line x1="1465" y1="492.5" x2="-23" y2="492.5" stroke="#333F51"/>
<line x1="1465" y1="516.5" x2="-23" y2="516.5" stroke="#333F51"/>
<line x1="1465" y1="540.5" x2="-23" y2="540.5" stroke="#333F51"/>
<line x1="1465" y1="564.5" x2="-23" y2="564.5" stroke="#333F51"/>
<line x1="1465" y1="588.5" x2="-23" y2="588.5" stroke="#333F51"/>
<line x1="1465" y1="612.5" x2="-23" y2="612.5" stroke="#333F51"/>
<line x1="1465" y1="636.5" x2="-23" y2="636.5" stroke="#333F51"/>
<line x1="1465" y1="660.5" x2="-23" y2="660.5" stroke="#333F51"/>
<line x1="1465" y1="684.5" x2="-23" y2="684.5" stroke="#333F51"/>
<line x1="1465" y1="708.5" x2="-23" y2="708.5" stroke="#333F51"/>
<line x1="1465" y1="732.5" x2="-23" y2="732.5" stroke="#333F51"/>
<line x1="1465" y1="756.5" x2="-23" y2="756.5" stroke="#333F51"/>
<line x1="25.5" y1="372" x2="25.5" y2="1092" stroke="#333F51"/>
<line x1="25.5" y1="372" x2="25.5" y2="1092" stroke="#333F51"/>
<line x1="49.5" y1="372" x2="49.5" y2="1092" stroke="#333F51"/>
<line x1="73.5" y1="372" x2="73.5" y2="1092" stroke="#333F51"/>
<line x1="97.5" y1="372" x2="97.5" y2="1092" stroke="#333F51"/>
<line x1="121.5" y1="372" x2="121.5" y2="1092" stroke="#333F51"/>
<line x1="145.5" y1="372" x2="145.5" y2="1092" stroke="#333F51"/>
<line x1="169.5" y1="372" x2="169.5" y2="1092" stroke="#333F51"/>
<line x1="193.5" y1="372" x2="193.5" y2="1092" stroke="#333F51"/>
<line x1="217.5" y1="372" x2="217.5" y2="1092" stroke="#333F51"/>
<line x1="241.5" y1="372" x2="241.5" y2="1092" stroke="#333F51"/>
<line x1="265.5" y1="372" x2="265.5" y2="1092" stroke="#333F51"/>
<line x1="289.5" y1="372" x2="289.5" y2="1092" stroke="#333F51"/>
<line x1="313.5" y1="372" x2="313.5" y2="1092" stroke="#333F51"/>
<line x1="337.5" y1="372" x2="337.5" y2="1092" stroke="#333F51"/>
<line x1="361.5" y1="372" x2="361.5" y2="1092" stroke="#333F51"/>
<line x1="385.5" y1="372" x2="385.5" y2="1092" stroke="#333F51"/>
<line x1="409.5" y1="372" x2="409.5" y2="1092" stroke="#333F51"/>
<line x1="433.5" y1="372" x2="433.5" y2="1092" stroke="#333F51"/>
<line x1="457.5" y1="372" x2="457.5" y2="1092" stroke="#333F51"/>
<line x1="481.5" y1="372" x2="481.5" y2="1092" stroke="#333F51"/>
<line x1="505.5" y1="372" x2="505.5" y2="1092" stroke="#333F51"/>
<line x1="529.5" y1="372" x2="529.5" y2="1092" stroke="#333F51"/>
<line x1="553.5" y1="372" x2="553.5" y2="1092" stroke="#333F51"/>
<line x1="577.5" y1="372" x2="577.5" y2="1092" stroke="#333F51"/>
<line x1="601.5" y1="372" x2="601.5" y2="1092" stroke="#333F51"/>
<line x1="625.5" y1="372" x2="625.5" y2="1092" stroke="#333F51"/>
<line x1="649.5" y1="372" x2="649.5" y2="1092" stroke="#333F51"/>
<line x1="673.5" y1="372" x2="673.5" y2="1092" stroke="#333F51"/>
<line x1="697.5" y1="372" x2="697.5" y2="1092" stroke="#333F51"/>
<line x1="721.5" y1="372" x2="721.5" y2="1092" stroke="#333F51"/>
<line x1="745.5" y1="372" x2="745.5" y2="1092" stroke="#333F51"/>
<line x1="769.5" y1="372" x2="769.5" y2="1092" stroke="#333F51"/>
<line x1="793.5" y1="372" x2="793.5" y2="1092" stroke="#333F51"/>
<line x1="817.5" y1="372" x2="817.5" y2="1092" stroke="#333F51"/>
<line x1="841.5" y1="372" x2="841.5" y2="1092" stroke="#333F51"/>
<line x1="865.5" y1="372" x2="865.5" y2="1092" stroke="#333F51"/>
<line x1="889.5" y1="372" x2="889.5" y2="1092" stroke="#333F51"/>
<line x1="913.5" y1="372" x2="913.5" y2="1092" stroke="#333F51"/>
<line x1="937.5" y1="372" x2="937.5" y2="1092" stroke="#333F51"/>
<line x1="961.5" y1="372" x2="961.5" y2="1092" stroke="#333F51"/>
<line x1="985.5" y1="372" x2="985.5" y2="1092" stroke="#333F51"/>
<line x1="1009.5" y1="372" x2="1009.5" y2="1092" stroke="#333F51"/>
<line x1="1033.5" y1="372" x2="1033.5" y2="1092" stroke="#333F51"/>
<line x1="1057.5" y1="372" x2="1057.5" y2="1092" stroke="#333F51"/>
<line x1="1081.5" y1="372" x2="1081.5" y2="1092" stroke="#333F51"/>
<line x1="1105.5" y1="372" x2="1105.5" y2="1092" stroke="#333F51"/>
<line x1="1129.5" y1="372" x2="1129.5" y2="1092" stroke="#333F51"/>
<line x1="1153.5" y1="372" x2="1153.5" y2="1092" stroke="#333F51"/>
<line x1="1177.5" y1="372" x2="1177.5" y2="1092" stroke="#333F51"/>
<line x1="1201.5" y1="372" x2="1201.5" y2="1092" stroke="#333F51"/>
<line x1="1225.5" y1="372" x2="1225.5" y2="1092" stroke="#333F51"/>
<line x1="1249.5" y1="372" x2="1249.5" y2="1092" stroke="#333F51"/>
<line x1="1273.5" y1="372" x2="1273.5" y2="1092" stroke="#333F51"/>
<line x1="1297.5" y1="372" x2="1297.5" y2="1092" stroke="#333F51"/>
<line x1="1321.5" y1="372" x2="1321.5" y2="1092" stroke="#333F51"/>
<line x1="1345.5" y1="372" x2="1345.5" y2="1092" stroke="#333F51"/>
<line x1="1369.5" y1="372" x2="1369.5" y2="1092" stroke="#333F51"/>
<line x1="1393.5" y1="372" x2="1393.5" y2="1092" stroke="#333F51"/>
<line x1="1416.5" y1="372" x2="1416.5" y2="1092" stroke="#333F51"/>
<line x1="1.5" y1="-324" x2="1.49997" y2="396" stroke="#333F51"/>
<line x1="1465" y1="12.5" x2="-23" y2="12.5" stroke="#333F51"/>
<line x1="1465" y1="36.5" x2="-23" y2="36.5" stroke="#333F51"/>
<line x1="1465" y1="60.5" x2="-23" y2="60.5" stroke="#333F51"/>
<line x1="1465" y1="84.5" x2="-23" y2="84.5" stroke="#333F51"/>
<line x1="1465" y1="108.5" x2="-23" y2="108.5" stroke="#333F51"/>
<line x1="1465" y1="132.5" x2="-23" y2="132.5" stroke="#333F51"/>
<line x1="1465" y1="156.5" x2="-23" y2="156.5" stroke="#333F51"/>
<line x1="1465" y1="180.5" x2="-23" y2="180.5" stroke="#333F51"/>
<line x1="1465" y1="204.5" x2="-23" y2="204.5" stroke="#333F51"/>
<line x1="1465" y1="228.5" x2="-23" y2="228.5" stroke="#333F51"/>
<line x1="1465" y1="252.5" x2="-23" y2="252.5" stroke="#333F51"/>
<line x1="1465" y1="276.5" x2="-23" y2="276.5" stroke="#333F51"/>
<line x1="1465" y1="300.5" x2="-23" y2="300.5" stroke="#333F51"/>
<line x1="1465" y1="324.5" x2="-23" y2="324.5" stroke="#333F51"/>
<line x1="1465" y1="348.5" x2="-23" y2="348.5" stroke="#333F51"/>
<line x1="1465" y1="372.5" x2="-23" y2="372.5" stroke="#333F51"/>
<line x1="25.5" y1="-324" x2="25.5" y2="396" stroke="#333F51"/>
<line x1="25.5" y1="-324" x2="25.5" y2="396" stroke="#333F51"/>
<line x1="49.5" y1="-324" x2="49.5" y2="396" stroke="#333F51"/>
<line x1="73.5" y1="-324" x2="73.5" y2="396" stroke="#333F51"/>
<line x1="97.5" y1="-324" x2="97.5" y2="396" stroke="#333F51"/>
<line x1="121.5" y1="-324" x2="121.5" y2="396" stroke="#333F51"/>
<line x1="145.5" y1="-324" x2="145.5" y2="396" stroke="#333F51"/>
<line x1="169.5" y1="-324" x2="169.5" y2="396" stroke="#333F51"/>
<line x1="193.5" y1="-324" x2="193.5" y2="396" stroke="#333F51"/>
<line x1="217.5" y1="-324" x2="217.5" y2="396" stroke="#333F51"/>
<line x1="241.5" y1="-324" x2="241.5" y2="396" stroke="#333F51"/>
<line x1="265.5" y1="-324" x2="265.5" y2="396" stroke="#333F51"/>
<line x1="289.5" y1="-324" x2="289.5" y2="396" stroke="#333F51"/>
<line x1="313.5" y1="-324" x2="313.5" y2="396" stroke="#333F51"/>
<line x1="337.5" y1="-324" x2="337.5" y2="396" stroke="#333F51"/>
<line x1="361.5" y1="-324" x2="361.5" y2="396" stroke="#333F51"/>
<line x1="385.5" y1="-324" x2="385.5" y2="396" stroke="#333F51"/>
<line x1="409.5" y1="-324" x2="409.5" y2="396" stroke="#333F51"/>
<line x1="433.5" y1="-324" x2="433.5" y2="396" stroke="#333F51"/>
<line x1="457.5" y1="-324" x2="457.5" y2="396" stroke="#333F51"/>
<line x1="481.5" y1="-324" x2="481.5" y2="396" stroke="#333F51"/>
<line x1="505.5" y1="-324" x2="505.5" y2="396" stroke="#333F51"/>
<line x1="529.5" y1="-324" x2="529.5" y2="396" stroke="#333F51"/>
<line x1="553.5" y1="-324" x2="553.5" y2="396" stroke="#333F51"/>
<line x1="577.5" y1="-324" x2="577.5" y2="396" stroke="#333F51"/>
<line x1="601.5" y1="-324" x2="601.5" y2="396" stroke="#333F51"/>
<line x1="625.5" y1="-324" x2="625.5" y2="396" stroke="#333F51"/>
<line x1="649.5" y1="-324" x2="649.5" y2="396" stroke="#333F51"/>
<line x1="673.5" y1="-324" x2="673.5" y2="396" stroke="#333F51"/>
<line x1="697.5" y1="-324" x2="697.5" y2="396" stroke="#333F51"/>
<line x1="721.5" y1="-324" x2="721.5" y2="396" stroke="#333F51"/>
<line x1="745.5" y1="-324" x2="745.5" y2="396" stroke="#333F51"/>
<line x1="769.5" y1="-324" x2="769.5" y2="396" stroke="#333F51"/>
<line x1="793.5" y1="-324" x2="793.5" y2="396" stroke="#333F51"/>
<line x1="817.5" y1="-324" x2="817.5" y2="396" stroke="#333F51"/>
<line x1="841.5" y1="-324" x2="841.5" y2="396" stroke="#333F51"/>
<line x1="865.5" y1="-324" x2="865.5" y2="396" stroke="#333F51"/>
<line x1="889.5" y1="-324" x2="889.5" y2="396" stroke="#333F51"/>
<line x1="913.5" y1="-324" x2="913.5" y2="396" stroke="#333F51"/>
<line x1="937.5" y1="-324" x2="937.5" y2="396" stroke="#333F51"/>
<line x1="961.5" y1="-324" x2="961.5" y2="396" stroke="#333F51"/>
<line x1="985.5" y1="-324" x2="985.5" y2="396" stroke="#333F51"/>
<line x1="1009.5" y1="-324" x2="1009.5" y2="396" stroke="#333F51"/>
<line x1="1033.5" y1="-324" x2="1033.5" y2="396" stroke="#333F51"/>
<line x1="1057.5" y1="-324" x2="1057.5" y2="396" stroke="#333F51"/>
<line x1="1081.5" y1="-324" x2="1081.5" y2="396" stroke="#333F51"/>
<line x1="1105.5" y1="-324" x2="1105.5" y2="396" stroke="#333F51"/>
<line x1="1129.5" y1="-324" x2="1129.5" y2="396" stroke="#333F51"/>
<line x1="1153.5" y1="-324" x2="1153.5" y2="396" stroke="#333F51"/>
<line x1="1177.5" y1="-324" x2="1177.5" y2="396" stroke="#333F51"/>
<line x1="1201.5" y1="-324" x2="1201.5" y2="396" stroke="#333F51"/>
<line x1="1225.5" y1="-324" x2="1225.5" y2="396" stroke="#333F51"/>
<line x1="1249.5" y1="-324" x2="1249.5" y2="396" stroke="#333F51"/>
<line x1="1273.5" y1="-324" x2="1273.5" y2="396" stroke="#333F51"/>
<line x1="1297.5" y1="-324" x2="1297.5" y2="396" stroke="#333F51"/>
<line x1="1321.5" y1="-324" x2="1321.5" y2="396" stroke="#333F51"/>
<line x1="1345.5" y1="-324" x2="1345.5" y2="396" stroke="#333F51"/>
<line x1="1369.5" y1="-324" x2="1369.5" y2="396" stroke="#333F51"/>
<line x1="1393.5" y1="-324" x2="1393.5" y2="396" stroke="#333F51"/>
<line x1="1416.5" y1="-324" x2="1416.5" y2="396" stroke="#333F51"/>
</g>
<path d="M1 0H1441V768H1V0Z" fill="url(#paint0_radial_68_2472)"/>
</g>
<g clip-path="url(#clip2_68_2472)">
<path d="M1413.25 114.91C1414.71 114.91 1415.89 113.728 1415.89 112.27C1415.89 110.812 1414.71 109.63 1413.25 109.63C1411.79 109.63 1410.61 110.812 1410.61 112.27C1410.61 113.728 1411.79 114.91 1413.25 114.91Z" fill="#7B2CBF"/>
<path d="M1413.25 114.91C1414.71 114.91 1415.89 113.728 1415.89 112.27C1415.89 110.812 1414.71 109.63 1413.25 109.63C1411.79 109.63 1410.61 110.812 1410.61 112.27C1410.61 113.728 1411.79 114.91 1413.25 114.91Z" fill="white" fill-opacity="0.2"/>
<path d="M1390.31 114.91C1391.77 114.91 1392.95 113.728 1392.95 112.27C1392.95 110.812 1391.77 109.63 1390.31 109.63C1388.85 109.63 1387.67 110.812 1387.67 112.27C1387.67 113.728 1388.85 114.91 1390.31 114.91Z" fill="#7B2CBF"/>
<path d="M1390.31 114.91C1391.77 114.91 1392.95 113.728 1392.95 112.27C1392.95 110.812 1391.77 109.63 1390.31 109.63C1388.85 109.63 1387.67 110.812 1387.67 112.27C1387.67 113.728 1388.85 114.91 1390.31 114.91Z" fill="white" fill-opacity="0.2"/>
<path d="M1366.38 114.91C1366.9 114.912 1367.42 114.758 1367.85 114.468C1368.29 114.178 1368.63 113.765 1368.84 113.281C1369.04 112.797 1369.09 112.264 1368.99 111.749C1368.89 111.234 1368.64 110.761 1368.27 110.39C1367.9 110.018 1367.43 109.765 1366.91 109.662C1366.4 109.558 1365.86 109.61 1365.38 109.811C1364.89 110.011 1364.48 110.351 1364.19 110.787C1363.9 111.223 1363.74 111.735 1363.74 112.26C1363.74 112.961 1364.02 113.633 1364.51 114.13C1365.01 114.627 1365.68 114.907 1366.38 114.91V114.91Z" fill="#7B2CBF"/>
<path d="M1366.38 114.91C1366.9 114.912 1367.42 114.758 1367.85 114.468C1368.29 114.178 1368.63 113.765 1368.84 113.281C1369.04 112.797 1369.09 112.264 1368.99 111.749C1368.89 111.234 1368.64 110.761 1368.27 110.39C1367.9 110.018 1367.43 109.765 1366.91 109.662C1366.4 109.558 1365.86 109.61 1365.38 109.811C1364.89 110.011 1364.48 110.351 1364.19 110.787C1363.9 111.223 1363.74 111.735 1363.74 112.26C1363.74 112.961 1364.02 113.633 1364.51 114.13C1365.01 114.627 1365.68 114.907 1366.38 114.91V114.91Z" fill="white" fill-opacity="0.2"/>
<path d="M1342.45 114.91C1342.97 114.91 1343.49 114.754 1343.92 114.463C1344.36 114.172 1344.7 113.758 1344.9 113.274C1345.1 112.79 1345.15 112.257 1345.05 111.743C1344.95 111.229 1344.69 110.757 1344.32 110.386C1343.95 110.015 1343.48 109.763 1342.97 109.661C1342.45 109.559 1341.92 109.611 1341.44 109.812C1340.95 110.012 1340.54 110.352 1340.25 110.788C1339.96 111.223 1339.8 111.736 1339.8 112.26C1339.8 112.608 1339.87 112.952 1340 113.274C1340.13 113.596 1340.33 113.888 1340.58 114.134C1340.82 114.38 1341.11 114.575 1341.44 114.708C1341.76 114.841 1342.1 114.91 1342.45 114.91V114.91Z" fill="#7B2CBF"/>
<path d="M1342.45 114.91C1342.97 114.91 1343.49 114.754 1343.92 114.463C1344.36 114.172 1344.7 113.758 1344.9 113.274C1345.1 112.79 1345.15 112.257 1345.05 111.743C1344.95 111.229 1344.69 110.757 1344.32 110.386C1343.95 110.015 1343.48 109.763 1342.97 109.661C1342.45 109.559 1341.92 109.611 1341.44 109.812C1340.95 110.012 1340.54 110.352 1340.25 110.788C1339.96 111.223 1339.8 111.736 1339.8 112.26C1339.8 112.608 1339.87 112.952 1340 113.274C1340.13 113.596 1340.33 113.888 1340.58 114.134C1340.82 114.38 1341.11 114.575 1341.44 114.708C1341.76 114.841 1342.1 114.91 1342.45 114.91V114.91Z" fill="white" fill-opacity="0.2"/>
<path d="M1318.51 114.91C1319.97 114.91 1321.15 113.728 1321.15 112.27C1321.15 110.812 1319.97 109.63 1318.51 109.63C1317.05 109.63 1315.87 110.812 1315.87 112.27C1315.87 113.728 1317.05 114.91 1318.51 114.91Z" fill="#7B2CBF"/>
<path d="M1318.51 114.91C1319.97 114.91 1321.15 113.728 1321.15 112.27C1321.15 110.812 1319.97 109.63 1318.51 109.63C1317.05 109.63 1315.87 110.812 1315.87 112.27C1315.87 113.728 1317.05 114.91 1318.51 114.91Z" fill="white" fill-opacity="0.2"/>
<path d="M1295.59 114.596C1296.94 114.041 1297.58 112.499 1297.03 111.15C1296.47 109.802 1294.93 109.158 1293.58 109.712C1292.23 110.267 1291.59 111.809 1292.14 113.158C1292.7 114.506 1294.24 115.15 1295.59 114.596Z" fill="#7B2CBF"/>
<path d="M1295.59 114.596C1296.94 114.041 1297.58 112.499 1297.03 111.15C1296.47 109.802 1294.93 109.158 1293.58 109.712C1292.23 110.267 1291.59 111.809 1292.14 113.158C1292.7 114.506 1294.24 115.15 1295.59 114.596Z" fill="white" fill-opacity="0.2"/>
<path d="M1270.65 109.66C1270.12 109.658 1269.61 109.812 1269.17 110.103C1268.74 110.393 1268.4 110.807 1268.19 111.291C1267.99 111.776 1267.94 112.31 1268.04 112.825C1268.14 113.34 1268.39 113.813 1268.77 114.184C1269.14 114.555 1269.61 114.808 1270.13 114.91C1270.64 115.012 1271.17 114.958 1271.66 114.756C1272.14 114.555 1272.56 114.214 1272.85 113.776C1273.14 113.339 1273.29 112.825 1273.29 112.3C1273.29 111.601 1273.01 110.931 1272.51 110.436C1272.02 109.942 1271.35 109.663 1270.65 109.66V109.66Z" fill="#7B2CBF"/>
<path d="M1270.65 109.66C1270.12 109.658 1269.61 109.812 1269.17 110.103C1268.74 110.393 1268.4 110.807 1268.19 111.291C1267.99 111.776 1267.94 112.31 1268.04 112.825C1268.14 113.34 1268.39 113.813 1268.77 114.184C1269.14 114.555 1269.61 114.808 1270.13 114.91C1270.64 115.012 1271.17 114.958 1271.66 114.756C1272.14 114.555 1272.56 114.214 1272.85 113.776C1273.14 113.339 1273.29 112.825 1273.29 112.3C1273.29 111.601 1273.01 110.931 1272.51 110.436C1272.02 109.942 1271.35 109.663 1270.65 109.66V109.66Z" fill="white" fill-opacity="0.2"/>
<path d="M1413.25 93.5C1414.71 93.5 1415.89 92.318 1415.89 90.86C1415.89 89.4019 1414.71 88.22 1413.25 88.22C1411.79 88.22 1410.61 89.4019 1410.61 90.86C1410.61 92.318 1411.79 93.5 1413.25 93.5Z" fill="#7B2CBF"/>
<path d="M1413.25 93.5C1414.71 93.5 1415.89 92.318 1415.89 90.86C1415.89 89.4019 1414.71 88.22 1413.25 88.22C1411.79 88.22 1410.61 89.4019 1410.61 90.86C1410.61 92.318 1411.79 93.5 1413.25 93.5Z" fill="white" fill-opacity="0.2"/>
<path d="M1390.31 93.5002C1391.77 93.5002 1392.95 92.3182 1392.95 90.8602C1392.95 89.4022 1391.77 88.2202 1390.31 88.2202C1388.85 88.2202 1387.67 89.4022 1387.67 90.8602C1387.67 92.3182 1388.85 93.5002 1390.31 93.5002Z" fill="#7B2CBF"/>
<path d="M1390.31 93.5002C1391.77 93.5002 1392.95 92.3182 1392.95 90.8602C1392.95 89.4022 1391.77 88.2202 1390.31 88.2202C1388.85 88.2202 1387.67 89.4022 1387.67 90.8602C1387.67 92.3182 1388.85 93.5002 1390.31 93.5002Z" fill="white" fill-opacity="0.2"/>
<path d="M1366.38 93.5002C1366.9 93.5022 1367.42 93.3482 1367.86 93.0578C1368.29 92.7673 1368.63 92.3535 1368.84 91.8689C1369.04 91.3843 1369.09 90.8506 1368.99 90.3357C1368.89 89.8207 1368.64 89.3475 1368.26 88.9763C1367.89 88.6051 1367.42 88.3526 1366.9 88.2506C1366.39 88.1487 1365.86 88.202 1365.37 88.4038C1364.89 88.6056 1364.47 88.9469 1364.18 89.3842C1363.89 89.8215 1363.74 90.3352 1363.74 90.8602C1363.74 91.5595 1364.02 92.2295 1364.52 92.724C1365.01 93.2185 1365.68 93.4976 1366.38 93.5002V93.5002Z" fill="#7B2CBF"/>
<path d="M1366.38 93.5002C1366.9 93.5022 1367.42 93.3482 1367.86 93.0578C1368.29 92.7673 1368.63 92.3535 1368.84 91.8689C1369.04 91.3843 1369.09 90.8506 1368.99 90.3357C1368.89 89.8207 1368.64 89.3475 1368.26 88.9763C1367.89 88.6051 1367.42 88.3526 1366.9 88.2506C1366.39 88.1487 1365.86 88.202 1365.37 88.4038C1364.89 88.6056 1364.47 88.9469 1364.18 89.3842C1363.89 89.8215 1363.74 90.3352 1363.74 90.8602C1363.74 91.5595 1364.02 92.2295 1364.52 92.724C1365.01 93.2185 1365.68 93.4976 1366.38 93.5002V93.5002Z" fill="white" fill-opacity="0.2"/>
<path d="M1342.45 93.5002C1342.97 93.5002 1343.49 93.3445 1343.92 93.0529C1344.36 92.7612 1344.7 92.3468 1344.9 91.862C1345.1 91.3772 1345.15 90.8438 1345.05 90.3295C1344.95 89.8152 1344.69 89.343 1344.32 88.9728C1343.95 88.6026 1343.48 88.351 1342.96 88.2499C1342.45 88.1488 1341.91 88.2027 1341.43 88.4048C1340.94 88.6069 1340.53 88.9481 1340.24 89.3852C1339.95 89.8223 1339.8 90.3356 1339.8 90.8602C1339.8 91.2077 1339.87 91.5518 1340 91.8728C1340.14 92.1937 1340.33 92.4852 1340.58 92.7305C1340.82 92.9758 1341.12 93.17 1341.44 93.3021C1341.76 93.4342 1342.1 93.5015 1342.45 93.5002V93.5002Z" fill="#7B2CBF"/>
<path d="M1342.45 93.5002C1342.97 93.5002 1343.49 93.3445 1343.92 93.0529C1344.36 92.7612 1344.7 92.3468 1344.9 91.862C1345.1 91.3772 1345.15 90.8438 1345.05 90.3295C1344.95 89.8152 1344.69 89.343 1344.32 88.9728C1343.95 88.6026 1343.48 88.351 1342.96 88.2499C1342.45 88.1488 1341.91 88.2027 1341.43 88.4048C1340.94 88.6069 1340.53 88.9481 1340.24 89.3852C1339.95 89.8223 1339.8 90.3356 1339.8 90.8602C1339.8 91.2077 1339.87 91.5518 1340 91.8728C1340.14 92.1937 1340.33 92.4852 1340.58 92.7305C1340.82 92.9758 1341.12 93.17 1341.44 93.3021C1341.76 93.4342 1342.1 93.5015 1342.45 93.5002V93.5002Z" fill="white" fill-opacity="0.2"/>
<path d="M1318.51 93.5002C1319.97 93.5002 1321.15 92.3182 1321.15 90.8602C1321.15 89.4022 1319.97 88.2202 1318.51 88.2202C1317.05 88.2202 1315.87 89.4022 1315.87 90.8602C1315.87 92.3182 1317.05 93.5002 1318.51 93.5002Z" fill="#7B2CBF"/>
<path d="M1318.51 93.5002C1319.97 93.5002 1321.15 92.3182 1321.15 90.8602C1321.15 89.4022 1319.97 88.2202 1318.51 88.2202C1317.05 88.2202 1315.87 89.4022 1315.87 90.8602C1315.87 92.3182 1317.05 93.5002 1318.51 93.5002Z" fill="white" fill-opacity="0.2"/>
<path d="M1295.59 93.193C1296.94 92.6385 1297.58 91.0959 1297.03 89.7474C1296.48 88.3989 1294.93 87.7551 1293.58 88.3096C1292.24 88.864 1291.59 90.4067 1292.15 91.7552C1292.7 93.1037 1294.24 93.7474 1295.59 93.193Z" fill="#7B2CBF"/>
<path d="M1295.59 93.193C1296.94 92.6385 1297.58 91.0959 1297.03 89.7474C1296.48 88.3989 1294.93 87.7551 1293.58 88.3096C1292.24 88.864 1291.59 90.4067 1292.15 91.7552C1292.7 93.1037 1294.24 93.7474 1295.59 93.193Z" fill="white" fill-opacity="0.2"/>
<path d="M1270.65 93.5002C1271.17 93.5002 1271.69 93.3445 1272.12 93.0529C1272.56 92.7612 1272.9 92.3468 1273.1 91.862C1273.3 91.3772 1273.35 90.8438 1273.25 90.3295C1273.15 89.8152 1272.89 89.343 1272.52 88.9728C1272.15 88.6026 1271.68 88.351 1271.16 88.2499C1270.65 88.1488 1270.11 88.2027 1269.63 88.4048C1269.15 88.6069 1268.73 88.9481 1268.44 89.3852C1268.15 89.8223 1268 90.3356 1268 90.8602C1268 91.2077 1268.07 91.5518 1268.2 91.8728C1268.34 92.1937 1268.53 92.4852 1268.78 92.7305C1269.02 92.9758 1269.32 93.17 1269.64 93.3021C1269.96 93.4342 1270.3 93.5015 1270.65 93.5002Z" fill="#7B2CBF"/>
<path d="M1270.65 93.5002C1271.17 93.5002 1271.69 93.3445 1272.12 93.0529C1272.56 92.7612 1272.9 92.3468 1273.1 91.862C1273.3 91.3772 1273.35 90.8438 1273.25 90.3295C1273.15 89.8152 1272.89 89.343 1272.52 88.9728C1272.15 88.6026 1271.68 88.351 1271.16 88.2499C1270.65 88.1488 1270.11 88.2027 1269.63 88.4048C1269.15 88.6069 1268.73 88.9481 1268.44 89.3852C1268.15 89.8223 1268 90.3356 1268 90.8602C1268 91.2077 1268.07 91.5518 1268.2 91.8728C1268.34 92.1937 1268.53 92.4852 1268.78 92.7305C1269.02 92.9758 1269.32 93.17 1269.64 93.3021C1269.96 93.4342 1270.3 93.5015 1270.65 93.5002Z" fill="white" fill-opacity="0.2"/>
<path d="M1413.25 72.0901C1414.71 72.0901 1415.89 70.9081 1415.89 69.4501C1415.89 67.992 1414.71 66.8101 1413.25 66.8101C1411.79 66.8101 1410.61 67.992 1410.61 69.4501C1410.61 70.9081 1411.79 72.0901 1413.25 72.0901Z" fill="#7B2CBF"/>
<path d="M1413.25 72.0901C1414.71 72.0901 1415.89 70.9081 1415.89 69.4501C1415.89 67.992 1414.71 66.8101 1413.25 66.8101C1411.79 66.8101 1410.61 67.992 1410.61 69.4501C1410.61 70.9081 1411.79 72.0901 1413.25 72.0901Z" fill="white" fill-opacity="0.2"/>
<path d="M1390.31 72.0901C1391.77 72.0901 1392.95 70.9081 1392.95 69.4501C1392.95 67.992 1391.77 66.8101 1390.31 66.8101C1388.85 66.8101 1387.67 67.992 1387.67 69.4501C1387.67 70.9081 1388.85 72.0901 1390.31 72.0901Z" fill="#7B2CBF"/>
<path d="M1390.31 72.0901C1391.77 72.0901 1392.95 70.9081 1392.95 69.4501C1392.95 67.992 1391.77 66.8101 1390.31 66.8101C1388.85 66.8101 1387.67 67.992 1387.67 69.4501C1387.67 70.9081 1388.85 72.0901 1390.31 72.0901Z" fill="white" fill-opacity="0.2"/>
<path d="M1366.38 72.0998C1366.9 72.1018 1367.42 71.9481 1367.85 71.6581C1368.29 71.3681 1368.63 70.9549 1368.84 70.4708C1369.04 69.9868 1369.09 69.4537 1368.99 68.939C1368.89 68.4243 1368.64 67.9512 1368.27 67.5795C1367.9 67.2079 1367.43 66.9545 1366.91 66.8515C1366.4 66.7484 1365.86 66.8003 1365.38 67.0006C1364.89 67.2008 1364.48 67.5405 1364.19 67.9765C1363.9 68.4125 1363.74 68.9252 1363.74 69.4498C1363.74 70.1509 1364.02 70.8234 1364.51 71.3201C1365.01 71.8168 1365.68 72.0972 1366.38 72.0998V72.0998Z" fill="#7B2CBF"/>
<path d="M1366.38 72.0998C1366.9 72.1018 1367.42 71.9481 1367.85 71.6581C1368.29 71.3681 1368.63 70.9549 1368.84 70.4708C1369.04 69.9868 1369.09 69.4537 1368.99 68.939C1368.89 68.4243 1368.64 67.9512 1368.27 67.5795C1367.9 67.2079 1367.43 66.9545 1366.91 66.8515C1366.4 66.7484 1365.86 66.8003 1365.38 67.0006C1364.89 67.2008 1364.48 67.5405 1364.19 67.9765C1363.9 68.4125 1363.74 68.9252 1363.74 69.4498C1363.74 70.1509 1364.02 70.8234 1364.51 71.3201C1365.01 71.8168 1365.68 72.0972 1366.38 72.0998V72.0998Z" fill="white" fill-opacity="0.2"/>
<path d="M1342.45 72.0998C1342.97 72.0998 1343.49 71.9444 1343.92 71.6532C1344.36 71.362 1344.7 70.9482 1344.9 70.4639C1345.1 69.9797 1345.15 69.4469 1345.05 68.9328C1344.95 68.4188 1344.69 67.9465 1344.32 67.5759C1343.95 67.2053 1343.48 66.953 1342.97 66.8507C1342.45 66.7485 1341.92 66.801 1341.44 67.0015C1340.95 67.2021 1340.54 67.5418 1340.25 67.9776C1339.96 68.4133 1339.8 68.9257 1339.8 69.4498C1339.8 69.7978 1339.87 70.1424 1340 70.4639C1340.13 70.7855 1340.33 71.0775 1340.58 71.3236C1340.82 71.5697 1341.11 71.7649 1341.44 71.8981C1341.76 72.0313 1342.1 72.0998 1342.45 72.0998V72.0998Z" fill="#7B2CBF"/>
<path d="M1342.45 72.0998C1342.97 72.0998 1343.49 71.9444 1343.92 71.6532C1344.36 71.362 1344.7 70.9482 1344.9 70.4639C1345.1 69.9797 1345.15 69.4469 1345.05 68.9328C1344.95 68.4188 1344.69 67.9465 1344.32 67.5759C1343.95 67.2053 1343.48 66.953 1342.97 66.8507C1342.45 66.7485 1341.92 66.801 1341.44 67.0015C1340.95 67.2021 1340.54 67.5418 1340.25 67.9776C1339.96 68.4133 1339.8 68.9257 1339.8 69.4498C1339.8 69.7978 1339.87 70.1424 1340 70.4639C1340.13 70.7855 1340.33 71.0775 1340.58 71.3236C1340.82 71.5697 1341.11 71.7649 1341.44 71.8981C1341.76 72.0313 1342.1 72.0998 1342.45 72.0998V72.0998Z" fill="white" fill-opacity="0.2"/>
<path d="M1318.51 72.0901C1319.97 72.0901 1321.15 70.9081 1321.15 69.4501C1321.15 67.992 1319.97 66.8101 1318.51 66.8101C1317.05 66.8101 1315.87 67.992 1315.87 69.4501C1315.87 70.9081 1317.05 72.0901 1318.51 72.0901Z" fill="#7B2CBF"/>
<path d="M1318.51 72.0901C1319.97 72.0901 1321.15 70.9081 1321.15 69.4501C1321.15 67.992 1319.97 66.8101 1318.51 66.8101C1317.05 66.8101 1315.87 67.992 1315.87 69.4501C1315.87 70.9081 1317.05 72.0901 1318.51 72.0901Z" fill="white" fill-opacity="0.2"/>
<path d="M1295.59 71.7915C1296.94 71.2371 1297.58 69.6944 1297.03 68.3459C1296.47 66.9974 1294.93 66.3538 1293.58 66.9082C1292.24 67.4626 1291.59 69.0052 1292.15 70.3537C1292.7 71.7022 1294.24 72.346 1295.59 71.7915Z" fill="#7B2CBF"/>
<path d="M1295.59 71.7915C1296.94 71.2371 1297.58 69.6944 1297.03 68.3459C1296.47 66.9974 1294.93 66.3538 1293.58 66.9082C1292.24 67.4626 1291.59 69.0052 1292.15 70.3537C1292.7 71.7022 1294.24 72.346 1295.59 71.7915Z" fill="white" fill-opacity="0.2"/>
<path d="M1270.65 72.0998C1271.17 72.0998 1271.69 71.9444 1272.12 71.6532C1272.56 71.362 1272.9 70.9482 1273.1 70.4639C1273.3 69.9797 1273.35 69.4469 1273.25 68.9328C1273.15 68.4188 1272.89 67.9465 1272.52 67.5759C1272.15 67.2053 1271.68 66.953 1271.17 66.8507C1270.65 66.7485 1270.12 66.801 1269.64 67.0015C1269.15 67.2021 1268.74 67.5418 1268.45 67.9776C1268.16 68.4133 1268 68.9257 1268 69.4498C1268 70.1526 1268.28 70.8266 1268.78 71.3236C1269.27 71.8206 1269.95 72.0998 1270.65 72.0998V72.0998Z" fill="#7B2CBF"/>
<path d="M1270.65 72.0998C1271.17 72.0998 1271.69 71.9444 1272.12 71.6532C1272.56 71.362 1272.9 70.9482 1273.1 70.4639C1273.3 69.9797 1273.35 69.4469 1273.25 68.9328C1273.15 68.4188 1272.89 67.9465 1272.52 67.5759C1272.15 67.2053 1271.68 66.953 1271.17 66.8507C1270.65 66.7485 1270.12 66.801 1269.64 67.0015C1269.15 67.2021 1268.74 67.5418 1268.45 67.9776C1268.16 68.4133 1268 68.9257 1268 69.4498C1268 70.1526 1268.28 70.8266 1268.78 71.3236C1269.27 71.8206 1269.95 72.0998 1270.65 72.0998V72.0998Z" fill="white" fill-opacity="0.2"/>
<path d="M1413.25 50.6899C1414.71 50.6899 1415.89 49.5079 1415.89 48.0499C1415.89 46.5919 1414.71 45.4099 1413.25 45.4099C1411.79 45.4099 1410.61 46.5919 1410.61 48.0499C1410.61 49.5079 1411.79 50.6899 1413.25 50.6899Z" fill="#7B2CBF"/>
<path d="M1413.25 50.6899C1414.71 50.6899 1415.89 49.5079 1415.89 48.0499C1415.89 46.5919 1414.71 45.4099 1413.25 45.4099C1411.79 45.4099 1410.61 46.5919 1410.61 48.0499C1410.61 49.5079 1411.79 50.6899 1413.25 50.6899Z" fill="white" fill-opacity="0.2"/>
<path d="M1390.31 50.6902C1391.77 50.6902 1392.95 49.5082 1392.95 48.0502C1392.95 46.5921 1391.77 45.4102 1390.31 45.4102C1388.85 45.4102 1387.67 46.5921 1387.67 48.0502C1387.67 49.5082 1388.85 50.6902 1390.31 50.6902Z" fill="#7B2CBF"/>
<path d="M1390.31 50.6902C1391.77 50.6902 1392.95 49.5082 1392.95 48.0502C1392.95 46.5921 1391.77 45.4102 1390.31 45.4102C1388.85 45.4102 1387.67 46.5921 1387.67 48.0502C1387.67 49.5082 1388.85 50.6902 1390.31 50.6902Z" fill="white" fill-opacity="0.2"/>
<path d="M1366.38 50.6599C1366.9 50.6618 1367.42 50.5079 1367.86 50.2174C1368.29 49.927 1368.63 49.5132 1368.84 49.0286C1369.04 48.544 1369.09 48.0103 1368.99 47.4953C1368.89 46.9803 1368.64 46.5073 1368.26 46.1361C1367.89 45.7649 1367.42 45.5122 1366.9 45.4103C1366.39 45.3084 1365.86 45.3617 1365.37 45.5635C1364.89 45.7653 1364.47 46.1065 1364.18 46.5438C1363.89 46.9812 1363.74 47.4949 1363.74 48.0199C1363.74 48.7192 1364.02 49.3892 1364.52 49.8837C1365.01 50.3783 1365.68 50.6572 1366.38 50.6599V50.6599Z" fill="#7B2CBF"/>
<path d="M1366.38 50.6599C1366.9 50.6618 1367.42 50.5079 1367.86 50.2174C1368.29 49.927 1368.63 49.5132 1368.84 49.0286C1369.04 48.544 1369.09 48.0103 1368.99 47.4953C1368.89 46.9803 1368.64 46.5073 1368.26 46.1361C1367.89 45.7649 1367.42 45.5122 1366.9 45.4103C1366.39 45.3084 1365.86 45.3617 1365.37 45.5635C1364.89 45.7653 1364.47 46.1065 1364.18 46.5438C1363.89 46.9812 1363.74 47.4949 1363.74 48.0199C1363.74 48.7192 1364.02 49.3892 1364.52 49.8837C1365.01 50.3783 1365.68 50.6572 1366.38 50.6599V50.6599Z" fill="white" fill-opacity="0.2"/>
<path d="M1342.45 50.6599C1342.97 50.6599 1343.49 50.5042 1343.92 50.2125C1344.36 49.9209 1344.7 49.5065 1344.9 49.0217C1345.1 48.5369 1345.15 48.0035 1345.05 47.4892C1344.95 46.9749 1344.69 46.5027 1344.32 46.1325C1343.95 45.7623 1343.48 45.5107 1342.96 45.4096C1342.45 45.3084 1341.91 45.3624 1341.43 45.5645C1340.94 45.7666 1340.53 46.1078 1340.24 46.5449C1339.95 46.982 1339.8 47.4953 1339.8 48.0199C1339.8 48.3674 1339.87 48.7115 1340 49.0325C1340.14 49.3534 1340.33 49.6449 1340.58 49.8902C1340.82 50.1354 1341.12 50.3297 1341.44 50.4618C1341.76 50.5939 1342.1 50.6612 1342.45 50.6599V50.6599Z" fill="#7B2CBF"/>
<path d="M1342.45 50.6599C1342.97 50.6599 1343.49 50.5042 1343.92 50.2125C1344.36 49.9209 1344.7 49.5065 1344.9 49.0217C1345.1 48.5369 1345.15 48.0035 1345.05 47.4892C1344.95 46.9749 1344.69 46.5027 1344.32 46.1325C1343.95 45.7623 1343.48 45.5107 1342.96 45.4096C1342.45 45.3084 1341.91 45.3624 1341.43 45.5645C1340.94 45.7666 1340.53 46.1078 1340.24 46.5449C1339.95 46.982 1339.8 47.4953 1339.8 48.0199C1339.8 48.3674 1339.87 48.7115 1340 49.0325C1340.14 49.3534 1340.33 49.6449 1340.58 49.8902C1340.82 50.1354 1341.12 50.3297 1341.44 50.4618C1341.76 50.5939 1342.1 50.6612 1342.45 50.6599V50.6599Z" fill="white" fill-opacity="0.2"/>
<path d="M1318.51 50.6902C1319.97 50.6902 1321.15 49.5082 1321.15 48.0502C1321.15 46.5921 1319.97 45.4102 1318.51 45.4102C1317.05 45.4102 1315.87 46.5921 1315.87 48.0502C1315.87 49.5082 1317.05 50.6902 1318.51 50.6902Z" fill="#7B2CBF"/>
<path d="M1318.51 50.6902C1319.97 50.6902 1321.15 49.5082 1321.15 48.0502C1321.15 46.5921 1319.97 45.4102 1318.51 45.4102C1317.05 45.4102 1315.87 46.5921 1315.87 48.0502C1315.87 49.5082 1317.05 50.6902 1318.51 50.6902Z" fill="white" fill-opacity="0.2"/>
<path d="M1295.59 50.3892C1296.94 49.8348 1297.59 48.2922 1297.03 46.9437C1296.48 45.5952 1294.93 44.9514 1293.59 45.5059C1292.24 46.0603 1291.59 47.603 1292.15 48.9515C1292.7 50.3 1294.25 50.9437 1295.59 50.3892Z" fill="#7B2CBF"/>
<path d="M1295.59 50.3892C1296.94 49.8348 1297.59 48.2922 1297.03 46.9437C1296.48 45.5952 1294.93 44.9514 1293.59 45.5059C1292.24 46.0603 1291.59 47.603 1292.15 48.9515C1292.7 50.3 1294.25 50.9437 1295.59 50.3892Z" fill="white" fill-opacity="0.2"/>
<path d="M1270.65 50.6599C1271.17 50.6599 1271.69 50.5042 1272.12 50.2125C1272.56 49.9209 1272.9 49.5065 1273.1 49.0217C1273.3 48.5369 1273.35 48.0035 1273.25 47.4892C1273.15 46.9749 1272.89 46.5027 1272.52 46.1325C1272.15 45.7623 1271.68 45.5107 1271.16 45.4096C1270.65 45.3084 1270.11 45.3624 1269.63 45.5645C1269.15 45.7666 1268.73 46.1078 1268.44 46.5449C1268.15 46.982 1268 47.4953 1268 48.0199C1268 48.3674 1268.07 48.7115 1268.2 49.0325C1268.34 49.3534 1268.53 49.6449 1268.78 49.8902C1269.02 50.1354 1269.32 50.3297 1269.64 50.4618C1269.96 50.5939 1270.3 50.6612 1270.65 50.6599V50.6599Z" fill="#7B2CBF"/>
<path d="M1270.65 50.6599C1271.17 50.6599 1271.69 50.5042 1272.12 50.2125C1272.56 49.9209 1272.9 49.5065 1273.1 49.0217C1273.3 48.5369 1273.35 48.0035 1273.25 47.4892C1273.15 46.9749 1272.89 46.5027 1272.52 46.1325C1272.15 45.7623 1271.68 45.5107 1271.16 45.4096C1270.65 45.3084 1270.11 45.3624 1269.63 45.5645C1269.15 45.7666 1268.73 46.1078 1268.44 46.5449C1268.15 46.982 1268 47.4953 1268 48.0199C1268 48.3674 1268.07 48.7115 1268.2 49.0325C1268.34 49.3534 1268.53 49.6449 1268.78 49.8902C1269.02 50.1354 1269.32 50.3297 1269.64 50.4618C1269.96 50.5939 1270.3 50.6612 1270.65 50.6599V50.6599Z" fill="white" fill-opacity="0.2"/>
<path d="M1413.25 29.28C1414.71 29.28 1415.89 28.098 1415.89 26.64C1415.89 25.182 1414.71 24 1413.25 24C1411.79 24 1410.61 25.182 1410.61 26.64C1410.61 28.098 1411.79 29.28 1413.25 29.28Z" fill="#7B2CBF"/>
<path d="M1413.25 29.28C1414.71 29.28 1415.89 28.098 1415.89 26.64C1415.89 25.182 1414.71 24 1413.25 24C1411.79 24 1410.61 25.182 1410.61 26.64C1410.61 28.098 1411.79 29.28 1413.25 29.28Z" fill="white" fill-opacity="0.2"/>
<path d="M1390.31 29.28C1391.77 29.28 1392.95 28.098 1392.95 26.64C1392.95 25.182 1391.77 24 1390.31 24C1388.85 24 1387.67 25.182 1387.67 26.64C1387.67 28.098 1388.85 29.28 1390.31 29.28Z" fill="#7B2CBF"/>
<path d="M1390.31 29.28C1391.77 29.28 1392.95 28.098 1392.95 26.64C1392.95 25.182 1391.77 24 1390.31 24C1388.85 24 1387.67 25.182 1387.67 26.64C1387.67 28.098 1388.85 29.28 1390.31 29.28Z" fill="white" fill-opacity="0.2"/>
<path d="M1366.38 29.2902C1366.9 29.2922 1367.42 29.1385 1367.85 28.8485C1368.29 28.5586 1368.63 28.1453 1368.84 27.6613C1369.04 27.1772 1369.09 26.6441 1368.99 26.1294C1368.89 25.6147 1368.64 25.1416 1368.27 24.77C1367.9 24.3984 1367.43 24.145 1366.91 24.0419C1366.4 23.9388 1365.86 23.9907 1365.38 24.191C1364.89 24.3913 1364.48 24.7309 1364.19 25.167C1363.9 25.603 1363.74 26.1157 1363.74 26.6402C1363.74 27.3413 1364.02 28.0138 1364.51 28.5105C1365.01 29.0072 1365.68 29.2876 1366.38 29.2902V29.2902Z" fill="#7B2CBF"/>
<path d="M1366.38 29.2902C1366.9 29.2922 1367.42 29.1385 1367.85 28.8485C1368.29 28.5586 1368.63 28.1453 1368.84 27.6613C1369.04 27.1772 1369.09 26.6441 1368.99 26.1294C1368.89 25.6147 1368.64 25.1416 1368.27 24.77C1367.9 24.3984 1367.43 24.145 1366.91 24.0419C1366.4 23.9388 1365.86 23.9907 1365.38 24.191C1364.89 24.3913 1364.48 24.7309 1364.19 25.167C1363.9 25.603 1363.74 26.1157 1363.74 26.6402C1363.74 27.3413 1364.02 28.0138 1364.51 28.5105C1365.01 29.0072 1365.68 29.2876 1366.38 29.2902V29.2902Z" fill="white" fill-opacity="0.2"/>
<path d="M1342.45 29.2902C1342.97 29.2902 1343.49 29.1348 1343.92 28.8436C1344.36 28.5525 1344.7 28.1386 1344.9 27.6544C1345.1 27.1701 1345.15 26.6373 1345.05 26.1232C1344.95 25.6092 1344.69 25.137 1344.32 24.7664C1343.95 24.3958 1343.48 24.1434 1342.97 24.0412C1342.45 23.9389 1341.92 23.9914 1341.44 24.192C1340.95 24.3925 1340.54 24.7322 1340.25 25.168C1339.96 25.6038 1339.8 26.1161 1339.8 26.6402C1339.8 26.9882 1339.87 27.3329 1340 27.6544C1340.13 27.9759 1340.33 28.268 1340.58 28.5141C1340.82 28.7601 1341.11 28.9553 1341.44 29.0885C1341.76 29.2217 1342.1 29.2902 1342.45 29.2902V29.2902Z" fill="#7B2CBF"/>
<path d="M1342.45 29.2902C1342.97 29.2902 1343.49 29.1348 1343.92 28.8436C1344.36 28.5525 1344.7 28.1386 1344.9 27.6544C1345.1 27.1701 1345.15 26.6373 1345.05 26.1232C1344.95 25.6092 1344.69 25.137 1344.32 24.7664C1343.95 24.3958 1343.48 24.1434 1342.97 24.0412C1342.45 23.9389 1341.92 23.9914 1341.44 24.192C1340.95 24.3925 1340.54 24.7322 1340.25 25.168C1339.96 25.6038 1339.8 26.1161 1339.8 26.6402C1339.8 26.9882 1339.87 27.3329 1340 27.6544C1340.13 27.9759 1340.33 28.268 1340.58 28.5141C1340.82 28.7601 1341.11 28.9553 1341.44 29.0885C1341.76 29.2217 1342.1 29.2902 1342.45 29.2902V29.2902Z" fill="white" fill-opacity="0.2"/>
<path d="M1318.51 29.28C1319.97 29.28 1321.15 28.098 1321.15 26.64C1321.15 25.182 1319.97 24 1318.51 24C1317.05 24 1315.87 25.182 1315.87 26.64C1315.87 28.098 1317.05 29.28 1318.51 29.28Z" fill="#7B2CBF"/>
<path d="M1318.51 29.28C1319.97 29.28 1321.15 28.098 1321.15 26.64C1321.15 25.182 1319.97 24 1318.51 24C1317.05 24 1315.87 25.182 1315.87 26.64C1315.87 28.098 1317.05 29.28 1318.51 29.28Z" fill="white" fill-opacity="0.2"/>
<path d="M1295.59 28.9776C1296.94 28.4231 1297.58 26.8805 1297.03 25.532C1296.48 24.1835 1294.93 23.5398 1293.58 24.0942C1292.24 24.6487 1291.59 26.1913 1292.15 27.5398C1292.7 28.8883 1294.24 29.532 1295.59 28.9776Z" fill="#7B2CBF"/>
<path d="M1295.59 28.9776C1296.94 28.4231 1297.58 26.8805 1297.03 25.532C1296.48 24.1835 1294.93 23.5398 1293.58 24.0942C1292.24 24.6487 1291.59 26.1913 1292.15 27.5398C1292.7 28.8883 1294.24 29.532 1295.59 28.9776Z" fill="white" fill-opacity="0.2"/>
<path d="M1270.65 29.2902C1271.17 29.2902 1271.69 29.1348 1272.12 28.8436C1272.56 28.5525 1272.9 28.1386 1273.1 27.6544C1273.3 27.1701 1273.35 26.6373 1273.25 26.1232C1273.15 25.6092 1272.89 25.137 1272.52 24.7664C1272.15 24.3958 1271.68 24.1434 1271.17 24.0412C1270.65 23.9389 1270.12 23.9914 1269.64 24.192C1269.15 24.3925 1268.74 24.7322 1268.45 25.168C1268.16 25.6038 1268 26.1161 1268 26.6402C1268 27.343 1268.28 28.0171 1268.78 28.5141C1269.27 29.011 1269.95 29.2902 1270.65 29.2902V29.2902Z" fill="#7B2CBF"/>
<path d="M1270.65 29.2902C1271.17 29.2902 1271.69 29.1348 1272.12 28.8436C1272.56 28.5525 1272.9 28.1386 1273.1 27.6544C1273.3 27.1701 1273.35 26.6373 1273.25 26.1232C1273.15 25.6092 1272.89 25.137 1272.52 24.7664C1272.15 24.3958 1271.68 24.1434 1271.17 24.0412C1270.65 23.9389 1270.12 23.9914 1269.64 24.192C1269.15 24.3925 1268.74 24.7322 1268.45 25.168C1268.16 25.6038 1268 26.1161 1268 26.6402C1268 27.343 1268.28 28.0171 1268.78 28.5141C1269.27 29.011 1269.95 29.2902 1270.65 29.2902V29.2902Z" fill="white" fill-opacity="0.2"/>
</g>
<mask id="mask0_68_2472" style="mask-type:alpha" maskUnits="userSpaceOnUse" x="1301" y="628" width="279" height="279">
<circle cx="1440.5" cy="767.5" r="137.576" fill="#C4C4C4" stroke="#F8BB54" stroke-width="3.84828"/>
</mask>
<g mask="url(#mask0_68_2472)">
<path d="M1219.93 686.504C1219.93 686.504 1284.89 674.47 1301.65 632.355C1317.68 591.982 1383.71 581.13 1383.71 581.13" stroke="#5A189A" stroke-width="4.32558" stroke-miterlimit="10"/>
<path d="M1219.93 706.746C1219.93 706.746 1299.62 692.857 1320.15 642.026C1339.72 593.5 1420.66 581.13 1420.66 581.13" stroke="#5A189A" stroke-width="4.32558" stroke-miterlimit="10"/>
<path d="M1219.93 727.045C1219.93 727.045 1314.3 711.244 1338.6 651.81C1361.77 594.963 1457.61 581.13 1457.61 581.13" stroke="#5A189A" stroke-width="4.32558" stroke-miterlimit="10"/>
<path d="M1219.93 747.287C1219.93 747.287 1329.04 729.631 1357.1 661.482C1383.82 596.481 1494.56 581.13 1494.56 581.13" stroke="#5A189A" stroke-width="4.32558" stroke-miterlimit="10"/>
<path d="M1219.93 767.53C1219.93 767.53 1343.77 748.018 1375.61 671.209C1405.87 597.999 1531.45 581.13 1531.45 581.13" stroke="#5A189A" stroke-width="4.32558" stroke-miterlimit="10"/>
<path d="M1219.93 787.828C1219.93 787.828 1358.45 766.461 1394.05 680.937C1427.97 599.461 1568.4 581.13 1568.4 581.13" stroke="#5A189A" stroke-width="4.32558" stroke-miterlimit="10"/>
<path d="M1219.93 808.07C1219.93 808.07 1373.19 784.792 1412.56 690.664C1450.02 600.979 1605.36 581.13 1605.36 581.13" stroke="#5A189A" stroke-width="4.32558" stroke-miterlimit="10"/>
<path d="M1219.93 828.313C1219.93 828.313 1387.92 803.178 1431.01 700.336C1472.06 602.497 1642.31 581.13 1642.31 581.13" stroke="#5A189A" stroke-width="4.32558" stroke-miterlimit="10"/>
<path d="M1219.93 848.612C1219.93 848.612 1402.6 821.622 1449.51 710.119C1494.11 603.959 1679.2 581.13 1679.2 581.13" stroke="#5A189A" stroke-width="4.32558" stroke-miterlimit="10"/>
<path d="M1219.93 868.853C1219.93 868.853 1417.34 840.009 1467.96 719.847C1516.16 605.477 1716.15 581.13 1716.15 581.13" stroke="#5A189A" stroke-width="4.32558" stroke-miterlimit="10"/>
<path d="M1219.93 889.152C1219.93 889.152 1432.07 858.395 1486.46 729.575C1538.2 606.995 1753.1 581.13 1753.1 581.13" stroke="#5A189A" stroke-width="4.32558" stroke-miterlimit="10"/>
<path d="M1219.93 909.396C1219.93 909.396 1446.75 876.783 1504.91 739.303C1560.25 608.458 1790.05 581.13 1790.05 581.13" stroke="#5A189A" stroke-width="4.32558" stroke-miterlimit="10"/>
<path d="M1219.93 929.636C1219.93 929.636 1461.49 895.17 1523.41 748.974C1582.3 609.976 1827 581.13 1827 581.13" stroke="#5A189A" stroke-width="4.32558" stroke-miterlimit="10"/>
<path d="M1219.93 949.935C1219.93 949.935 1476.22 913.557 1541.91 758.758C1604.34 611.494 1863.9 581.13 1863.9 581.13" stroke="#5A189A" stroke-width="4.32558" stroke-miterlimit="10"/>
<path d="M1219.93 970.179C1219.93 970.179 1490.9 931.943 1560.36 768.429C1626.39 612.956 1900.85 581.13 1900.85 581.13" stroke="#5A189A" stroke-width="4.32558" stroke-miterlimit="10"/>
<path d="M1219.93 990.423C1219.93 990.423 1505.64 950.33 1578.87 778.157C1648.44 614.474 1937.8 581.13 1937.8 581.13" stroke="#5A189A" stroke-width="4.32558" stroke-miterlimit="10"/>
<path d="M1219.93 1010.72C1219.93 1010.72 1520.37 968.772 1597.31 787.884C1670.48 615.992 1974.75 581.13 1974.75 581.13" stroke="#5A189A" stroke-width="4.32558" stroke-miterlimit="10"/>
<path d="M1219.93 1030.96C1219.93 1030.96 1535.05 987.104 1615.82 797.612C1692.53 617.454 2011.65 581.13 2011.65 581.13" stroke="#5A189A" stroke-width="4.32558" stroke-miterlimit="10"/>
</g>
</g>
<defs>
<radialGradient id="paint0_radial_68_2472" cx="0" cy="0" r="1" gradientUnits="userSpaceOnUse" gradientTransform="translate(721 384) rotate(90) scale(384 720)">
<stop stop-color="#2A3342" stop-opacity="0"/>
<stop offset="1" stop-color="#2A3342"/>
</radialGradient>
<clipPath id="clip0_68_2472">
<rect width="1440" height="768" fill="white"/>
</clipPath>
<clipPath id="clip1_68_2472">
<rect width="1440" height="768" fill="white"/>
</clipPath>
<clipPath id="clip2_68_2472">
<rect width="148.89" height="90.91" fill="white" transform="translate(1267 24)"/>
</clipPath>
</defs>
</svg>
