<svg width="176" height="119" viewBox="0 0 176 119" fill="none" xmlns="http://www.w3.org/2000/svg">
<g clip-path="url(#clip0_916_2267)">
<path d="M171.505 114.945L169.767 115.695L166.083 109.262L168.648 108.155L171.505 114.945Z" fill="#FFB6B6"/>
<path d="M157.142 116.611L155.253 116.611L154.354 109.23H157.142L157.142 116.611Z" fill="#FFB6B6"/>
<path d="M157.209 118.607L151.399 118.607V118.532C151.399 117.925 151.637 117.342 152.061 116.913C152.485 116.483 153.06 116.242 153.66 116.242H153.66L154.721 115.427L156.702 116.242L157.209 116.242L157.209 118.607Z" fill="#2F2E41"/>
<path d="M172.562 116.223L167.217 118.53L167.189 118.461C166.954 117.902 166.947 117.272 167.171 116.708C167.395 116.145 167.831 115.695 168.382 115.456L168.382 115.456L169.043 114.285L171.18 114.249L171.647 114.047L172.562 116.223Z" fill="#2F2E41"/>
<path d="M155.289 72.9301L152.417 90.6376L153.199 93.2764L152.173 95.1452L153.679 111.558L153.068 112.921L154.776 113.987H158.251L158.435 99.129L159.294 96.9474V95.7452L161.041 86.6849L161.363 97.0487L161.872 99.2336L161.445 100.789L162.002 101.879L166.784 112.277H170.681L170.379 109.926C171.078 109.568 169.331 108.521 169.163 107.747L169.737 106.44L169.163 103.97L168.637 99.1439L169.192 88.957L168.931 75.239C167.623 73.4625 166.171 72.0923 164.372 71.7086L155.289 72.9301Z" fill="#2F2E41"/>
<path d="M162.281 49.6105C164.456 49.6105 166.22 47.8248 166.22 45.6221C166.22 43.4194 164.456 41.6338 162.281 41.6338C160.106 41.6338 158.343 43.4194 158.343 45.6221C158.343 47.8248 160.106 49.6105 162.281 49.6105Z" fill="#FFB6B6"/>
<path d="M146.045 77.1138C145.996 76.8898 145.996 76.6577 146.045 76.4337C146.094 76.2097 146.191 75.9993 146.329 75.8174C146.467 75.6355 146.643 75.4864 146.844 75.3808C147.045 75.2751 147.267 75.2154 147.493 75.2058L149.079 69.8647L150.913 72.0897L149.126 76.8205C149.116 77.2067 148.967 77.576 148.707 77.8584C148.447 78.1409 148.094 78.3169 147.714 78.3531C147.334 78.3892 146.954 78.283 146.647 78.0546C146.339 77.8262 146.125 77.4915 146.045 77.1138Z" fill="#FFB6B6"/>
<path d="M156.336 55.1605L155.625 53.845L154.708 54.1547C154.708 54.1547 153.697 54.8156 152.281 57.3108C151.626 58.4648 150.21 65.865 150.21 65.865L146.901 74.74L150.275 75.3177L153.09 68.0037L156.353 61.0043L156.336 55.1605Z" fill="#6C63FF"/>
<path d="M162.135 72.8742C164.908 72.8742 167.706 73.4271 168.852 75.4036C168.822 74.9739 168.747 74.2286 168.669 73.5449L168.382 71.7078L168.672 70.0234L169.056 69.6345L168.369 68.9382L168.838 65.4221L170.386 57.139C170.507 56.4873 170.413 55.8133 170.117 55.2218C169.821 54.6303 169.34 54.1544 168.75 53.8682L167.262 53.1437L164.851 50.8785L160.489 50.8455L159.065 52.7192L155.319 54.0078L155.948 67.1824L155.536 68.1564C155.628 68.2423 155.823 68.4259 155.929 68.5442C156.078 68.7115 155.888 69.5728 155.761 70.0713L155.587 71.3994L156.135 71.7959L155.423 72.6483L155.28 73.7303C155.988 73.5609 159.046 72.8742 162.135 72.8742Z" fill="#6C63FF"/>
<path d="M163.289 49.4152C163.306 49.3777 163.322 49.34 163.339 49.3022C163.333 49.3025 163.326 49.3034 163.32 49.3036L163.289 49.4152Z" fill="#2F2E41"/>
<path d="M166.329 41.8151C166.142 41.6365 165.899 41.53 165.642 41.5145C165.388 41.5228 165.13 41.7557 165.182 42.0082C164.715 41.1694 163.97 40.5243 163.079 40.1861C162.189 39.8479 161.209 39.8382 160.312 40.1587C159.679 40.3848 159.059 40.8373 158.913 41.5008C158.899 41.6751 158.848 41.8441 158.763 41.9963C158.689 42.0776 158.594 42.1354 158.488 42.1625C158.382 42.1896 158.271 42.1848 158.168 42.1488L158.162 42.1469C158.127 42.1347 158.089 42.1335 158.053 42.1435C158.017 42.1534 157.985 42.1741 157.961 42.2027C157.936 42.2314 157.921 42.2667 157.917 42.3042C157.913 42.3417 157.92 42.3795 157.937 42.4129L158.116 42.7512C157.891 42.8021 157.656 42.7971 157.433 42.7365C157.396 42.7266 157.356 42.7286 157.32 42.7422C157.284 42.7558 157.254 42.7804 157.232 42.8125C157.21 42.8446 157.199 42.8826 157.2 42.9215C157.2 42.9603 157.213 42.9981 157.235 43.0295C157.533 43.4418 157.921 43.7782 158.37 44.0117C158.819 44.2452 159.315 44.3694 159.819 44.3745C160.535 44.3701 161.258 44.1203 161.954 44.287C162.223 44.3515 162.475 44.4762 162.691 44.652C162.906 44.8279 163.08 45.0504 163.2 45.3032C163.319 45.5561 163.382 45.8328 163.382 46.1131C163.382 46.3935 163.32 46.6703 163.201 46.9234C163.415 46.6864 163.829 46.7425 164.047 46.9749C164.148 47.0992 164.223 47.2432 164.266 47.398C164.31 47.5527 164.322 47.7148 164.301 47.8743C164.242 48.3629 164.099 48.8372 163.878 49.2752C164.724 49.2488 165.542 48.9601 166.221 48.448C166.9 47.9359 167.407 47.2251 167.674 46.4116C167.942 45.5981 167.956 44.7211 167.715 43.8991C167.475 43.0771 166.991 42.3497 166.329 41.8151H166.329Z" fill="#2F2E41"/>
<path d="M39.0552 26.9244C44.4626 26.9244 48.8461 22.485 48.8461 17.0087C48.8461 11.5323 44.4626 7.0929 39.0552 7.0929C33.6479 7.0929 29.2644 11.5323 29.2644 17.0087C29.2644 22.485 33.6479 26.9244 39.0552 26.9244Z" fill="#6C63FF"/>
<path d="M11.5371 46.5051C6.62441 35.4999 6.80555 21.5502 14.4299 12.2635C16.9807 25.1411 23.9468 36.6898 34.0958 44.8664C38.0211 48.0054 42.7098 51.0827 43.7821 56.0303C44.4493 59.1087 43.5036 62.3649 41.8685 65.0465C40.2333 67.7282 37.9541 69.9341 35.7008 72.1081L35.448 72.852C25.6432 65.977 16.4498 57.5104 11.5371 46.5051Z" fill="#F2F2F2"/>
<path d="M14.6421 12.3978C12.8875 22.1285 14.191 32.49 18.4559 41.4052C19.3779 43.3326 20.4789 45.2066 21.953 46.7568C23.4277 48.3077 25.1909 49.284 27.2193 49.8838C29.0737 50.4321 31.0332 50.7755 32.7236 51.7708C34.5055 52.8199 35.6113 54.5802 36.042 56.5988C36.5691 59.0687 36.1884 61.5831 35.7318 64.0289C35.2248 66.7444 34.6557 69.5569 35.3904 72.2867C35.4794 72.6175 34.9674 72.7381 34.8786 72.4078C33.6003 67.6583 36.0855 62.9741 35.7382 58.199C35.5761 55.9709 34.75 53.7787 32.8636 52.4877C31.214 51.3588 29.1936 51.003 27.3113 50.4642C25.3349 49.8985 23.5599 49.0344 22.0495 47.601C20.5044 46.1348 19.3288 44.3005 18.3621 42.4053C16.182 38.1314 14.7449 33.4225 13.9846 28.6815C13.1102 23.2324 13.1627 17.6719 14.1398 12.2407C14.2004 11.9046 14.7023 12.0639 14.6421 12.3978H14.6421Z" fill="white"/>
<path d="M16.9186 38.5814C15.3271 39.098 13.606 39.0248 12.0628 38.3749C10.5196 37.725 9.25475 36.5407 8.49414 35.0335C8.34127 34.728 8.80284 34.4731 8.95591 34.779C9.66163 36.1838 10.8399 37.2869 12.2782 37.8891C13.7164 38.4913 15.3199 38.553 16.7991 38.0631C17.1207 37.957 17.2384 38.4759 16.9186 38.5814H16.9186Z" fill="white"/>
<path d="M26.2429 49.7312C27.8333 46.6688 28.2256 43.1119 27.3415 39.7697C27.2536 39.4386 27.7656 39.3179 27.8533 39.6486C28.7669 43.1284 28.3513 46.829 26.6894 50.0121C26.5308 50.3154 26.0852 50.0328 26.2429 49.7312H26.2429Z" fill="white"/>
<path d="M13.7859 23.4054C14.4428 23.3355 15.0724 23.1014 15.6179 22.7242C16.1634 22.347 16.6079 21.8384 16.9114 21.2443C17.0662 20.9391 17.5116 21.222 17.3579 21.5252C17.0195 22.1801 16.528 22.7411 15.9261 23.1592C15.3243 23.5773 14.6305 23.8398 13.9054 23.9237C13.8377 23.9374 13.7674 23.9245 13.7088 23.8876C13.6502 23.8507 13.6076 23.7926 13.5898 23.7251C13.5743 23.6564 13.5862 23.5842 13.6229 23.5244C13.6596 23.4645 13.7182 23.4217 13.7859 23.4054Z" fill="white"/>
<path d="M54.807 12.3713C54.7158 12.5647 54.6245 12.758 54.5353 12.9553C53.3216 15.561 52.3189 18.2622 51.5371 21.0324C51.4733 21.2456 51.4118 21.4626 51.3542 21.6772C49.5409 28.3715 48.9705 35.3485 49.6721 42.2536C49.9538 45.001 50.4414 47.7228 51.1308 50.3953C52.0831 54.0861 53.4056 58.0111 53.1072 61.6965C53.0803 62.0814 53.03 62.4642 52.9563 62.8427L36.3638 73.1067C36.3145 73.1108 36.2673 73.1189 36.2179 73.1232L35.5739 73.5637C35.5288 73.4284 35.485 73.287 35.4399 73.1517C35.4135 73.0733 35.3907 72.9927 35.3642 72.9143C35.3478 72.8613 35.3315 72.8082 35.3136 72.7613C35.3081 72.7437 35.3027 72.726 35.2994 72.7122C35.2816 72.6653 35.2699 72.6199 35.2544 72.5769C35.007 71.7876 34.7647 70.9951 34.5275 70.1996C34.5252 70.1957 34.5252 70.1957 34.5266 70.1896C32.7341 64.1231 31.426 57.8518 31.0994 51.5788C31.0896 51.3901 31.0773 51.1976 31.0752 51.0042C30.9434 48.1758 31.0401 45.3412 31.3644 42.5287C31.5468 40.9893 31.8061 39.4602 32.1412 37.9473C33.0145 34.0399 34.4892 30.296 36.5113 26.8527C40.5432 19.9892 46.6977 14.5081 54.2301 12.5177C54.4228 12.4669 54.612 12.4183 54.807 12.3713Z" fill="#F2F2F2"/>
<path d="M54.8983 12.6077C47.7126 19.3073 42.5936 28.3752 40.699 38.094C40.2894 40.1951 40.0544 42.3627 40.3098 44.4993C40.5653 46.6368 41.3928 48.4915 42.6558 50.2072C43.8104 51.7757 45.1708 53.2447 45.9288 55.0701C46.7279 56.9942 46.5643 59.074 45.7082 60.9484C44.6607 63.2419 42.862 65.0174 41.0434 66.6917C39.0243 68.5508 36.8979 70.4494 35.8617 73.077C35.7361 73.3954 35.2557 73.1795 35.3811 72.8616C37.1839 68.29 41.953 66.0652 44.5143 62.0408C45.7095 60.1629 46.3531 57.9089 45.6143 55.7279C44.9684 53.8207 43.5668 52.3046 42.3841 50.7267C41.1423 49.0699 40.2388 47.2976 39.885 45.2322C39.523 43.1194 39.6748 40.9379 40.0296 38.8354C40.8297 34.0936 42.4816 29.4575 44.6929 25.2084C47.2342 20.3245 50.5818 15.9168 54.5907 12.176C54.8389 11.9446 55.1449 12.3778 54.8983 12.6077L54.8983 12.6077Z" fill="white"/>
<path d="M41.1503 34.902C39.5724 34.344 38.2417 33.2361 37.396 31.7762C36.5502 30.3163 36.2443 28.5995 36.533 26.9323C36.5926 26.5952 37.1126 26.6731 37.053 27.0106C36.7813 28.5626 37.0664 30.1618 37.8568 31.5197C38.6471 32.8775 39.8907 33.9044 41.363 34.4152C41.6829 34.5266 41.4683 35.0127 41.1503 34.902H41.1503Z" fill="white"/>
<path d="M41.9669 49.4899C45.0573 48.0145 47.485 45.4137 48.766 42.206C48.8927 41.8881 49.3731 42.1039 49.2466 42.4214C47.9074 45.7569 45.3756 48.4582 42.1563 49.9864C41.8494 50.1318 41.6616 49.6345 41.9669 49.4899L41.9669 49.4899Z" fill="white"/>
<path d="M47.6709 20.8745C48.237 21.2193 48.8788 21.4162 49.5386 21.4477C50.1985 21.4791 50.8557 21.3441 51.4513 21.0548C51.7562 20.9055 51.9437 21.403 51.6407 21.5513C50.9812 21.8679 50.2552 22.0161 49.5261 21.983C48.797 21.9498 48.0871 21.7364 47.4582 21.3613C47.396 21.331 47.3476 21.2778 47.3227 21.2126C47.2978 21.1473 47.2984 21.075 47.3243 21.0102C47.3527 20.9459 47.4051 20.8956 47.4701 20.8702C47.535 20.8447 47.6072 20.8463 47.6709 20.8745Z" fill="white"/>
<path d="M94.0874 34.4507C89.1746 23.4455 89.3558 9.4958 96.9801 0.209106C99.5309 13.0866 106.497 24.6353 116.646 32.8119C120.571 35.9509 125.26 39.0283 126.332 43.9758C127 47.0543 126.054 50.3104 124.419 52.992C122.784 55.6737 120.504 57.8796 118.251 60.0536L117.998 60.7976C108.193 53.9226 99.0001 45.4559 94.0874 34.4507Z" fill="#F2F2F2"/>
<path d="M97.1923 0.34334C95.4377 10.0741 96.7412 20.4356 101.006 29.3507C101.928 31.2782 103.029 33.1522 104.503 34.7023C105.978 36.2532 107.741 37.2295 109.77 37.8293C111.624 38.3776 113.583 38.721 115.274 39.7163C117.056 40.7654 118.162 42.5257 118.592 44.5444C119.119 47.0143 118.739 49.5287 118.282 51.9744C117.775 54.69 117.206 57.5024 117.941 60.2323C118.03 60.5631 117.518 60.6836 117.429 60.3533C116.151 55.6039 118.636 50.9196 118.288 46.1446C118.126 43.9164 117.3 41.7243 115.414 40.4333C113.764 39.3044 111.744 38.9485 109.862 38.4098C107.885 37.8441 106.11 36.98 104.6 35.5466C103.055 34.0803 101.879 32.246 100.912 30.3509C98.7323 26.077 97.2951 21.3681 96.5348 16.6271C95.6605 11.1779 95.713 5.61746 96.6901 0.186244C96.7507 -0.14989 97.2526 0.00941196 97.1923 0.34334H97.1923Z" fill="white"/>
<path d="M99.4689 26.527C97.8773 27.0436 96.1562 26.9704 94.613 26.3205C93.0698 25.6705 91.805 24.4862 91.0444 22.9791C90.8915 22.6736 91.3531 22.4186 91.5062 22.7245C92.2119 24.1294 93.3902 25.2324 94.8284 25.8346C96.2667 26.4369 97.8701 26.4986 99.3493 26.0086C99.6709 25.9025 99.7886 26.4215 99.4689 26.527Z" fill="white"/>
<path d="M108.793 37.6767C110.384 34.6144 110.776 31.0575 109.892 27.7152C109.804 27.3841 110.316 27.2635 110.404 27.5942C111.317 31.0739 110.902 34.7746 109.24 37.9577C109.081 38.2609 108.635 37.9784 108.793 37.6767H108.793Z" fill="white"/>
<path d="M96.3362 11.3508C96.9931 11.2809 97.6226 11.0468 98.1682 10.6696C98.7137 10.2924 99.1582 9.78387 99.4617 9.18969C99.6164 8.88452 100.062 9.16745 99.9081 9.47064C99.5698 10.1255 99.0782 10.6865 98.4764 11.1046C97.8746 11.5228 97.1808 11.7852 96.4557 11.8692C96.388 11.8829 96.3177 11.87 96.2591 11.8331C96.2004 11.7962 96.1579 11.7381 96.14 11.6705C96.1245 11.6018 96.1364 11.5297 96.1732 11.4698C96.2099 11.4099 96.2685 11.3672 96.3362 11.3508V11.3508Z" fill="white"/>
<path d="M137.357 0.316895C137.266 0.510229 137.175 0.703565 137.086 0.900852C135.872 3.50654 134.869 6.20778 134.087 8.97793C134.024 9.19113 133.962 9.40817 133.904 9.62278C132.091 16.317 131.521 23.294 132.222 30.1991C132.504 32.9466 132.992 35.6684 133.681 38.3409C134.633 42.0317 135.956 45.9567 135.657 49.6421C135.631 50.0269 135.58 50.4097 135.507 50.7882L118.914 61.0522C118.865 61.0564 118.818 61.0645 118.768 61.0688L118.124 61.5092C118.079 61.3739 118.035 61.2326 117.99 61.0973C117.964 61.0189 117.941 60.9382 117.914 60.8598C117.898 60.8069 117.882 60.7537 117.864 60.7069C117.858 60.6893 117.853 60.6715 117.85 60.6577C117.832 60.6109 117.82 60.5654 117.805 60.5224C117.557 59.7331 117.315 58.9407 117.078 58.1451C117.075 58.1413 117.075 58.1413 117.077 58.1352C115.284 52.0687 113.976 45.7974 113.65 39.5244C113.64 39.3356 113.628 39.1432 113.625 38.9497C113.494 36.1213 113.59 33.2867 113.915 30.4743C114.097 28.9348 114.356 27.4058 114.691 25.8929C115.565 21.9855 117.039 18.2416 119.061 14.7983C123.093 7.9348 129.248 2.45365 136.78 0.463243C136.973 0.412466 137.162 0.363835 137.357 0.316895Z" fill="#F0F0F0"/>
<path d="M137.449 0.55328C130.263 7.25283 125.144 16.3207 123.249 26.0395C122.84 28.1407 122.605 30.3083 122.86 32.4448C123.116 34.5824 123.943 36.437 125.206 38.1527C126.361 39.7212 127.721 41.1902 128.479 43.0157C129.278 44.9398 129.115 47.0195 128.258 48.894C127.211 51.1874 125.412 52.9629 123.594 54.6373C121.575 56.4964 119.448 58.395 118.412 61.0226C118.286 61.3409 117.806 61.125 117.931 60.8071C119.734 56.2355 124.503 54.0108 127.065 49.9863C128.26 48.1085 128.903 45.8544 128.165 43.6734C127.519 41.7663 126.117 40.2502 124.934 38.6723C123.693 37.0155 122.789 35.2432 122.435 33.1778C122.073 31.065 122.225 28.8835 122.58 26.7809C123.38 22.0391 125.032 17.403 127.243 13.154C129.784 8.27003 133.132 3.86233 137.141 0.121584C137.389 -0.109841 137.695 0.323374 137.449 0.553286L137.449 0.55328Z" fill="white"/>
<path d="M123.701 22.8475C122.123 22.2895 120.792 21.1817 119.946 19.7218C119.1 18.2619 118.795 16.545 119.083 14.8779C119.143 14.5407 119.663 14.6186 119.603 14.9562C119.332 16.5082 119.617 18.1074 120.407 19.4652C121.197 20.823 122.441 21.85 123.913 22.3608C124.233 22.4721 124.019 22.9583 123.701 22.8475H123.701Z" fill="white"/>
<path d="M124.517 37.4354C127.607 35.9601 130.035 33.3592 131.316 30.1516C131.443 29.8336 131.923 30.0495 131.797 30.367C130.458 33.7025 127.926 36.4038 124.707 37.932C124.4 38.0774 124.212 37.5801 124.517 37.4354L124.517 37.4354Z" fill="white"/>
<path d="M130.221 8.82008C130.787 9.16482 131.429 9.36177 132.089 9.39323C132.749 9.4247 133.406 9.28969 134.002 9.00035C134.306 8.85104 134.494 9.34854 134.191 9.49688C133.531 9.81346 132.805 9.96166 132.076 9.92853C131.347 9.8954 130.637 9.68196 130.008 9.30684C129.946 9.27651 129.898 9.22334 129.873 9.15812C129.848 9.09291 129.849 9.02054 129.875 8.95574C129.903 8.89143 129.955 8.84111 130.02 8.81571C130.085 8.79031 130.157 8.79188 130.221 8.82008Z" fill="white"/>
<path d="M31.4721 116.069L33.2857 117.492L40.3368 118.731L48.1742 99.0003C48.1742 99.0003 52.9736 83.7944 66.412 86.9052L109.607 86.1275C109.607 86.1275 122.869 84.7509 125.061 91.0854C125.476 92.2852 136.676 118.791 136.676 118.791L144.528 117.669L143.587 95.0712L124.937 51.2279L92.5209 49.178L59.1169 51.5195L31.4721 116.069Z" fill="#3F3D56"/>
<path d="M67.3719 88.2661C74.2636 88.2661 79.8504 82.608 79.8504 75.6284C79.8504 68.6487 74.2636 62.9906 67.3719 62.9906C60.4802 62.9906 54.8934 68.6487 54.8934 75.6284C54.8934 82.608 60.4802 88.2661 67.3719 88.2661Z" fill="#2F2E41"/>
<path d="M109.223 88.2661C116.115 88.2661 121.701 82.608 121.701 75.6284C121.701 68.6487 116.115 62.9906 109.223 62.9906C102.331 62.9906 96.7444 68.6487 96.7444 75.6284C96.7444 82.608 102.331 88.2661 109.223 88.2661Z" fill="#2F2E41"/>
<path d="M52.7816 34.2155L57.9196 33.1951C57.9196 33.1951 96.6038 27.605 121.055 34.2155L119.206 39.465L54.5094 39.0762L52.7816 34.2155Z" fill="#E6E6E6"/>
<path d="M104.94 61.338H72.1099C68.1238 61.338 64.6787 58.5426 63.9183 54.6912L60.3255 36.4921C60.246 36.0949 60.2492 35.6854 60.3348 35.2895C60.4204 34.8937 60.5866 34.5203 60.8227 34.1931C61.0698 33.8499 61.3838 33.5618 61.7454 33.3467C62.107 33.1316 62.5084 32.994 62.9246 32.9426C80.2395 30.7659 97.3849 30.7622 113.885 32.9313C114.296 32.9822 114.691 33.1181 115.048 33.3305C115.404 33.543 115.713 33.8274 115.957 34.1662C116.191 34.4886 116.358 34.8564 116.446 35.2469C116.534 35.6373 116.542 36.0419 116.469 36.4356L113.153 54.5789C112.437 58.4954 108.983 61.338 104.94 61.338Z" fill="#6C63FF"/>
<path d="M38.1779 37.1784L38.3208 34.574C38.3431 34.1683 38.4621 33.7741 38.6677 33.4251C38.8733 33.0761 39.1593 32.7828 39.5013 32.5702C41.5741 31.2824 47.1656 28.4468 54.3012 29.9332C54.8023 30.0383 55.2593 30.297 55.6101 30.6743C55.9608 31.0516 56.1884 31.5292 56.2618 32.042L56.4528 33.3971L38.1779 37.1784Z" fill="#3F3D56"/>
<path d="M138.801 37.1784L120.526 33.3972L120.833 31.2201C120.868 30.963 120.979 30.7226 121.15 30.5296C121.322 30.3366 121.546 30.2 121.795 30.1373C130.024 28.0458 136.323 31.76 138.058 32.9482C138.222 33.0614 138.359 33.2114 138.457 33.3866C138.555 33.5618 138.613 33.7576 138.624 33.9587L138.801 37.1784Z" fill="#3F3D56"/>
<path d="M32.3753 117.768C31.9349 117.772 31.5024 117.649 31.129 117.413C26.2358 114.519 23.1851 109.216 22.0688 101.655C21.1467 95.4099 21.5318 87.5711 23.2133 78.3563C26.1944 62.0192 32.4427 45.6894 34.9907 39.4269C35.3283 38.6004 35.8528 37.8656 36.5221 37.2819C37.1913 36.6982 37.9866 36.2819 38.8439 36.0664C44.0967 34.7579 53.2665 32.5629 55.6613 32.5629C58.9431 32.5629 60.7188 35.6916 60.7364 35.7233L60.7462 35.7491L63.6283 48.4064V48.589C65.2183 54.0374 64.0369 57.9731 62.765 60.3155C61.3845 62.8581 59.5982 64.1274 59.5804 64.14C56.7754 66.3026 52.2056 73.2695 47.6575 82.3195C42.9313 91.7243 39.4277 101.004 38.2856 107.144C36.8877 114.658 34.8385 116.959 33.3656 117.565C33.0516 117.697 32.7153 117.766 32.3753 117.768Z" fill="#E6E6E6"/>
<path d="M103.858 59.7826H72.8378C71.007 59.7801 69.2338 59.1339 67.8212 57.9544C66.4086 56.7749 65.4441 55.1353 65.0925 53.3156L61.6978 35.6157C61.6224 35.2239 61.6271 34.8206 61.7116 34.4307C61.7962 34.0409 61.9587 33.6727 62.1893 33.3489C62.4198 33.0252 62.7135 32.7527 63.052 32.5484C63.3906 32.3441 63.767 32.2122 64.1579 32.161C80.519 30.0441 96.7198 30.0404 112.311 32.15C112.696 32.2031 113.067 32.3348 113.401 32.5369C113.734 32.7391 114.024 33.0076 114.253 33.3264C114.481 33.6451 114.644 34.0074 114.73 34.3914C114.817 34.7754 114.826 35.1732 114.757 35.5608L111.623 53.2064C111.297 55.0513 110.34 56.7212 108.92 57.9235C107.5 59.1258 105.708 59.7839 103.858 59.7826Z" fill="#E6E6E6"/>
<path d="M144.604 117.768C144.264 117.766 143.927 117.697 143.613 117.565C142.14 116.959 140.091 114.658 138.693 107.144C137.551 101.004 134.047 91.7243 129.321 82.3195C124.773 73.2695 120.203 66.3026 117.395 64.1374C117.381 64.1274 115.594 62.8581 114.214 60.3155C112.942 57.9731 111.76 54.0374 113.35 48.589L113.353 48.3845L116.236 35.7354L116.242 35.7233C116.26 35.6916 118.036 32.5629 121.318 32.5629C123.712 32.5629 132.882 34.758 138.135 36.0664C138.992 36.2819 139.787 36.6983 140.457 37.282C141.126 37.8657 141.65 38.6004 141.988 39.427C144.536 45.6894 150.784 62.0192 153.766 78.3563C155.447 87.5711 155.832 95.4099 154.91 101.655C153.794 109.216 150.743 114.519 145.843 117.417C145.472 117.651 145.042 117.773 144.604 117.768Z" fill="#E6E6E6"/>
<path d="M67.3719 81.0724C71.5069 81.0724 74.859 77.6775 74.859 73.4898C74.859 69.302 71.5069 65.9071 67.3719 65.9071C63.2369 65.9071 59.8848 69.302 59.8848 73.4898C59.8848 77.6775 63.2369 81.0724 67.3719 81.0724Z" fill="#3F3D56"/>
<path d="M67.3719 78.5448C70.1286 78.5448 72.3633 76.2815 72.3633 73.4897C72.3633 70.6978 70.1286 68.4346 67.3719 68.4346C64.6152 68.4346 62.3805 70.6978 62.3805 73.4897C62.3805 76.2815 64.6152 78.5448 67.3719 78.5448Z" fill="#2F2E41"/>
<path d="M109.223 81.0724C113.358 81.0724 116.71 77.6775 116.71 73.4898C116.71 69.302 113.358 65.9071 109.223 65.9071C105.088 65.9071 101.736 69.302 101.736 73.4898C101.736 77.6775 105.088 81.0724 109.223 81.0724Z" fill="#3F3D56"/>
<path d="M109.223 78.5448C111.98 78.5448 114.214 76.2815 114.214 73.4897C114.214 70.6978 111.98 68.4346 109.223 68.4346C106.466 68.4346 104.232 70.6978 104.232 73.4897C104.232 76.2815 106.466 78.5448 109.223 78.5448Z" fill="#2F2E41"/>
<path d="M83.6899 64.3516C84.008 64.3516 84.2659 64.0905 84.2659 63.7683C84.2659 63.4462 84.008 63.1851 83.6899 63.1851C83.3719 63.1851 83.114 63.4462 83.114 63.7683C83.114 64.0905 83.3719 64.3516 83.6899 64.3516Z" fill="#2F2E41"/>
<path d="M86.1857 64.3516C86.5038 64.3516 86.7616 64.0905 86.7616 63.7683C86.7616 63.4462 86.5038 63.1851 86.1857 63.1851C85.8676 63.1851 85.6097 63.4462 85.6097 63.7683C85.6097 64.0905 85.8676 64.3516 86.1857 64.3516Z" fill="#2F2E41"/>
<path d="M85.0338 66.4903C85.3519 66.4903 85.6097 66.2291 85.6097 65.907C85.6097 65.5849 85.3519 65.3237 85.0338 65.3237C84.7157 65.3237 84.4579 65.5849 84.4579 65.907C84.4579 66.2291 84.7157 66.4903 85.0338 66.4903Z" fill="#2F2E41"/>
<path d="M87.3375 66.4903C87.6556 66.4903 87.9135 66.2291 87.9135 65.907C87.9135 65.5849 87.6556 65.3237 87.3375 65.3237C87.0195 65.3237 86.7616 65.5849 86.7616 65.907C86.7616 66.2291 87.0195 66.4903 87.3375 66.4903Z" fill="#2F2E41"/>
<path d="M89.6413 66.4903C89.9593 66.4903 90.2172 66.2291 90.2172 65.907C90.2172 65.5849 89.9593 65.3237 89.6413 65.3237C89.3232 65.3237 89.0653 65.5849 89.0653 65.907C89.0653 66.2291 89.3232 66.4903 89.6413 66.4903Z" fill="#2F2E41"/>
<path d="M91.945 66.4903C92.2631 66.4903 92.5209 66.2291 92.5209 65.907C92.5209 65.5849 92.2631 65.3237 91.945 65.3237C91.6269 65.3237 91.369 65.5849 91.369 65.907C91.369 66.2291 91.6269 66.4903 91.945 66.4903Z" fill="#2F2E41"/>
<path d="M88.6814 64.3516C88.9994 64.3516 89.2573 64.0905 89.2573 63.7683C89.2573 63.4462 88.9994 63.1851 88.6814 63.1851C88.3633 63.1851 88.1054 63.4462 88.1054 63.7683C88.1054 64.0905 88.3633 64.3516 88.6814 64.3516Z" fill="#2F2E41"/>
<path d="M91.1771 64.3516C91.4951 64.3516 91.753 64.0905 91.753 63.7683C91.753 63.4462 91.4951 63.1851 91.1771 63.1851C90.859 63.1851 90.6011 63.4462 90.6011 63.7683C90.6011 64.0905 90.859 64.3516 91.1771 64.3516Z" fill="#2F2E41"/>
<path d="M93.6728 64.3516C93.9909 64.3516 94.2487 64.0905 94.2487 63.7683C94.2487 63.4462 93.9909 63.1851 93.6728 63.1851C93.3547 63.1851 93.0969 63.4462 93.0969 63.7683C93.0969 64.0905 93.3547 64.3516 93.6728 64.3516Z" fill="#2F2E41"/>
<path d="M90.9851 81.7529H85.9937C85.7646 81.7529 85.5448 81.6607 85.3828 81.4966C85.2208 81.3325 85.1298 81.11 85.1298 80.878C85.1298 80.6459 85.2208 80.4234 85.3828 80.2593C85.5448 80.0952 85.7646 80.0031 85.9937 80.0031H90.9851C91.2142 80.0031 91.434 80.0952 91.596 80.2593C91.758 80.4234 91.849 80.6459 91.849 80.878C91.849 81.11 91.758 81.3325 91.596 81.4966C91.434 81.6607 91.2142 81.7529 90.9851 81.7529Z" fill="#2F2E41"/>
<path d="M57.935 43.7202C57.6129 43.7193 57.3004 43.6085 57.0481 43.4057C56.7958 43.2029 56.6183 42.9199 56.5443 42.6024L55.7788 39.3111C55.6922 38.937 55.7558 38.5433 55.9556 38.2167C56.1554 37.89 56.4751 37.657 56.8444 37.5689C57.2137 37.4808 57.6024 37.5448 57.9252 37.7468C58.2479 37.9488 58.4783 38.2723 58.5657 38.6462L59.3312 41.9375C59.3804 42.1506 59.3815 42.3722 59.3342 42.5857C59.287 42.7992 59.1928 42.9992 59.0585 43.1706C58.9242 43.3421 58.7535 43.4805 58.5589 43.5757C58.3643 43.6709 58.1511 43.7203 57.935 43.7202Z" fill="#3F3D56"/>
<path d="M119.236 43.5259C119.02 43.526 118.806 43.4766 118.612 43.3814C118.417 43.2862 118.247 43.1477 118.112 42.9763C117.978 42.8049 117.884 42.6049 117.837 42.3914C117.789 42.1778 117.79 41.9563 117.84 41.7432L118.605 38.4519C118.692 38.078 118.923 37.7545 119.246 37.5525C119.568 37.3504 119.957 37.2865 120.326 37.3746C120.696 37.4627 121.015 37.6956 121.215 38.0223C121.415 38.349 121.479 38.7426 121.392 39.1167L120.626 42.408C120.552 42.7256 120.375 43.0086 120.123 43.2114C119.87 43.4142 119.558 43.525 119.236 43.5259Z" fill="#3F3D56"/>
<path d="M47.3733 53.4353C46.9022 53.4354 46.4425 53.2885 46.0568 53.0146L44.45 51.8755C44.1477 51.661 43.9008 51.3759 43.7304 51.0443C43.5599 50.7127 43.4708 50.3444 43.4707 49.9706V46.4819C43.4715 45.7814 43.7466 45.1098 44.2357 44.6144C44.7249 44.119 45.388 43.8404 46.0797 43.8396H48.5408C49.2325 43.8404 49.8956 44.119 50.3848 44.6144C50.8739 45.1098 51.149 45.7814 51.1498 46.4819V50.0049C51.1491 50.369 51.0643 50.728 50.9021 51.053C50.7399 51.378 50.5049 51.6601 50.2158 51.8766L48.7352 52.9816C48.3408 53.2764 47.8635 53.4354 47.3733 53.4353Z" fill="#3F3D56"/>
<path d="M48.5408 66.1987H46.0797C45.388 66.1979 44.7249 65.9192 44.2357 65.4239C43.7466 64.9285 43.4715 64.2569 43.4707 63.5563V60.0677C43.4708 59.6938 43.5599 59.3256 43.7304 58.994C43.9008 58.6624 44.1477 58.3773 44.45 58.1628L46.0568 57.0237C46.4504 56.7443 46.9207 56.5973 47.4012 56.6032C47.8818 56.6091 48.3484 56.7678 48.7352 57.0567L50.2158 58.1617C50.5049 58.3782 50.7399 58.6603 50.9021 58.9853C51.0643 59.3103 51.1491 59.6692 51.1498 60.0334V63.5563C51.149 64.2569 50.8739 64.9285 50.3848 65.4239C49.8956 65.9192 49.2325 66.1979 48.5408 66.1987Z" fill="#3F3D56"/>
<path d="M56.2199 58.9077H52.7752C52.406 58.9075 52.0424 58.8173 51.715 58.6447C51.3876 58.4721 51.1061 58.2221 50.8943 57.9159L49.7695 56.2886C49.4937 55.89 49.3484 55.4137 49.3543 54.927C49.3601 54.4403 49.5168 53.9677 49.8021 53.576L50.8932 52.0765C51.107 51.7838 51.3855 51.5457 51.7064 51.3815C52.0273 51.2172 52.3817 51.1313 52.7413 51.1306H56.2199C56.9116 51.1314 57.5748 51.4101 58.0639 51.9054C58.553 52.4008 58.8281 53.0724 58.8289 53.7729V56.2654C58.8281 56.9659 58.553 57.6375 58.0639 58.1329C57.5748 58.6283 56.9116 58.9069 56.2199 58.9077Z" fill="#3F3D56"/>
<path d="M41.6534 58.9077H38.2087C37.517 58.9069 36.8538 58.6283 36.3647 58.1329C35.8756 57.6375 35.6004 56.9659 35.5996 56.2654V53.7729C35.6004 53.0724 35.8756 52.4008 36.3647 51.9054C36.8538 51.4101 37.517 51.1314 38.2087 51.1306H41.6872C42.0468 51.1313 42.4012 51.2172 42.7222 51.3815C43.0431 51.5457 43.3216 51.7838 43.5354 52.0765L44.6264 53.576C44.9118 53.9677 45.0684 54.4403 45.0743 54.927C45.0801 55.4137 44.9349 55.89 44.659 56.2886L43.5343 57.9159C43.3225 58.2221 43.041 58.4721 42.7136 58.6447C42.3862 58.8173 42.0225 58.9075 41.6534 58.9077Z" fill="#3F3D56"/>
<path d="M129.765 49.5752C132.203 49.5752 134.18 47.5731 134.18 45.1034C134.18 42.6337 132.203 40.6316 129.765 40.6316C127.326 40.6316 125.349 42.6337 125.349 45.1034C125.349 47.5731 127.326 49.5752 129.765 49.5752Z" fill="#3F3D56"/>
<path d="M139.555 59.8798C141.994 59.8798 143.971 57.8777 143.971 55.408C143.971 52.9383 141.994 50.9362 139.555 50.9362C137.117 50.9362 135.14 52.9383 135.14 55.408C135.14 57.8777 137.117 59.8798 139.555 59.8798Z" fill="#3F3D56"/>
<path d="M129.765 69.6012C132.203 69.6012 134.18 67.5991 134.18 65.1294C134.18 62.6597 132.203 60.6576 129.765 60.6576C127.326 60.6576 125.349 62.6597 125.349 65.1294C125.349 67.5991 127.326 69.6012 129.765 69.6012Z" fill="#3F3D56"/>
<path d="M119.974 59.6853C122.412 59.6853 124.389 57.6832 124.389 55.2135C124.389 52.7438 122.412 50.7417 119.974 50.7417C117.535 50.7417 115.558 52.7438 115.558 55.2135C115.558 57.6832 117.535 59.6853 119.974 59.6853Z" fill="#3F3D56"/>
<path d="M139.555 58.3244C138.986 58.3244 138.429 58.1533 137.956 57.8329C137.482 57.5124 137.113 57.0569 136.895 56.524C136.677 55.9911 136.62 55.4047 136.731 54.839C136.842 54.2733 137.116 53.7536 137.519 53.3458C137.922 52.9379 138.435 52.6601 138.994 52.5476C139.552 52.4351 140.131 52.4928 140.657 52.7136C141.184 52.9343 141.633 53.3081 141.95 53.7877C142.266 54.2673 142.435 54.8312 142.435 55.408C142.434 56.1812 142.131 56.9225 141.591 57.4692C141.051 58.016 140.319 58.3235 139.555 58.3244ZM139.555 52.8804C139.062 52.8804 138.579 53.0287 138.169 53.3064C137.758 53.5841 137.439 53.9789 137.25 54.4407C137.061 54.9026 137.011 55.4108 137.108 55.9011C137.204 56.3914 137.442 56.8417 137.791 57.1952C138.14 57.5487 138.584 57.7894 139.069 57.887C139.553 57.9845 140.054 57.9344 140.51 57.7431C140.966 57.5518 141.356 57.2279 141.63 56.8122C141.905 56.3966 142.051 55.9079 142.051 55.408C142.05 54.7379 141.787 54.0954 141.319 53.6216C140.851 53.1477 140.217 52.8812 139.555 52.8804Z" fill="#E6E6E6"/>
<path d="M132.85 47.2731L127.063 47.1902L130.027 42.1559L132.85 47.2731ZM127.733 46.8108L132.19 46.8747L130.017 42.9336L127.733 46.8108Z" fill="#E6E6E6"/>
<path d="M122.277 57.5467H117.67V52.8805H122.277V57.5467ZM118.054 57.1579H121.893V53.2693H118.054V57.1579Z" fill="#E6E6E6"/>
<path d="M132.147 67.137L130.036 65.0034L131.898 63.1217L131.626 62.8464L129.765 64.7285L127.903 62.8464L127.631 63.1217L129.493 65.0034L127.382 67.137L127.653 67.4124L129.765 65.2781L131.876 67.4124L132.147 67.137Z" fill="#E6E6E6"/>
<path d="M47.3669 14.3564C46.7974 14.3564 46.2406 14.1853 45.7671 13.8649C45.2935 13.5444 44.9244 13.0889 44.7065 12.556C44.4885 12.0231 44.4315 11.4367 44.5426 10.871C44.6537 10.3053 44.928 9.78562 45.3307 9.37776C45.7334 8.96989 46.2465 8.69213 46.8051 8.5796C47.3637 8.46707 47.9427 8.52482 48.4689 8.74556C48.9951 8.9663 49.4449 9.3401 49.7613 9.8197C50.0777 10.2993 50.2466 10.8632 50.2466 11.44C50.2457 12.2132 49.9421 12.9545 49.4022 13.5012C48.8624 14.048 48.1304 14.3555 47.3669 14.3564ZM47.3669 8.91241C46.8733 8.91241 46.3908 9.06065 45.9804 9.33838C45.57 9.61612 45.2501 10.0109 45.0612 10.4727C44.8723 10.9346 44.8229 11.4428 44.9192 11.9331C45.0155 12.4234 45.2532 12.8737 45.6022 13.2272C45.9512 13.5807 46.3959 13.8214 46.88 13.9189C47.3642 14.0165 47.866 13.9664 48.322 13.7751C48.778 13.5838 49.1678 13.2598 49.442 12.8442C49.7163 12.4285 49.8626 11.9399 49.8626 11.44C49.8619 10.7698 49.5987 10.1274 49.1309 9.65354C48.663 9.17969 48.0286 8.91316 47.3669 8.91241Z" fill="#E6E6E6"/>
<path d="M40.8536 9.52673L35.0665 9.44385L38.031 4.40955L40.8536 9.52673ZM35.7369 9.06449L40.194 9.12838L38.0201 5.18725L35.7369 9.06449Z" fill="#E6E6E6"/>
<path d="M32.336 16.6199H27.7286V11.9536H32.336V16.6199ZM28.1125 16.231H31.9521V12.3425H28.1125V16.231Z" fill="#E6E6E6"/>
<path d="M36.5031 25.3076L34.3924 23.174L36.2538 21.2925L35.9825 21.0172L34.1205 22.8993L32.2585 21.0172L31.9873 21.2925L33.8487 23.174L31.7379 25.3076L32.0091 25.5829L34.1205 23.4487L36.2319 25.5829L36.5031 25.3076Z" fill="#E6E6E6"/>
<path opacity="0.2" d="M166.528 66.9764L159.077 72.6562L167.488 68.9207L166.528 66.9764Z" fill="black"/>
<path d="M28.6885 73.9758L19.2816 74.3647L18.1298 67.9486L26.1928 65.421L28.6885 73.9758Z" fill="#A0616A"/>
<path d="M25.23 58.2513L23.1318 56.0877L25.7044 52.1039L30.1076 44.6809C29.9638 44.3611 29.9191 44.0046 29.9797 43.6586C30.0402 43.3126 30.203 42.9933 30.4466 42.7431C30.6902 42.4928 31.0031 42.3233 31.3438 42.2571C31.6846 42.1908 32.0372 42.2309 32.355 42.372C32.6728 42.5131 32.9408 42.7486 33.1235 43.0473C33.3063 43.346 33.3952 43.6939 33.3785 44.0449C33.3618 44.3959 33.2403 44.7335 33.03 45.013C32.8197 45.2925 32.5306 45.5009 32.2009 45.6104L28.5665 53.5351L25.23 58.2513Z" fill="#A0616A"/>
<path d="M22.9058 63.1907C22.6594 63.5771 22.3084 63.8834 21.8947 64.0731C21.481 64.2628 21.0221 64.3279 20.5729 64.2605C20.1453 64.2094 19.7417 64.0329 19.4118 63.7528C19.0818 63.4727 18.8398 63.1011 18.7154 62.6836C18.6239 62.3873 18.5972 62.0744 18.6373 61.7666C18.6774 61.4587 18.7833 61.1635 18.9477 60.9014C20.3513 58.5051 22.94 55.3404 22.9659 55.3088L23.0072 55.2584L27.3734 56.2164L22.9058 63.1907Z" fill="#6C63FF"/>
<path d="M26.4464 116.223L29.0552 116.223L30.2961 106.032L26.4458 106.032L26.4464 116.223Z" fill="#A0616A"/>
<path d="M25.7809 115.36L30.9185 115.36H30.9187C31.7871 115.36 32.6198 115.71 33.2338 116.331C33.8478 116.953 34.1928 117.797 34.1929 118.676V118.784L25.781 118.784L25.7809 115.36Z" fill="#2F2E41"/>
<path d="M6.1333 115.079L8.71271 115.474L11.4442 105.586L8.06267 105.003L6.1333 115.079Z" fill="#A0616A"/>
<path d="M5.60262 114.126L10.6826 114.903L10.6828 114.903C11.5414 115.035 12.3132 115.506 12.8285 116.214C13.3438 116.922 13.5604 117.808 13.4307 118.678L13.4148 118.784L5.09741 117.511L5.60262 114.126Z" fill="#2F2E41"/>
<path d="M18.8976 72.4204L27.9206 70.865L30.7124 76.6932L30.8188 114.73L25.8667 114.699L23.7966 83.9127L10.6035 112.36L5.28366 111.713L16.8809 81.2188C16.8809 81.2188 16.2425 75.8311 18.264 73.1373L18.8976 72.4204Z" fill="#2F2E41"/>
<path d="M15.5479 60.9378C15.41 60.5182 15.3954 60.0672 15.5058 59.6394C15.6162 59.2116 15.8468 58.8254 16.1697 58.5278L17.4521 57.3474L21.0672 56.7305L23.3276 56.3145L26.9607 66.9765L18.1368 71.0822C17.3624 70.9129 17.0531 70.4839 17.5037 69.6309L15.5479 60.9378Z" fill="#6C63FF"/>
<path d="M23.6461 64.5353L26.1702 62.9039L29.4866 66.2771L35.7467 72.1755C36.0854 72.0991 36.439 72.1286 36.7608 72.2601C37.0825 72.3917 37.3573 72.6191 37.5487 72.9122C37.74 73.2053 37.839 73.5504 37.8326 73.9017C37.8261 74.2531 37.7144 74.5942 37.5124 74.8799C37.3104 75.1656 37.0274 75.3824 36.7011 75.5017C36.3747 75.621 36.0202 75.6372 35.6846 75.548C35.349 75.4589 35.048 75.2686 34.8214 75.0024C34.5949 74.7363 34.4534 74.4067 34.4159 74.0574L27.512 68.8169L23.6461 64.5353Z" fill="#A0616A"/>
<path d="M19.3551 61.2105C19.0328 60.8865 18.8095 60.4753 18.7118 60.0262C18.6142 59.5771 18.6463 59.1089 18.8043 58.6778C18.9423 58.2648 19.1962 57.9015 19.5351 57.6325C19.8739 57.3635 20.2829 57.2006 20.7118 57.1636C21.017 57.1341 21.3249 57.1724 21.6139 57.2758C21.903 57.3792 22.1663 57.5453 22.3855 57.7623C24.4101 59.6487 26.9319 62.8685 26.957 62.9007L26.9971 62.952L25.1684 67.08L19.3551 61.2105Z" fill="#6C63FF"/>
<path d="M19.4806 55.4334C21.6723 55.4334 23.449 53.634 23.449 51.4144C23.449 49.1947 21.6723 47.3954 19.4806 47.3954C17.289 47.3954 15.5123 49.1947 15.5123 51.4144C15.5123 53.634 17.289 55.4334 19.4806 55.4334Z" fill="#A0616A"/>
<path d="M16.2678 57.1399C15.6524 57.1398 15.0376 57.1018 14.4268 57.0262L14.343 57.0159L13.7038 53.5014C13.4327 52.0115 13.735 50.4731 14.5486 49.2018C15.3622 47.9306 16.6253 47.0229 18.0789 46.6652C18.1759 46.6403 18.2778 46.643 18.3733 46.6729C18.4689 46.7029 18.5545 46.759 18.6206 46.835L18.7731 46.7812C19.3567 46.5751 19.9748 46.4874 20.5919 46.5232C21.209 46.5589 21.8132 46.7175 22.3698 46.9897C22.9264 47.2619 23.4247 47.6425 23.8361 48.1098C24.2475 48.577 24.564 49.1218 24.7675 49.7129L24.8053 49.8227L23.7879 50.1819C23.4709 50.2939 23.1826 50.476 22.9438 50.715C22.705 50.954 22.5219 51.2439 22.4077 51.5636C22.2934 51.8833 22.251 52.2248 22.2835 52.5632C22.3159 52.9016 22.4225 53.2284 22.5953 53.5199L23.6355 55.2736L23.5248 55.3298C21.2798 56.5021 18.7936 57.1222 16.2678 57.1399Z" fill="#2F2E41"/>
<path d="M152.602 73.958C152.648 73.7333 152.742 73.5215 152.878 73.3376C153.013 73.1537 153.187 73.0022 153.386 72.8936C153.586 72.785 153.806 72.722 154.033 72.7091C154.259 72.6963 154.485 72.7338 154.695 72.819L158.305 68.6063L159.077 71.3972L155.531 74.9698C155.366 75.3181 155.081 75.5932 154.729 75.7428C154.377 75.8923 153.984 75.9061 153.623 75.7814C153.262 75.6567 152.959 75.4021 152.77 75.0661C152.582 74.73 152.522 74.3358 152.602 73.958H152.602Z" fill="#FFB6B6"/>
<path d="M168.707 55.4369L170.186 55.356L170.409 56.3078C170.409 56.3078 170.387 57.5266 169.039 60.0601C167.69 62.5935 157.245 73.8731 157.245 73.8731L154.982 71.273L160.574 65.4401L163.96 59.3267L168.707 55.4369Z" fill="#6C63FF"/>
<path d="M0.239397 119H175.761C175.824 119 175.885 118.974 175.93 118.929C175.975 118.884 176 118.822 176 118.758C176 118.693 175.975 118.632 175.93 118.586C175.885 118.541 175.824 118.515 175.761 118.515H0.239397C0.175906 118.515 0.115015 118.541 0.0701196 118.586C0.0252242 118.632 0 118.693 0 118.758C0 118.822 0.0252242 118.884 0.0701196 118.929C0.115015 118.974 0.175906 119 0.239397 119Z" fill="#CCCCCC"/>
</g>
<defs>
<clipPath id="clip0_916_2267">
<rect width="176" height="119" fill="white"/>
</clipPath>
</defs>
</svg>
