<svg width="168" height="178" viewBox="0 0 168 178" fill="none" xmlns="http://www.w3.org/2000/svg">
<g clip-path="url(#clip0_916_2454)">
<path d="M64.4109 109.015C65.3656 110.752 65.1861 112.624 64.01 113.195C62.834 113.766 61.1066 112.821 60.1519 111.083C59.734 110.323 59.5335 109.536 59.5387 108.845L55.5916 101.435L59.3298 99.7675L62.824 107.249C63.427 107.646 63.993 108.254 64.4109 109.015Z" fill="#FFB6B6"/>
<path d="M35.0376 175.875L38.4029 175.874L40.0039 163.67L35.0369 163.671L35.0376 175.875Z" fill="#FFB6B6"/>
<path d="M46.5677 175.803C46.6725 175.969 46.7278 176.504 46.7278 176.697C46.7278 177.29 46.2164 177.771 45.5856 177.771H35.1635C34.7331 177.771 34.3842 177.443 34.3842 177.039V176.631C34.3842 176.631 33.8687 175.405 34.9301 173.893C34.9301 173.893 36.2494 175.077 38.2207 173.223L38.8021 172.233L43.0101 175.127L45.3425 175.396C45.8528 175.456 46.3052 175.387 46.5677 175.803Z" fill="#2F2E41"/>
<path d="M19.2492 175.875L22.6146 175.874L24.2155 163.67L19.2485 163.671L19.2492 175.875Z" fill="#FFB6B6"/>
<path d="M30.7794 175.803C30.8841 175.969 30.9394 176.504 30.9394 176.697C30.9394 177.29 30.4281 177.771 29.7972 177.771H19.3751C18.9448 177.771 18.5959 177.443 18.5959 177.039V176.631C18.5959 176.631 18.0803 175.405 19.1418 173.893C19.1418 173.893 20.4611 175.077 22.4324 173.223L23.0137 172.233L27.2217 175.127L29.5542 175.396C30.0645 175.456 30.5169 175.387 30.7794 175.803Z" fill="#2F2E41"/>
<path d="M14.4856 103.869L13.0679 112.014L17.4786 138.376L18.5813 170.218H24.5363L27.5603 140.153L27.2453 120.308L34.334 170.514H40.5222L41.1076 107.571L14.4856 103.869Z" fill="#2F2E41"/>
<path d="M21.8894 61.6605H33.0378L42.6829 66.9921C41.1817 66.6334 40.022 79.7269 39.9826 91.2962C39.98 92.065 39.1697 92.9489 39.1772 93.6998C39.1837 94.3468 40.0066 94.8637 40.0209 95.4913C40.0342 96.0779 40.0511 96.6548 40.0715 97.2197C40.0885 97.6888 39.1552 98.3101 39.1772 98.7613C39.2053 99.3378 40.1903 99.7381 40.2269 100.281C40.4518 103.616 40.8393 106.258 41.4227 107.571C41.4227 107.571 16.5335 114.088 14.6432 104.017C14.6432 104.017 14.7511 100.397 14.7359 95.3986C14.7346 94.9551 14.3329 94.5528 14.3294 94.0891C14.3269 93.7444 14.7231 93.3425 14.7192 92.9882C14.716 92.6969 14.3336 92.4394 14.3294 92.1424C14.3269 91.9654 14.7031 91.7505 14.7002 91.5717C14.5491 82.0663 13.8703 70.0872 11.4926 66.9921L21.8894 61.6605V61.6605Z" fill="#6C63FF"/>
<path d="M32.9162 61.6605C32.9162 61.6605 40.1402 64.1286 42.4325 66.0948C43.6506 67.1396 51.8194 86.8375 51.8194 86.8375L63.1657 105.415L57.2679 107.521L45.2033 90.3919L39.8474 79.1363L32.9162 61.6605Z" fill="#6C63FF"/>
<path d="M17.9324 109.718C18.986 111.404 18.9149 113.282 17.7735 113.912C16.6322 114.543 14.8528 113.687 13.7992 112.001C13.338 111.262 13.0923 110.488 13.0576 109.797L8.68835 102.599L12.3247 100.743L16.2459 108.036C16.8708 108.401 17.4711 108.98 17.9324 109.718Z" fill="#FFB6B6"/>
<path d="M20.3141 70.8426L17.1636 64.03C17.1636 64.03 9.75983 66.2515 9.75983 69.5097C9.75983 69.5097 5.34908 94.3905 5.97919 100.611L10.0749 107.423L15.9034 103.128L12.2803 95.2791L20.3141 70.8426Z" fill="#6C63FF"/>
<path d="M13.8347 115.102L17.551 108.164L21.8894 113.792L17.9848 117.346L13.8347 115.102Z" fill="#2F2E41"/>
<path d="M27.3585 59.7034C31.3406 59.7034 34.5688 56.6684 34.5688 52.9246C34.5688 49.1808 31.3406 46.1459 27.3585 46.1459C23.3764 46.1459 20.1483 49.1808 20.1483 52.9246C20.1483 56.6684 23.3764 59.7034 27.3585 59.7034Z" fill="#FFB6B6"/>
<path d="M32.981 45.3522C31.728 44.9749 31.1351 43.5737 29.989 42.9663C28.7215 42.2945 27.2051 41.8752 25.8074 42.2553C24.9498 42.4885 24.2026 43.0039 23.3444 43.2351C23.1944 43.2756 23.0365 43.3034 22.8763 43.3178C21.9533 43.4004 21.161 43.9208 20.6997 44.677L20.6876 44.6965C20.4169 45.1322 20.032 45.493 19.6904 45.8822C18.4438 47.3023 17.7691 49.148 17.783 50.9893C17.7979 52.9685 18.6079 54.9336 20.0156 56.4054L20.3752 56.2495C21.2441 56.9552 22.1131 57.6609 22.9821 58.3666C22.5092 56.7623 22.0319 55.1019 22.2823 53.4539C22.5326 51.8058 23.7114 50.1616 25.4495 49.8434C26.107 49.7231 26.8005 49.7958 27.4387 49.6048C28.077 49.4137 28.6649 48.7968 28.4459 48.2016C28.8411 49.1839 30.3152 49.1259 31.3298 49.5654C33.6007 50.549 32.7694 49.0289 34.7407 50.4749C35.4065 47.0054 37.9571 46.8505 32.981 45.3522L32.981 45.3522Z" fill="#2F2E41"/>
<path d="M0 177.537C0 177.794 0.219501 178 0.492839 178H167.507C167.781 178 168 177.794 168 177.537C168 177.28 167.781 177.073 167.507 177.073H0.492839C0.219501 177.073 0 177.28 0 177.537Z" fill="#CCCCCC"/>
<path d="M145.658 178H72.5957C63.6869 178 56.4391 171.186 56.4391 162.81V15.1897C56.4391 6.81412 63.6869 0 72.5957 0H145.658C154.567 0 161.815 6.81412 161.815 15.1897V162.81C161.815 171.186 154.567 178 145.658 178Z" fill="#3F3D56"/>
<path d="M161.815 54.2997C161.438 54.2997 161.131 54.5879 161.131 54.9423V75.5054C161.131 75.8598 161.438 76.148 161.815 76.148C162.192 76.148 162.498 75.8598 162.498 75.5054V54.9423C162.498 54.5879 162.192 54.2997 161.815 54.2997Z" fill="#3F3D56"/>
<path d="M160.277 15.1899V162.808C160.277 170.098 154.242 176.061 146.61 176.524H146.607C146.494 176.53 146.382 176.537 146.265 176.54C146.064 176.55 145.862 176.553 145.657 176.553C145.657 176.553 144.905 176.501 143.531 176.405C142.144 176.309 140.124 176.164 137.605 175.975C136.85 175.92 136.054 175.859 135.213 175.795C133.538 175.666 131.7 175.525 129.728 175.364C128.942 175.303 128.129 175.236 127.298 175.168C123.054 174.824 118.3 174.423 113.286 173.966C112.439 173.892 111.584 173.815 110.723 173.735C110.498 173.713 110.269 173.693 110.04 173.671C106.465 173.34 57.9771 164.53 57.9771 162.808V15.1899C57.9771 7.59759 64.5217 1.4447 72.5972 1.4447H81.3255C82.7199 1.4447 83.8408 2.46643 83.9605 3.77412C83.9707 3.86088 83.981 3.94762 83.998 4.03437C84.2509 5.3485 85.5325 6.26419 86.9542 6.26419H131.3C132.722 6.26419 134.003 5.3485 134.256 4.03437C134.273 3.94762 134.284 3.86088 134.294 3.77412C134.413 2.46643 135.534 1.4447 136.929 1.4447H145.657C153.733 1.4447 160.277 7.59759 160.277 15.1899Z" fill="white"/>
<path d="M56.0974 38.8773C55.7204 38.8773 55.4139 39.1655 55.4139 39.5199V44.6607C55.4139 45.0151 55.7204 45.3033 56.0974 45.3033C56.4744 45.3033 56.7809 45.0151 56.7809 44.6607V39.5199C56.7809 39.1655 56.4744 38.8773 56.0974 38.8773Z" fill="#3F3D56"/>
<path d="M56.0974 54.2997C55.7204 54.2997 55.4139 54.5879 55.4139 54.9423V64.9026C55.4139 65.257 55.7204 65.5452 56.0974 65.5452C56.4744 65.5452 56.7809 65.257 56.7809 64.9026V54.9423C56.7809 54.5879 56.4744 54.2997 56.0974 54.2997Z" fill="#3F3D56"/>
<path d="M56.0974 68.4368C55.7204 68.4368 55.4139 68.725 55.4139 69.0794V79.0396C55.4139 79.3941 55.7204 79.6822 56.0974 79.6822C56.4744 79.6822 56.7809 79.394 56.7809 79.0396V69.0794C56.7809 68.725 56.4744 68.4368 56.0974 68.4368Z" fill="#3F3D56"/>
<path d="M81.0876 3.69495H68.0163C67.9453 3.69495 67.8878 3.74902 67.8878 3.81573V5.18067C67.8878 5.24737 67.9453 5.30144 68.0163 5.30144H81.0876C81.1586 5.30144 81.2161 5.24737 81.2161 5.18067V3.81573C81.2161 3.74902 81.1586 3.69495 81.0876 3.69495Z" fill="#E6E6E6"/>
<path d="M139.088 5.30148C139.843 5.30148 140.455 4.72607 140.455 4.01628C140.455 3.30648 139.843 2.73108 139.088 2.73108C138.333 2.73108 137.721 3.30648 137.721 4.01628C137.721 4.72607 138.333 5.30148 139.088 5.30148Z" fill="#E6E6E6"/>
<path d="M142.848 5.30148C143.603 5.30148 144.215 4.72607 144.215 4.01628C144.215 3.30648 143.603 2.73108 142.848 2.73108C142.093 2.73108 141.481 3.30648 141.481 4.01628C141.481 4.72607 142.093 5.30148 142.848 5.30148Z" fill="#E6E6E6"/>
<path d="M146.607 5.30148C147.362 5.30148 147.974 4.72607 147.974 4.01628C147.974 3.30648 147.362 2.73108 146.607 2.73108C145.852 2.73108 145.24 3.30648 145.24 4.01628C145.24 4.72607 145.852 5.30148 146.607 5.30148Z" fill="#E6E6E6"/>
<path d="M138.116 37.0498H80.138C79.2246 37.0498 78.4815 36.3512 78.4815 35.4924C78.4815 34.6337 79.2246 33.9351 80.138 33.9351H138.116C139.03 33.9351 139.773 34.6337 139.773 35.4924C139.773 36.3512 139.03 37.0498 138.116 37.0498Z" fill="#E6E6E6"/>
<path d="M147.865 160.278H126.33C125.417 160.278 124.674 159.579 124.674 158.721C124.674 157.862 125.417 157.163 126.33 157.163H147.865C148.778 157.163 149.521 157.862 149.521 158.721C149.521 159.579 148.778 160.278 147.865 160.278Z" fill="#E6E6E6"/>
<path d="M90.3009 160.278H68.7662C67.8528 160.278 67.1096 159.579 67.1096 158.721C67.1096 157.862 67.8528 157.163 68.7662 157.163H90.3009C91.2143 157.163 91.9574 157.862 91.9574 158.721C91.9574 159.579 91.2143 160.278 90.3009 160.278Z" fill="#E6E6E6"/>
<path d="M149.522 41.2345H68.7327V41.6238H149.522V41.2345Z" fill="#3F3D56"/>
<path d="M138.116 60.8H80.138C79.2246 60.8 78.4815 60.1013 78.4815 59.2426C78.4815 58.3838 79.2246 57.6852 80.138 57.6852H138.116C139.03 57.6852 139.773 58.3838 139.773 59.2426C139.773 60.1013 139.03 60.8 138.116 60.8Z" fill="#E6E6E6"/>
<path d="M149.522 64.9846H68.7327V65.374H149.522V64.9846Z" fill="#3F3D56"/>
<path d="M138.116 84.5501H80.138C79.2246 84.5501 78.4815 83.8514 78.4815 82.9927C78.4815 82.134 79.2246 81.4353 80.138 81.4353H138.116C139.03 81.4353 139.773 82.134 139.773 82.9927C139.773 83.8514 139.03 84.5501 138.116 84.5501Z" fill="#E6E6E6"/>
<path d="M149.522 88.7349H68.7327V89.1242H149.522V88.7349Z" fill="#3F3D56"/>
<path d="M149.522 108.981H68.7327V109.37H149.522V108.981Z" fill="#3F3D56"/>
<path d="M149.522 129.227H68.7327V129.616H149.522V129.227Z" fill="#3F3D56"/>
<path d="M109.696 143.469C122.961 143.469 133.715 133.358 133.715 120.887C133.715 108.415 122.961 98.3044 109.696 98.3044C96.43 98.3044 85.6761 108.415 85.6761 120.887C85.6761 133.358 96.43 143.469 109.696 143.469Z" fill="#6C63FF"/>
</g>
<defs>
<clipPath id="clip0_916_2454">
<rect width="168" height="178" fill="white"/>
</clipPath>
</defs>
</svg>
