<svg width="168" height="178" viewBox="0 0 168 178" fill="none" xmlns="http://www.w3.org/2000/svg">
<path d="M64.4109 109.015C65.3656 110.752 65.1862 112.624 64.0101 113.195C62.834 113.766 61.1067 112.821 60.152 111.083C59.7341 110.323 59.5336 109.536 59.5387 108.845L55.5917 101.435L59.3298 99.7674L62.8241 107.249C63.427 107.645 63.993 108.254 64.4109 109.015Z" fill="#FFB6B6"/>
<path d="M35.0376 175.875L38.403 175.874L40.0039 163.67L35.0369 163.671L35.0376 175.875Z" fill="#FFB6B6"/>
<path d="M46.5678 175.803C46.6725 175.969 46.7278 176.504 46.7278 176.697C46.7278 177.29 46.2164 177.771 45.5856 177.771H35.1635C34.7331 177.771 34.3843 177.443 34.3843 177.039V176.631C34.3843 176.631 33.8687 175.405 34.9302 173.893C34.9302 173.893 36.2495 175.077 38.2208 173.223L38.8021 172.233L43.0101 175.127L45.3426 175.396C45.8529 175.456 46.3053 175.387 46.5678 175.803Z" fill="#2F2E41"/>
<path d="M19.2492 175.875L22.6146 175.874L24.2155 163.67L19.2485 163.671L19.2492 175.875Z" fill="#FFB6B6"/>
<path d="M30.7794 175.803C30.8841 175.969 30.9394 176.504 30.9394 176.697C30.9394 177.29 30.4281 177.771 29.7972 177.771H19.3751C18.9448 177.771 18.5959 177.443 18.5959 177.039V176.631C18.5959 176.631 18.0803 175.405 19.1418 173.893C19.1418 173.893 20.4611 175.077 22.4324 173.223L23.0137 172.233L27.2217 175.127L29.5542 175.396C30.0645 175.456 30.5169 175.387 30.7794 175.803Z" fill="#2F2E41"/>
<path d="M14.4857 103.869L13.0679 112.014L17.4787 138.376L18.5814 170.218H24.5364L27.5604 140.153L27.2453 120.308L34.334 170.514H40.5222L41.1077 107.571L14.4857 103.869Z" fill="#2F2E41"/>
<path d="M21.8894 61.6605H33.0379L42.683 66.9921C41.1818 66.6333 40.0221 79.7268 39.9827 91.2962C39.98 92.0649 39.1698 92.9488 39.1772 93.6997C39.1837 94.3467 40.0066 94.8636 40.0209 95.4913C40.0343 96.0778 40.0511 96.6547 40.0716 97.2197C40.0885 97.6887 39.1552 98.31 39.1772 98.7613C39.2054 99.3377 40.1904 99.738 40.2269 100.281C40.4518 103.616 40.8394 106.258 41.4227 107.571C41.4227 107.571 16.5335 114.088 14.6432 104.017C14.6432 104.017 14.7512 100.397 14.736 95.3985C14.7347 94.955 14.3329 94.5527 14.3295 94.0891C14.3269 93.7444 14.7232 93.3425 14.7193 92.9881C14.7161 92.6968 14.3336 92.4394 14.3295 92.1424C14.327 91.9653 14.7031 91.7505 14.7003 91.5716C14.5492 82.0662 13.8703 70.0871 11.4927 66.992L21.8894 61.6605V61.6605Z" fill="#6C63FF"/>
<path d="M32.9163 61.6605C32.9163 61.6605 40.1403 64.1286 42.4325 66.0948C43.6506 67.1396 51.8195 86.8374 51.8195 86.8374L63.1657 105.415L57.2679 107.521L45.2033 90.3918L39.8474 79.1362L32.9163 61.6605Z" fill="#6C63FF"/>
<path d="M17.9324 109.718C18.986 111.404 18.9149 113.282 17.7735 113.912C16.6322 114.543 14.8528 113.687 13.7992 112.001C13.338 111.262 13.0923 110.488 13.0576 109.797L8.68835 102.599L12.3247 100.743L16.2459 108.036C16.8709 108.401 17.4712 108.98 17.9324 109.718Z" fill="#FFB6B6"/>
<path d="M20.3141 70.8427L17.1636 64.0301C17.1636 64.0301 9.75985 66.2516 9.75985 69.5098C9.75985 69.5098 5.34911 94.3905 5.97921 100.611L10.0749 107.423L15.9034 103.128L12.2803 95.2791L20.3141 70.8427Z" fill="#6C63FF"/>
<path d="M13.8347 115.102L17.551 108.164L21.8894 113.792L17.9848 117.346L13.8347 115.102Z" fill="#2F2E41"/>
<path d="M27.3586 59.7034C31.3407 59.7034 34.5688 56.6684 34.5688 52.9246C34.5688 49.1808 31.3407 46.1459 27.3586 46.1459C23.3765 46.1459 20.1483 49.1808 20.1483 52.9246C20.1483 56.6684 23.3765 59.7034 27.3586 59.7034Z" fill="#FFB6B6"/>
<path d="M32.981 45.3522C31.728 44.9749 31.1351 43.5737 29.989 42.9663C28.7215 42.2945 27.2051 41.8752 25.8074 42.2553C24.9498 42.4885 24.2026 43.0039 23.3444 43.2351C23.1944 43.2756 23.0365 43.3034 22.8763 43.3178C21.9533 43.4004 21.161 43.9208 20.6997 44.677L20.6876 44.6965C20.4169 45.1322 20.032 45.493 19.6904 45.8822C18.4438 47.3023 17.7691 49.148 17.783 50.9893C17.7979 52.9685 18.6079 54.9336 20.0156 56.4054L20.3752 56.2495C21.2441 56.9552 22.1131 57.6609 22.9821 58.3666C22.5092 56.7623 22.0319 55.1019 22.2823 53.4539C22.5326 51.8058 23.7114 50.1616 25.4495 49.8434C26.107 49.7231 26.8005 49.7958 27.4387 49.6048C28.077 49.4137 28.6649 48.7968 28.4459 48.2016C28.8411 49.1839 30.3152 49.1259 31.3298 49.5654C33.6007 50.549 32.7694 49.0289 34.7407 50.4749C35.4065 47.0054 37.9571 46.8505 32.981 45.3522L32.981 45.3522Z" fill="#2F2E41"/>
<path d="M0 177.537C0 177.794 0.219501 178 0.492839 178H167.507C167.781 178 168 177.794 168 177.537C168 177.28 167.781 177.073 167.507 177.073H0.492839C0.219501 177.073 0 177.28 0 177.537Z" fill="#CCCCCC"/>
<path d="M145.658 178H72.5957C63.6869 178 56.4391 171.186 56.4391 162.81V15.1897C56.4391 6.81412 63.6869 0 72.5957 0H145.658C154.567 0 161.815 6.81412 161.815 15.1897V162.81C161.815 171.186 154.567 178 145.658 178Z" fill="#3F3D56"/>
<path d="M161.815 54.2996C161.438 54.2996 161.131 54.5878 161.131 54.9422V75.5054C161.131 75.8598 161.438 76.148 161.815 76.148C162.192 76.148 162.498 75.8598 162.498 75.5054V54.9422C162.498 54.5878 162.192 54.2996 161.815 54.2996Z" fill="#3F3D56"/>
<path d="M160.277 15.1898V162.808C160.277 170.098 154.242 176.061 146.61 176.524H146.607C146.494 176.53 146.382 176.537 146.265 176.54C146.064 176.55 145.862 176.553 145.657 176.553C145.657 176.553 144.905 176.501 143.531 176.405C142.144 176.309 140.124 176.164 137.605 175.974C136.85 175.92 136.054 175.859 135.213 175.795C133.538 175.666 131.7 175.525 129.728 175.364C128.942 175.303 128.129 175.235 127.298 175.168C123.054 174.824 118.3 174.423 113.286 173.966C112.439 173.892 111.584 173.815 110.723 173.735C110.498 173.712 110.269 173.693 110.04 173.671C106.465 173.34 57.9771 164.53 57.9771 162.808V15.1898C57.9771 7.59753 64.5217 1.44464 72.5972 1.44464H81.3255C82.7199 1.44464 83.8408 2.46637 83.9605 3.77406C83.9707 3.86082 83.981 3.94756 83.998 4.03431C84.2509 5.34844 85.5325 6.26413 86.9542 6.26413H131.3C132.722 6.26413 134.003 5.34844 134.256 4.03431C134.273 3.94756 134.284 3.86082 134.294 3.77406C134.413 2.46637 135.534 1.44464 136.929 1.44464H145.657C153.733 1.44464 160.277 7.59753 160.277 15.1898Z" fill="white"/>
<path d="M56.0974 38.8773C55.7204 38.8773 55.4139 39.1655 55.4139 39.5199V44.6606C55.4139 45.015 55.7204 45.3032 56.0974 45.3032C56.4743 45.3032 56.7809 45.015 56.7809 44.6606V39.5199C56.7809 39.1655 56.4743 38.8773 56.0974 38.8773Z" fill="#3F3D56"/>
<path d="M56.0974 54.2996C55.7204 54.2996 55.4139 54.5878 55.4139 54.9422V64.9025C55.4139 65.2569 55.7204 65.5451 56.0974 65.5451C56.4743 65.5451 56.7809 65.2569 56.7809 64.9025V54.9422C56.7809 54.5878 56.4743 54.2996 56.0974 54.2996Z" fill="#3F3D56"/>
<path d="M56.0974 68.4368C55.7204 68.4368 55.4139 68.725 55.4139 69.0794V79.0397C55.4139 79.3941 55.7204 79.6823 56.0974 79.6823C56.4743 79.6823 56.7809 79.3941 56.7809 79.0397V69.0794C56.7809 68.725 56.4743 68.4368 56.0974 68.4368Z" fill="#3F3D56"/>
<path d="M81.0876 3.69501H68.0163C67.9453 3.69501 67.8878 3.74908 67.8878 3.81579V5.18073C67.8878 5.24743 67.9453 5.30151 68.0163 5.30151H81.0876C81.1586 5.30151 81.2161 5.24743 81.2161 5.18073V3.81579C81.2161 3.74908 81.1586 3.69501 81.0876 3.69501Z" fill="#E6E6E6"/>
<path d="M139.088 5.30148C139.843 5.30148 140.455 4.72607 140.455 4.01628C140.455 3.30648 139.843 2.73108 139.088 2.73108C138.333 2.73108 137.721 3.30648 137.721 4.01628C137.721 4.72607 138.333 5.30148 139.088 5.30148Z" fill="#E6E6E6"/>
<path d="M142.848 5.30148C143.603 5.30148 144.215 4.72607 144.215 4.01628C144.215 3.30648 143.603 2.73108 142.848 2.73108C142.093 2.73108 141.481 3.30648 141.481 4.01628C141.481 4.72607 142.093 5.30148 142.848 5.30148Z" fill="#E6E6E6"/>
<path d="M146.607 5.30148C147.362 5.30148 147.974 4.72607 147.974 4.01628C147.974 3.30648 147.362 2.73108 146.607 2.73108C145.852 2.73108 145.24 3.30648 145.24 4.01628C145.24 4.72607 145.852 5.30148 146.607 5.30148Z" fill="#E6E6E6"/>
<path d="M138.116 37.0498H80.138C79.2246 37.0498 78.4815 36.3512 78.4815 35.4924C78.4815 34.6337 79.2246 33.9351 80.138 33.9351H138.116C139.03 33.9351 139.773 34.6337 139.773 35.4924C139.773 36.3512 139.03 37.0498 138.116 37.0498Z" fill="#E6E6E6"/>
<path d="M147.865 160.278H126.33C125.417 160.278 124.674 159.579 124.674 158.721C124.674 157.862 125.417 157.163 126.33 157.163H147.865C148.778 157.163 149.521 157.862 149.521 158.721C149.521 159.579 148.778 160.278 147.865 160.278Z" fill="#E6E6E6"/>
<path d="M90.3009 160.278H68.7661C67.8527 160.278 67.1096 159.579 67.1096 158.721C67.1096 157.862 67.8527 157.163 68.7661 157.163H90.3009C91.2143 157.163 91.9574 157.862 91.9574 158.721C91.9574 159.579 91.2143 160.278 90.3009 160.278Z" fill="#E6E6E6"/>
<path d="M149.522 41.2346H68.7327V41.6239H149.522V41.2346Z" fill="#3F3D56"/>
<path d="M138.116 60.8H80.138C79.2246 60.8 78.4815 60.1013 78.4815 59.2426C78.4815 58.3838 79.2246 57.6852 80.138 57.6852H138.116C139.03 57.6852 139.773 58.3838 139.773 59.2426C139.773 60.1013 139.03 60.8 138.116 60.8Z" fill="#E6E6E6"/>
<path d="M149.522 64.9847H68.7327V65.374H149.522V64.9847Z" fill="#3F3D56"/>
<path d="M138.116 84.5501H80.138C79.2246 84.5501 78.4815 83.8514 78.4815 82.9927C78.4815 82.134 79.2246 81.4353 80.138 81.4353H138.116C139.03 81.4353 139.773 82.134 139.773 82.9927C139.773 83.8514 139.03 84.5501 138.116 84.5501Z" fill="#E6E6E6"/>
<path d="M149.522 88.7348H68.7327V89.1241H149.522V88.7348Z" fill="#3F3D56"/>
<path d="M149.522 108.981H68.7327V109.37H149.522V108.981Z" fill="#3F3D56"/>
<path d="M149.522 129.227H68.7327V129.616H149.522V129.227Z" fill="#3F3D56"/>
<path d="M109.696 143.469C122.961 143.469 133.715 133.358 133.715 120.887C133.715 108.415 122.961 98.3044 109.696 98.3044C96.43 98.3044 85.6761 108.415 85.6761 120.887C85.6761 133.358 96.43 143.469 109.696 143.469Z" fill="#6C63FF"/>
</svg>
