<svg width="224" height="162" viewBox="0 0 224 162" fill="none" xmlns="http://www.w3.org/2000/svg">
<path d="M187.465 132.802H36.5351C33.3073 132.802 30.6812 129.708 30.6812 125.905V104.503H193.319V125.905C193.319 129.708 190.693 132.802 187.465 132.802Z" fill="#E6E6E6"/>
<path d="M131.534 129.222H93.0449V161.612H131.534V129.222Z" fill="#E6E6E6"/>
<path d="M133.849 157.521H90.7298V161.612H133.849V157.521Z" fill="#E6E6E6"/>
<path d="M193.174 113.538H30.6812V4.73307C30.6812 2.12331 32.4834 0 34.6985 0H189.157C191.372 0 193.174 2.12331 193.174 4.73307V113.538Z" fill="#3F3D56"/>
<path d="M112.289 3.92099C112.929 3.92099 113.447 3.31039 113.447 2.55718C113.447 1.80396 112.929 1.19336 112.289 1.19336C111.65 1.19336 111.132 1.80396 111.132 2.55718C111.132 3.31039 111.65 3.92099 112.289 3.92099Z" fill="white"/>
<path d="M189.267 4.94385H34.4433V107.571H189.267V4.94385Z" fill="white"/>
<path d="M171.147 82.4804C178.438 82.4804 184.348 75.5174 184.348 66.9281C184.348 58.3388 178.438 51.3757 171.147 51.3757C163.857 51.3757 157.947 58.3388 157.947 66.9281C157.947 75.5174 163.857 82.4804 171.147 82.4804Z" fill="#6C63FF"/>
<path d="M37.8965 64.6664L36.2286 71.5443L42.9003 72.0356L42.4833 63.9294L37.8965 64.6664Z" fill="#FFB6B6"/>
<path d="M65.6135 92.7432C67.1967 93.38 68.7589 92.9338 69.1027 91.7466C69.4466 90.5594 68.4418 89.0812 66.858 88.4444C66.2283 88.1798 65.5539 88.0967 64.8914 88.2021L58.1543 85.6038L57.1867 89.3546L63.931 91.5179C64.4007 92.0788 64.9777 92.499 65.6135 92.7432Z" fill="#FFB6B6"/>
<path d="M43.2578 70.0189C43.2578 70.0189 39.0816 75.9383 41.4976 78.3875C43.9136 80.8366 54.7029 89.9031 54.7029 89.9031L58.909 90.6748L59.9848 85.8845L50.4871 77.5927L43.2578 70.0189H43.2578Z" fill="#6C63FF"/>
<path d="M54.3232 133.034L56.6442 143.167L60.3303 142.363L59.5112 131.908L54.3232 133.034Z" fill="#FFB6B6"/>
<path d="M57.1903 142.524L55.825 142.846L54.7328 147.189C54.7328 147.189 56.5076 147.993 56.5076 149.601C56.5076 151.21 57.1903 152.336 59.9208 152.175C62.6513 152.014 62.9243 152.175 62.9243 150.888C62.9243 149.601 60.8764 142.846 60.8764 142.846C60.8764 142.846 61.013 140.111 59.3747 140.272C57.7364 140.433 57.1903 142.524 57.1903 142.524H57.1903Z" fill="#2F2E41"/>
<path d="M41.8427 132.876L42.0011 143.371L45.7425 143.647L47.1073 133.271L41.8427 132.876Z" fill="#FFB6B6"/>
<path d="M42.6636 142.903L41.273 142.824L39.3167 146.723C39.3167 146.723 40.8721 148.012 40.5399 149.572C40.2077 151.132 40.6373 152.42 43.3189 153.047C46.0006 153.673 46.2322 153.908 46.498 152.66C46.7637 151.411 46.1726 144.272 46.1726 144.272C46.1726 144.272 46.8697 141.659 45.2475 141.345C43.6252 141.031 42.6636 142.903 42.6636 142.903Z" fill="#2F2E41"/>
<path d="M43.4012 70.141L36.0289 69.4976L34.3906 71.9103C34.3906 71.9103 33.5714 88.1563 34.1175 89.7648C34.6636 91.3733 34.2541 100.542 34.2541 100.542L52.8392 99.0137L48.7257 87.352L48.8622 80.5963L45.1761 72.3929L43.4012 70.141L43.4012 70.141Z" fill="#6C63FF"/>
<path d="M35.0732 97.1639C35.0732 97.1639 32.0696 102.311 33.1619 105.046C34.2541 107.78 41.6626 123.657 41.6626 123.657L40.7069 138.456L47.2601 137.812L48.3523 121.888L43.8108 108.906L44.63 107.458L51.4562 117.27L53.9137 134.321L60.4669 133.355L56.9172 108.424L52.7688 98.814L35.0732 97.1639H35.0732Z" fill="#2F2E41"/>
<path d="M34.4315 60.2904C35.8294 60.2904 36.9626 58.9553 36.9626 57.3083C36.9626 55.6613 35.8294 54.3262 34.4315 54.3262C33.0336 54.3262 31.9004 55.6613 31.9004 57.3083C31.9004 58.9553 33.0336 60.2904 34.4315 60.2904Z" fill="#2F2E41"/>
<path d="M40.2768 68.3638C43.3211 68.3638 45.789 65.4562 45.789 61.8695C45.789 58.2827 43.3211 55.3751 40.2768 55.3751C37.2325 55.3751 34.7646 58.2827 34.7646 61.8695C34.7646 65.4562 37.2325 68.3638 40.2768 68.3638Z" fill="#FFB6B6"/>
<path d="M38.5291 68.9893C37.9433 69.3549 36.2948 68.0125 35.7049 66.2138C35.3255 65.0566 34.403 65.2491 33.8143 63.806C33.4713 62.9651 34.4956 62.1425 34.3266 61.4154C34.0205 60.0981 34.4043 58.9195 34.4532 58.7751C34.8753 57.5287 35.4975 57.5577 35.9992 56.107C36.3012 55.2336 36.1074 55.1313 36.3613 54.6845C37.0941 53.3949 39.2202 53.3459 40.7197 53.9557C41.2386 54.1667 42.4885 53.0359 43.5031 53.8551C44.6985 54.8203 45.4937 57.6023 45.3108 58.112C45.1996 58.4218 44.5807 58.1062 43.2936 58.3446C42.1019 58.5652 43.6747 59.6142 42.3336 59.9718C40.7477 60.3947 40.27 60.0088 39.8305 60.5999C39.3659 61.2247 39.28 62.4895 39.7039 63.2402C39.9143 63.6128 40.1856 63.7442 40.1516 64.0035C40.0895 64.4768 39.7327 64.2195 39.6156 64.7217C39.4795 65.3058 40.6091 66.0716 40.5109 66.2483C40.4911 66.2839 40.4065 66.3224 39.3035 65.8216C38.8631 65.6216 38.6933 65.4489 38.6439 65.5128C38.5639 65.6162 38.1679 66.6533 38.6178 67.0944C39.3181 67.7809 38.8328 68.0536 39.152 68.5911C39.4813 69.1457 38.9014 68.7569 38.5291 68.9893V68.9893Z" fill="#2F2E41"/>
<path d="M39.8197 106.513C40.6994 108.189 42.1467 109.013 43.0522 108.354C43.9577 107.694 43.9784 105.8 43.0982 104.123C42.7544 103.448 42.2783 102.879 41.7097 102.465L37.9063 95.4165L35.1371 97.5899L39.1806 104.307C39.2411 105.092 39.4603 105.848 39.8197 106.513Z" fill="#FFB6B6"/>
<path d="M34.8002 72.2319C34.8002 72.2319 28.3835 73.6796 28.9296 77.3792C29.4757 81.0787 32.9227 96.1551 32.9227 96.1551L35.7558 99.8983L39.169 97.003L36.3019 83.4915L34.8002 72.2319V72.2319Z" fill="#6C63FF"/>
<path d="M186.36 75.3214C186.108 74.8201 185.017 75.3569 184.816 74.9019C184.616 74.4486 185.63 73.7579 186.21 72.1801C186.314 71.8956 186.973 70.1025 186.485 69.5492C185.561 68.5005 181.333 72.8284 179.853 71.4121C179.528 71.1013 179.301 70.4808 178.318 69.4734C177.927 69.0726 177.691 68.8916 177.462 68.959C177.138 69.0545 177.112 69.5664 176.764 70.5731C176.242 72.0827 175.933 71.9916 175.629 73.196C175.403 74.0901 175.454 74.61 175.189 74.7112C174.812 74.8546 174.466 73.9062 173.99 73.9911C173.503 74.0778 173.209 75.182 173.117 76.0087C172.942 77.5602 173.426 78.584 173.694 79.6605C173.985 80.8303 174.158 82.6095 173.485 85.128L166.827 107.229C168.297 102.694 172.553 90.2622 174.342 85.6424C174.858 84.3088 175.428 82.9561 176.598 82.4222C177.725 81.9082 179.273 82.2151 181.246 81.6551C181.476 81.5897 182.116 81.398 182.196 80.9549C182.263 80.5885 181.887 80.3841 181.944 80.041C182.022 79.5807 182.762 79.5751 183.671 79.0441C184.311 78.6697 184.711 78.2244 185.054 77.8415C185.158 77.7261 186.696 75.9888 186.36 75.3214H186.36L186.36 75.3214Z" fill="#E6E6E6"/>
<path d="M160.166 86.9564C159.884 86.9577 159.793 87.7438 159.546 87.7286C159.299 87.7135 159.304 86.9277 158.814 86.1373C158.726 85.9948 158.169 85.0967 157.797 85.2189C157.094 85.4506 157.677 89.1445 156.66 89.5915C156.437 89.6896 156.113 89.6418 155.41 89.9194C155.13 90.0299 154.986 90.1144 154.948 90.2662C154.894 90.4815 155.1 90.6441 155.419 91.1358C155.897 91.8733 155.77 92.0256 156.184 92.549C156.491 92.9376 156.723 93.0578 156.688 93.2406C156.64 93.4995 156.145 93.426 156.043 93.7261C155.938 94.0323 156.313 94.5209 156.631 94.8131C157.227 95.3616 157.793 95.3773 158.319 95.5329C158.89 95.702 159.681 96.1154 160.536 97.2311L167.822 107.458C166.357 105.3 162.406 99.2515 160.998 96.8844C160.591 96.201 160.192 95.4811 160.307 94.6502C160.418 93.8503 160.993 93.0439 161.329 91.7414C161.368 91.5893 161.473 91.1642 161.311 90.9898C161.178 90.8457 160.984 91.0042 160.858 90.8717C160.689 90.6941 160.9 90.2648 160.941 89.586C160.97 89.1074 160.899 88.748 160.839 88.439C160.821 88.3458 160.541 86.9547 160.166 86.9564V86.9564Z" fill="#E6E6E6"/>
<path d="M165.785 88.4424L165.615 86.6578L165.693 86.5225C166.051 85.8969 166.234 85.286 166.236 84.706C166.237 84.6138 166.233 84.5216 166.229 84.4277C166.215 84.0554 166.196 83.5927 166.401 83.0533C166.516 82.7525 166.839 82.0563 167.324 82.1424C167.454 82.164 167.553 82.2346 167.628 82.3174C167.639 82.2967 167.65 82.276 167.662 82.2536C167.813 81.9822 167.933 81.8658 168.048 81.7538C168.137 81.6676 168.228 81.5789 168.371 81.3686C168.434 81.2764 168.483 81.1954 168.525 81.1273C168.65 80.9214 168.814 80.6758 169.103 80.6801C169.411 80.6973 169.573 80.9981 169.68 81.1971C169.871 81.5522 169.958 81.8081 170.015 81.9778C170.036 82.0399 170.06 82.1097 170.072 82.1312C170.172 82.3036 170.98 82.1424 171.285 82.0838C171.969 81.9494 172.561 81.8331 172.805 82.3415C172.98 82.7051 172.85 83.186 172.407 83.809C172.27 84.0029 172.123 84.1502 171.993 84.2657C172.101 84.3415 172.197 84.4579 172.236 84.6405C172.328 85.0731 172.013 85.5066 171.299 85.9305C171.121 86.0365 170.883 86.1779 170.548 86.2459C170.39 86.2778 170.248 86.2856 170.127 86.2899C170.124 86.3726 170.108 86.4622 170.065 86.5544C169.94 86.8259 169.679 86.9551 169.285 86.9241C168.852 86.8974 168.496 86.8 168.181 86.7147C167.906 86.6406 167.67 86.5777 167.484 86.5923C167.14 86.6251 166.874 86.9499 166.563 87.3713L165.785 88.4424H165.785V88.4424Z" fill="#E6E6E6"/>
<path d="M166.572 77.8169L165.15 78.463L165.019 78.4089C164.414 78.1587 163.866 78.1053 163.39 78.2499C163.314 78.2729 163.239 78.3005 163.163 78.3285C162.861 78.4396 162.486 78.5778 161.991 78.4812C161.715 78.4266 161.061 78.2356 161.009 77.6612C160.994 77.5069 161.027 77.3765 161.076 77.27C161.056 77.2628 161.036 77.2551 161.015 77.247C160.753 77.1438 160.628 77.037 160.506 76.9341C160.413 76.8551 160.317 76.7734 160.108 76.6634C160.016 76.6151 159.938 76.5798 159.871 76.55C159.67 76.4593 159.427 76.3348 159.357 76.0045C159.293 75.6484 159.499 75.3879 159.635 75.2153C159.878 74.9073 160.066 74.7436 160.191 74.6351C160.237 74.5956 160.288 74.5508 160.303 74.5316C160.419 74.3745 160.082 73.4939 159.956 73.1616C159.672 72.4159 159.427 71.7707 159.782 71.3638C160.036 71.0723 160.464 71.0983 161.088 71.4446C161.282 71.5525 161.44 71.6822 161.568 71.8013C161.603 71.6591 161.674 71.5196 161.814 71.4287C162.146 71.2139 162.582 71.4637 163.111 72.1701C163.243 72.3453 163.42 72.5816 163.56 72.9457C163.626 73.1172 163.669 73.277 163.703 73.4142C163.772 73.3962 163.85 73.3922 163.936 73.4176C164.191 73.4917 164.363 73.7564 164.437 74.2128C164.525 74.713 164.536 75.144 164.546 75.5241C164.554 75.8559 164.563 76.1415 164.622 76.3495C164.736 76.7338 165.07 76.9539 165.495 77.2021L166.572 77.8169L166.572 77.8169Z" fill="#E6E6E6"/>
<path d="M165.785 72.5594L165.615 70.7748L165.693 70.6395C166.051 70.0139 166.234 69.4029 166.236 68.823C166.237 68.7308 166.233 68.6386 166.229 68.5446C166.215 68.1724 166.196 67.7097 166.401 67.1702C166.516 66.8695 166.839 66.1732 167.324 66.2594C167.454 66.2809 167.553 66.3516 167.628 66.4343C167.639 66.4136 167.65 66.3929 167.662 66.3705C167.813 66.0991 167.933 65.9828 168.048 65.8708C168.137 65.7846 168.228 65.6958 168.371 65.4856C168.434 65.3934 168.483 65.3124 168.525 65.2443C168.65 65.0383 168.814 64.7927 169.103 64.7971C169.411 64.8143 169.573 65.115 169.68 65.3141C169.871 65.6691 169.958 65.925 170.015 66.0948C170.036 66.1568 170.06 66.2266 170.072 66.2482C170.172 66.4205 170.98 66.2594 171.285 66.2008C171.969 66.0663 172.561 65.95 172.805 66.4584C172.98 66.8221 172.85 67.3029 172.407 67.9259C172.27 68.1198 172.123 68.2672 171.993 68.3826C172.101 68.4585 172.197 68.5748 172.236 68.7575C172.328 69.1901 172.013 69.6235 171.299 70.0475C171.121 70.1535 170.883 70.2948 170.548 70.3629C170.39 70.3948 170.248 70.4025 170.127 70.4068C170.124 70.4895 170.108 70.5792 170.065 70.6714C169.94 70.9428 169.679 71.0721 169.285 71.041C168.852 71.0143 168.496 70.917 168.181 70.8316C167.906 70.7575 167.67 70.6946 167.484 70.7093C167.14 70.742 166.874 71.0669 166.563 71.4883L165.785 72.5594H165.785V72.5594Z" fill="#E6E6E6"/>
<path d="M167.335 107.2L167.017 106.966L166.94 106.534L167.017 106.966L166.647 107.016C166.641 106.975 166.621 106.882 166.591 106.737C166.425 105.939 165.92 103.51 165.499 99.6862C165.205 97.0166 165.038 94.272 165.004 91.5275C164.97 88.7786 165.08 86.6976 165.169 85.025C165.235 83.7634 165.317 82.5622 165.396 81.392C165.608 78.2657 165.808 75.3126 165.66 72.0433C165.627 71.3134 165.558 69.7942 164.804 68.1776C164.367 67.2401 163.765 66.4077 163.015 65.7045L163.482 65.0134C164.31 65.7907 164.976 66.7127 165.461 67.7537C166.296 69.546 166.372 71.2014 166.408 71.9968C166.559 75.3238 166.357 78.3054 166.143 81.4618C166.064 82.6277 165.983 83.8238 165.916 85.0801C165.828 86.7372 165.719 88.8002 165.753 91.5137C165.787 94.2255 165.951 96.9365 166.241 99.5724C166.657 103.348 167.155 105.741 167.318 106.526C167.406 106.946 167.424 107.034 167.335 107.2V107.2Z" fill="#E6E6E6"/>
<path d="M161.641 67.1065C161.611 67.1065 161.58 67.1056 161.548 67.103C160.91 67.0625 160.32 66.6127 159.792 65.7665C159.545 65.3684 159.419 64.9143 159.166 64.0086C159.127 63.869 158.937 63.1607 158.821 62.1861C158.746 61.5493 158.755 61.283 158.862 61.0478C158.981 60.7858 159.174 60.6031 159.39 60.4799C159.381 60.3954 159.388 60.3084 159.419 60.2197C159.547 59.8517 159.886 59.9 160.07 59.9232C160.163 59.937 160.279 59.9551 160.404 59.9474C160.601 59.9362 160.706 59.8672 160.866 59.7638C161.02 59.6647 161.21 59.5415 161.493 59.4734C162.05 59.3364 162.517 59.5225 162.671 59.5837C163.481 59.9017 163.881 60.6436 164.343 61.5027C164.435 61.6751 164.751 62.3024 164.96 63.1624C165.111 63.7828 165.09 64.0586 165.044 64.2637C164.952 64.685 164.734 64.9263 164.182 65.4589C163.605 66.0164 163.315 66.2956 163.066 66.4653C162.488 66.8591 162.124 67.1064 161.641 67.1064V67.1065V67.1065Z" fill="#E6E6E6"/>
<path d="M128.601 91.6154H69.8351C67.4693 91.6154 65.5448 89.3477 65.5448 86.5606V34.2063C65.5448 31.4193 67.4693 29.1516 69.8351 29.1516H128.601C130.966 29.1516 132.891 31.4193 132.891 34.2063V86.5606C132.891 89.3477 130.966 91.6154 128.601 91.6154H128.601Z" fill="white"/>
<path d="M128.601 91.6154H69.8351C67.4693 91.6154 65.5448 89.3477 65.5448 86.5606V34.2063C65.5448 31.4193 67.4693 29.1516 69.8351 29.1516H128.601C130.966 29.1516 132.891 31.4193 132.891 34.2063V86.5606C132.891 89.3477 130.966 91.6154 128.601 91.6154H128.601ZM69.8351 29.9957C67.8645 29.9957 66.2612 31.8846 66.2612 34.2063V86.5606C66.2612 88.8823 67.8645 90.7713 69.8351 90.7713H128.601C130.571 90.7713 132.174 88.8823 132.174 86.5606V34.2063C132.174 31.8846 130.571 29.9957 128.601 29.9957H69.8351Z" fill="#3F3D56"/>
<path d="M122.144 35.4824C122.738 35.4824 123.219 34.9155 123.219 34.2162C123.219 33.517 122.738 32.9501 122.144 32.9501C121.551 32.9501 121.069 33.517 121.069 34.2162C121.069 34.9155 121.551 35.4824 122.144 35.4824Z" fill="#3F3D56"/>
<path d="M125.01 35.4824C125.603 35.4824 126.085 34.9155 126.085 34.2162C126.085 33.517 125.603 32.9501 125.01 32.9501C124.416 32.9501 123.935 33.517 123.935 34.2162C123.935 34.9155 124.416 35.4824 125.01 35.4824Z" fill="#3F3D56"/>
<path d="M127.876 35.4824C128.469 35.4824 128.95 34.9155 128.95 34.2162C128.95 33.517 128.469 32.9501 127.876 32.9501C127.282 32.9501 126.801 33.517 126.801 34.2162C126.801 34.9155 127.282 35.4824 127.876 35.4824Z" fill="#3F3D56"/>
<path d="M71.6346 54.6858C71.3383 54.6858 71.0973 54.9698 71.0973 55.3189C71.0973 55.4891 71.1531 55.6465 71.2543 55.7628C71.3565 55.886 71.4903 55.9519 71.6346 55.9519H127.159C127.456 55.9519 127.697 55.668 127.697 55.3189C127.697 55.1486 127.641 54.9912 127.54 54.875C127.437 54.7517 127.304 54.6858 127.159 54.6858H71.6346Z" fill="#E6E6E6"/>
<path d="M117.129 54.4747V56.1629H71.6346C71.4375 56.1629 71.2584 56.0701 71.1295 55.9139C70.9969 55.762 70.9181 55.551 70.9181 55.3188C70.9181 54.8546 71.2405 54.4747 71.6346 54.4747H117.129Z" fill="#6C63FF"/>
<path d="M126.264 51.3094H119.099C118.309 51.3094 117.666 50.5523 117.666 49.6212C117.666 48.6901 118.309 47.933 119.099 47.933H126.264C127.054 47.933 127.697 48.6901 127.697 49.6212C127.697 50.5523 127.054 51.3094 126.264 51.3094Z" fill="#E6E6E6"/>
<path d="M79.3364 42.4462H72.1719C71.3818 42.4462 70.739 41.6891 70.739 40.758C70.739 39.827 71.3818 39.0698 72.1719 39.0698H79.3364C80.1265 39.0698 80.7693 39.827 80.7693 40.758C80.7693 41.6891 80.1265 42.4462 79.3364 42.4462Z" fill="#E6E6E6"/>
<path d="M71.6346 73.6781C71.3383 73.6781 71.0973 73.9621 71.0973 74.3112C71.0973 74.4814 71.1531 74.6388 71.2543 74.7551C71.3565 74.8783 71.4903 74.9443 71.6346 74.9443H127.159C127.456 74.9443 127.697 74.6603 127.697 74.3112C127.697 74.141 127.641 73.9835 127.54 73.8673C127.437 73.7441 127.304 73.6781 127.159 73.6781H71.6346Z" fill="#E6E6E6"/>
<path d="M89.5458 73.4672V75.1554H71.6346C71.4375 75.1554 71.2584 75.0625 71.1295 74.9064C70.9969 74.7544 70.9181 74.5434 70.9181 74.3113C70.9181 73.847 71.2405 73.4672 71.6346 73.4672H89.5458Z" fill="#6C63FF"/>
<path d="M126.264 70.3017H119.099C118.309 70.3017 117.666 69.5446 117.666 68.6135C117.666 67.6824 118.309 66.9253 119.099 66.9253H126.264C127.054 66.9253 127.697 67.6824 127.697 68.6135C127.697 69.5446 127.054 70.3017 126.264 70.3017Z" fill="#E6E6E6"/>
</svg>
