<svg width="184" height="144" viewBox="0 0 184 144" fill="none" xmlns="http://www.w3.org/2000/svg">
<g clip-path="url(#clip0_916_2364)">
<path d="M138.801 82.882C139.384 90.215 139.245 97.0653 137.852 103.078L158.361 103.064L167.642 96.907C165.106 88.7918 163.382 87.4077 165.287 81.76L138.801 82.882Z" fill="#FFB6B6"/>
<path d="M139.054 82.4929C139.637 87.2824 137.466 89.8232 136.073 93.7504L136.073 93.7504C140.133 91.2741 147.086 91.4005 151.795 92.3807L166.504 95.4423C163.968 90.1418 163.636 85.4488 165.541 81.76L139.054 82.4929Z" fill="#3F3D56"/>
<path d="M167.176 94.626L173.955 110.595C176.153 115.772 177.055 121.365 176.591 126.932L175.169 144H154.801C154.801 144 153.766 139.821 154.542 140.053C155.318 140.286 153.516 139.158 154.417 138.151C155.318 137.144 154.104 133.373 154.104 133.373C154.104 133.373 152.805 137.692 150.919 144H128.537C130.424 132.36 132.437 118.368 131.38 117.408C129.551 115.75 131.443 116.263 133.34 114.651C135.237 113.041 134.681 111.774 133.682 110.834C132.686 109.896 134.091 109.529 134.976 108.688C135.858 107.847 138.062 97.6762 138.062 97.6762C138.077 97.6859 138.82 97.7398 138.835 97.7471C139.342 98.2305 142.458 99.1973 149.739 99.1973C156.079 99.1973 165.738 95.3221 166.938 94.7444C167.095 94.6671 167.176 94.626 167.176 94.626Z" fill="#2F2E41"/>
<path d="M21.5352 0.257324C20.4144 0.257324 19.5024 1.12652 19.5024 2.1948C19.5024 3.26309 20.4144 4.13228 21.5352 4.13228H67.2462C68.3671 4.13228 69.279 3.26309 69.279 2.1948C69.279 1.12652 68.3671 0.257324 67.2462 0.257324H21.5352Z" fill="#F2F2F2"/>
<path d="M21.5352 38.6796C20.4144 38.6796 19.5024 39.5488 19.5024 40.617C19.5024 41.6853 20.4144 42.5545 21.5352 42.5545H67.2462C68.3671 42.5545 69.279 41.6853 69.279 40.617C69.279 39.5488 68.3671 38.6796 67.2462 38.6796H21.5352Z" fill="#F2F2F2"/>
<path d="M30.1735 13.0647C29.0527 13.0647 28.1407 13.9339 28.1407 15.0022C28.1407 16.0705 29.0527 16.9397 30.1735 16.9397H106.659C107.779 16.9397 108.691 16.0705 108.691 15.0022C108.691 13.9339 107.779 13.0647 106.659 13.0647H30.1735Z" fill="#F2F2F2"/>
<path d="M30.1735 25.8722C29.0527 25.8722 28.1407 26.7414 28.1407 27.8097C28.1407 28.878 29.0527 29.7471 30.1735 29.7471H106.659C107.779 29.7471 108.691 28.878 108.691 27.8097C108.691 26.7414 107.779 25.8722 106.659 25.8722H30.1735Z" fill="#F2F2F2"/>
<path d="M9.66566 3.64501C10.506 3.64501 11.1872 2.99573 11.1872 2.19482C11.1872 1.3939 10.506 0.744629 9.66566 0.744629C8.82534 0.744629 8.14413 1.3939 8.14413 2.19482C8.14413 2.99573 8.82534 3.64501 9.66566 3.64501Z" fill="#F2F2F2"/>
<path d="M9.66566 42.0672C10.506 42.0672 11.1872 41.418 11.1872 40.6171C11.1872 39.8161 10.506 39.1669 9.66566 39.1669C8.82534 39.1669 8.14413 39.8161 8.14413 40.6171C8.14413 41.418 8.82534 42.0672 9.66566 42.0672Z" fill="#F2F2F2"/>
<path d="M19.0484 16.4524C19.8887 16.4524 20.5699 15.8031 20.5699 15.0022C20.5699 14.2013 19.8887 13.552 19.0484 13.552C18.2081 13.552 17.5269 14.2013 17.5269 15.0022C17.5269 15.8031 18.2081 16.4524 19.0484 16.4524Z" fill="#F2F2F2"/>
<path d="M19.0484 29.2599C19.8887 29.2599 20.5699 28.6106 20.5699 27.8097C20.5699 27.0088 19.8887 26.3595 19.0484 26.3595C18.2081 26.3595 17.5269 27.0088 17.5269 27.8097C17.5269 28.6106 18.2081 29.2599 19.0484 29.2599Z" fill="#F2F2F2"/>
<path d="M3.21709 3.66303L2.60229 3.59934C2.66257 3.40469 2.69221 3.19724 2.7247 3.00829C2.87545 2.1312 2.91631 1.24349 2.83611 0.357855C2.80768 0.043812 2.44175 -0.118918 2.18676 0.101493L0.857808 1.25024C0.49436 1.56439 1.03365 2.07594 1.39575 1.76294C1.63488 1.55624 1.87401 1.34952 2.11316 1.14281C2.11842 1.54494 2.1024 1.94717 2.05755 2.34766C2.02209 2.66415 1.97131 2.98179 1.89661 3.29214C1.87918 3.36458 1.86262 3.44936 1.82453 3.51878C1.7169 3.50763 1.60927 3.49649 1.50163 3.48534C1.1408 3.44797 1.04506 3.8913 1.23266 4.10425C1.43054 4.32886 1.76062 4.36491 2.0349 4.26566L3.21709 4.38812C3.42164 4.4093 3.59747 4.20631 3.59747 4.02557C3.59747 3.81195 3.42223 3.68427 3.21709 3.66303V3.66303ZM1.74166 3.59766C1.7331 3.60063 1.72552 3.60299 1.72519 3.60101C1.72366 3.59177 1.73108 3.59269 1.74166 3.59766Z" fill="#F2F2F2"/>
<path d="M3.41644 16.6226C3.06582 16.5958 2.71524 16.5689 2.36462 16.5421C3.02242 15.964 3.50222 15.1803 3.58713 14.3401C3.64896 13.7284 3.37527 13.0414 2.76218 12.7704C2.14513 12.4976 1.3975 12.7195 1.15974 13.354C0.909592 14.0215 1.59247 14.7373 2.31422 14.5198C2.77938 14.3796 2.58067 13.6794 2.11199 13.8206C1.99913 13.8546 1.87034 13.7872 1.863 13.6605C1.85522 13.5259 1.99894 13.4057 2.12598 13.3781C2.6469 13.2649 2.85848 13.9009 2.83236 14.2706C2.76504 15.2234 1.95257 16.0847 1.10447 16.5098C0.745714 16.6897 0.946798 17.1587 1.29646 17.1854C2.00312 17.2395 2.70977 17.2936 3.41644 17.3477C3.62147 17.3634 3.79682 17.1699 3.79682 16.9852C3.79682 16.776 3.62206 16.6384 3.41644 16.6226V16.6226Z" fill="#F2F2F2"/>
<path d="M3.56451 27.5507C3.86468 27.239 3.94439 26.7597 3.79899 26.3636C3.63457 25.9157 3.21014 25.585 2.72879 25.4797C2.20872 25.3659 1.67418 25.4962 1.22765 25.7605C0.812566 26.0061 1.19411 26.6337 1.61162 26.3865C2.03331 26.137 2.70876 26.0135 3.02506 26.4876C3.13404 26.6509 3.15526 26.9066 3.01161 27.059C2.97322 27.0997 2.92736 27.1264 2.87916 27.1463C2.71064 27.0952 2.53141 27.0669 2.34356 27.0721C1.96254 27.0827 1.83112 27.5546 2.15159 27.7477C2.34967 27.8671 2.57771 27.913 2.80193 27.8976C3.18191 28.0867 3.39603 28.5157 3.21704 28.9424C2.9827 29.5013 2.22296 29.6229 1.77988 29.2103C1.42944 28.884 0.891006 29.3962 1.24193 29.723C1.64698 30.1002 2.22316 30.2551 2.77717 30.1476C3.31557 30.043 3.73117 29.6625 3.93037 29.1847C4.17857 28.5893 3.98918 27.9653 3.5645 27.5507L3.56451 27.5507Z" fill="#F2F2F2"/>
<path d="M3.73611 40.4597C3.80927 39.782 3.88242 39.1043 3.95558 38.4266C3.97665 38.2316 3.76569 38.0641 3.5752 38.0641C3.35201 38.0641 3.21595 38.231 3.19482 38.4266L2.97779 40.4371C2.27125 40.4438 1.56468 40.4513 0.858104 40.4555C0.854034 40.4556 0.851495 40.4551 0.847532 40.4551L0.849822 40.4506L0.941914 40.2949C0.993068 40.2084 1.04424 40.1219 1.09539 40.0354L1.77071 38.8936C2.01144 38.4866 1.3545 38.1206 1.11381 38.5276C0.852903 38.9688 0.59198 39.4099 0.331072 39.8511C0.204263 40.0655 0.0143214 40.3031 0.000792587 40.5568C-0.0139256 40.8329 0.177857 41.0599 0.449722 41.1393C0.670204 41.2037 0.91616 41.1801 1.14313 41.1781L1.93483 41.1712C2.25636 41.1684 2.57789 41.1657 2.89943 41.1628C2.84026 41.711 2.78107 42.2592 2.7219 42.8074C2.70085 43.0024 2.91181 43.1699 3.10228 43.1699C3.32548 43.1699 3.46155 43.003 3.48266 42.8074C3.54236 42.2545 3.60204 41.7015 3.66174 41.1486C4.01721 41.0802 4.0426 40.5826 3.73611 40.4597ZM0.686517 40.4508C0.651337 40.4544 0.657712 40.4313 0.686517 40.4508V40.4508Z" fill="#F2F2F2"/>
<path d="M180.868 84.6349L173.784 59.644C173.153 57.4428 170.786 56.1315 168.466 56.6983H168.466C166.033 57.2932 164.62 59.712 165.373 61.9969L173.566 87.7413L177.853 103.585C176.674 104.446 176.082 105.924 176.474 107.383C176.999 109.332 179.082 110.506 181.126 110.006C183.171 109.507 184.404 107.522 183.879 105.573C183.688 104.861 183.287 104.255 182.758 103.793L180.868 84.6349Z" fill="#FFB6B6"/>
<path d="M121.257 79.2526L142.782 63.4643C144.675 62.0672 145.042 59.481 143.606 57.6549L143.606 57.6549C142.099 55.7385 139.214 55.4187 137.286 56.9543L115.456 74.0078L101.732 83.8371C100.446 83.1275 98.7869 83.1712 97.5229 84.074C95.8336 85.2805 95.4903 87.5639 96.7562 89.1739C98.0221 90.784 100.418 91.1112 102.107 89.9047C102.724 89.4642 103.159 88.8795 103.404 88.2371L121.257 79.2526Z" fill="#FFB6B6"/>
<path d="M157.118 45.8572H147.192L142.929 52.8096L140.898 52.7027C138.801 52.5924 136.871 53.3326 135.464 54.6008C134.761 55.2349 135.467 56.8885 133.793 56.8588C131.8 56.8234 129.345 60.6063 129.987 62.5715V73.2062C133.175 73.0941 135.876 68.2096 135.82 64.2634C135.82 64.2634 131.203 70.7985 137.651 74.456C137.651 74.456 136.501 86.6646 137.651 86.5905C138.801 86.5164 139.37 87.2247 137.821 87.8375C135.022 88.9443 138.632 90.2826 138.974 90.6092C139.203 90.8269 139.317 90.9357 139.317 90.9357C142.869 84.0609 156.3 93.9268 167.397 96.5741C168.657 95.6653 169.166 93.6484 166.882 91.9347C164.736 90.3235 167.706 86.7954 168.505 87.3541C169.284 87.8995 165.287 83.1626 165.876 80.9186C166.465 78.6746 167.347 79.5161 166.465 78.6746C165.582 77.8331 170.203 73.5123 167.49 69.4684L169.661 77.747C168.197 78.0017 168.084 78.4896 168.532 79.4903C168.688 79.8364 169.512 79.9573 169.529 81.4157C169.547 82.8741 170.492 80.8891 170.019 81.7607C169.547 82.6324 170.521 82.0301 170.815 82.149C174.389 83.2579 177.321 82.2472 179.944 80.2154C180.116 79.7585 181.752 78.1198 180.594 78.5634C179.437 79.007 179.463 78.1002 180.718 77.9493C181.973 77.7984 180.56 77.1885 180.48 76.7703C180.331 75.9966 179.942 75.216 178.676 75.6232C177.998 71.5617 177.557 65.6603 175.351 63.6676C175.351 62.6326 174.154 56.1769 172.597 56.4177C171.04 56.6584 171.766 55.5597 171.262 55.173C168.989 53.4289 165.658 52.2964 163.216 52.2964H162.694L157.118 45.8572H157.118Z" fill="#6C63FF"/>
<path d="M160.049 41.7781C152.852 43.5763 145.386 44.319 142.336 48.2271C142.336 48.2271 146.013 41.6445 142.239 41.6732C135.898 41.7214 142.899 30.5707 145.257 29.2279C149.187 26.99 158.482 28.5161 158.482 28.5161L163.132 34.0553L160.049 41.7781Z" fill="#2F2E41"/>
<path d="M152.354 43.5635C158.003 43.5635 162.581 39.1995 162.581 33.8162C162.581 28.433 158.003 24.069 152.354 24.069C146.706 24.069 142.128 28.433 142.128 33.8162C142.128 39.1995 146.706 43.5635 152.354 43.5635Z" fill="#FFB6B6"/>
<path d="M157.257 31.7197L156.957 33.3849L150.004 32.2466C150.252 31.6255 150.249 30.9083 149.932 30.3113C149.811 30.9601 149.52 31.5776 149.099 32.0984C144.874 32.5734 144.788 33.3005 142.222 31.7363C141.367 31.5963 140.793 30.8222 140.94 30.0072V30.0072C141.86 24.9017 143.573 19.9896 148.948 20.7611C151.74 21.162 154.075 22.6311 155.58 24.6564C157.044 26.6344 157.721 29.1453 157.257 31.7197Z" fill="#2F2E41"/>
<path d="M153.057 37.1736C154.013 31.868 150.275 26.8282 144.709 25.9169C144.027 25.8053 143.349 25.7617 142.683 25.7793C143.648 24.7342 144.987 24.0188 146.495 23.8154L154.936 23.6895C158.797 24.3215 165.327 24.3614 166.968 27.4507C168.481 30.2914 165.708 33.5793 166.956 36.5304C168.323 39.7645 167.34 42.5587 165.988 43.8539C164.423 45.3523 161.793 47.2007 159.621 46.9654C159.787 46.2918 159.727 45.5724 159.397 44.9508C159.274 45.61 159.01 46.2463 158.63 46.8075L142.989 51.0828C144.483 50.608 146.44 48.635 148.234 46.2508C149.297 44.8395 151.809 45.1919 151.122 41.81C150.434 38.4281 152.85 38.3209 153.057 37.1736Z" fill="#2F2E41"/>
<path d="M124.287 87.6312H60.1294C56.9134 87.6312 54.2969 85.1375 54.2969 82.0721V38.3248C54.2969 35.2596 56.9134 32.7657 60.1294 32.7657H124.287C127.503 32.7657 130.119 35.2596 130.119 38.3248V82.0721C130.119 85.1375 127.503 87.6312 124.287 87.6312Z" fill="white"/>
<path d="M124.287 87.6312H60.1294C56.9134 87.6312 54.2969 85.1375 54.2969 82.0721V38.3248C54.2969 35.2596 56.9134 32.7657 60.1294 32.7657H124.287C127.503 32.7657 130.119 35.2596 130.119 38.3248V82.0721C130.119 85.1375 127.503 87.6312 124.287 87.6312ZM89.0046 33.2491C70.1162 33.2491 54.8041 47.8434 54.8041 65.8462V82.0721C54.8041 84.8754 57.1883 87.1478 60.1294 87.1478H124.287C127.228 87.1478 129.612 84.8754 129.612 82.0721V38.3248C129.612 35.5216 127.228 33.2491 124.287 33.2491H89.0046Z" fill="#3F3D56"/>
<path d="M76.3306 71.6106H66.1871C65.6278 71.6106 65.1727 71.1769 65.1727 70.6438C65.1727 70.1107 65.6278 69.677 66.1871 69.677H76.3306C76.8899 69.677 77.3449 70.1107 77.3449 70.6438C77.3449 71.1769 76.8899 71.6106 76.3306 71.6106Z" fill="#CCCCCC"/>
<path d="M98.3926 78.6883H66.1871C65.6278 78.6883 65.1727 78.2546 65.1727 77.7216C65.1727 77.1885 65.6278 76.7548 66.1871 76.7548H98.3926C98.9519 76.7548 99.407 77.1885 99.407 77.7216C99.407 78.2546 98.9519 78.6883 98.3926 78.6883Z" fill="#CCCCCC"/>
<path d="M103.268 72.1624C112.091 72.1624 119.244 65.3451 119.244 56.9355C119.244 48.5258 112.091 41.7085 103.268 41.7085C94.4444 41.7085 87.2917 48.5258 87.2917 56.9355C87.2917 65.3451 94.4444 72.1624 103.268 72.1624Z" fill="#6C63FF"/>
<path d="M99.9813 51.1193C99.7692 51.1193 99.558 51.1748 99.369 51.2848C99.0169 51.49 98.8067 51.8472 98.8067 52.2405V61.6305C98.8067 62.0238 99.0169 62.381 99.369 62.5861C99.7211 62.7912 100.15 62.8065 100.518 62.6274L110.132 57.9324C110.533 57.7369 110.772 57.3643 110.772 56.9355C110.772 56.5067 110.533 56.1341 110.132 55.9386L100.518 51.2436C100.348 51.1606 100.164 51.1193 99.9813 51.1193Z" fill="white"/>
</g>
<defs>
<clipPath id="clip0_916_2364">
<rect width="184" height="144" fill="white"/>
</clipPath>
</defs>
</svg>
