<svg width="184" height="144" viewBox="0 0 184 144" fill="none" xmlns="http://www.w3.org/2000/svg">
<g clip-path="url(#clip0_731_2297)">
<path d="M138.801 82.882C139.384 90.215 139.245 97.0653 137.852 103.078L158.361 103.064L167.642 96.907C165.106 88.7918 163.382 87.4077 165.287 81.76L138.801 82.882V82.882Z" fill="#FFB6B6"/>
<path d="M139.054 82.4929C139.637 87.2824 137.466 89.8232 136.073 93.7504L136.073 93.7504C140.133 91.2741 147.086 91.4005 151.795 92.3807L166.504 95.4423C163.968 90.1418 163.636 85.4488 165.541 81.76L139.054 82.4929V82.4929Z" fill="#3F3D56"/>
<path d="M167.176 94.6259L173.955 110.595C176.153 115.772 177.055 121.365 176.591 126.932L175.169 144H154.801C154.801 144 153.766 139.821 154.542 140.053C155.318 140.286 153.516 139.158 154.417 138.151C155.318 137.144 154.104 133.373 154.104 133.373C154.104 133.373 152.805 137.692 150.919 144H128.537C130.424 132.36 132.437 118.368 131.38 117.408C129.551 115.75 131.443 116.263 133.34 114.651C135.237 113.041 134.681 111.774 133.682 110.834C132.686 109.896 134.091 109.529 134.976 108.688C135.858 107.847 138.062 97.6761 138.062 97.6761C138.077 97.6858 138.82 97.7398 138.835 97.747C139.342 98.2304 142.458 99.1972 149.739 99.1972C156.079 99.1972 165.738 95.322 166.938 94.7443C167.095 94.667 167.176 94.6259 167.176 94.6259V94.6259Z" fill="#2F2E41"/>
<path d="M21.5352 0.257324C20.4144 0.257324 19.5024 1.12652 19.5024 2.1948C19.5024 3.26309 20.4144 4.13228 21.5352 4.13228H67.2462C68.3671 4.13228 69.279 3.26309 69.279 2.1948C69.279 1.12652 68.3671 0.257324 67.2462 0.257324H21.5352V0.257324Z" fill="#F2F2F2"/>
<path d="M21.5352 38.6796C20.4144 38.6796 19.5024 39.5488 19.5024 40.617C19.5024 41.6853 20.4144 42.5545 21.5352 42.5545H67.2462C68.3671 42.5545 69.279 41.6853 69.279 40.617C69.279 39.5488 68.3671 38.6796 67.2462 38.6796H21.5352Z" fill="#F2F2F2"/>
<path d="M30.1735 13.0648C29.0527 13.0648 28.1407 13.934 28.1407 15.0022C28.1407 16.0705 29.0527 16.9397 30.1735 16.9397H106.659C107.779 16.9397 108.691 16.0705 108.691 15.0022C108.691 13.934 107.779 13.0648 106.659 13.0648H30.1735Z" fill="#F2F2F2"/>
<path d="M30.1735 25.8721C29.0527 25.8721 28.1407 26.7413 28.1407 27.8096C28.1407 28.8779 29.0527 29.7471 30.1735 29.7471H106.659C107.779 29.7471 108.691 28.8779 108.691 27.8096C108.691 26.7413 107.779 25.8721 106.659 25.8721H30.1735Z" fill="#F2F2F2"/>
<path d="M9.66566 3.64501C10.506 3.64501 11.1872 2.99573 11.1872 2.19482C11.1872 1.3939 10.506 0.744629 9.66566 0.744629C8.82535 0.744629 8.14414 1.3939 8.14414 2.19482C8.14414 2.99573 8.82535 3.64501 9.66566 3.64501Z" fill="#F2F2F2"/>
<path d="M9.66566 42.0672C10.506 42.0672 11.1872 41.4179 11.1872 40.617C11.1872 39.8161 10.506 39.1668 9.66566 39.1668C8.82535 39.1668 8.14414 39.8161 8.14414 40.617C8.14414 41.4179 8.82535 42.0672 9.66566 42.0672Z" fill="#F2F2F2"/>
<path d="M19.0484 16.4524C19.8887 16.4524 20.5699 15.8032 20.5699 15.0023C20.5699 14.2013 19.8887 13.5521 19.0484 13.5521C18.2081 13.5521 17.5269 14.2013 17.5269 15.0023C17.5269 15.8032 18.2081 16.4524 19.0484 16.4524Z" fill="#F2F2F2"/>
<path d="M19.0484 29.2598C19.8887 29.2598 20.5699 28.6105 20.5699 27.8096C20.5699 27.0087 19.8887 26.3594 19.0484 26.3594C18.2081 26.3594 17.5269 27.0087 17.5269 27.8096C17.5269 28.6105 18.2081 29.2598 19.0484 29.2598Z" fill="#F2F2F2"/>
<path d="M3.21709 3.66303L2.60229 3.59934C2.66257 3.40469 2.69221 3.19724 2.7247 3.00829C2.87545 2.1312 2.91631 1.24349 2.83611 0.357855C2.80768 0.043812 2.44175 -0.118918 2.18676 0.101493L0.857808 1.25024C0.49436 1.56439 1.03365 2.07594 1.39575 1.76294C1.63488 1.55624 1.87401 1.34952 2.11316 1.14281C2.11842 1.54494 2.1024 1.94717 2.05755 2.34766C2.02209 2.66415 1.97131 2.98179 1.89661 3.29214C1.87918 3.36458 1.86262 3.44936 1.82453 3.51878C1.7169 3.50763 1.60927 3.49649 1.50163 3.48534C1.1408 3.44797 1.04506 3.8913 1.23266 4.10425C1.43054 4.32886 1.76062 4.36491 2.0349 4.26566L3.21709 4.38812C3.42164 4.4093 3.59747 4.20631 3.59747 4.02557C3.59747 3.81195 3.42223 3.68427 3.21709 3.66303V3.66303ZM1.74166 3.59766C1.7331 3.60063 1.72552 3.60299 1.72519 3.60101C1.72366 3.59177 1.73108 3.59269 1.74166 3.59766Z" fill="#F2F2F2"/>
<path d="M3.41644 16.6227C3.06582 16.5959 2.71524 16.569 2.36462 16.5422C3.02242 15.964 3.50222 15.1804 3.58713 14.3402C3.64896 13.7285 3.37527 13.0415 2.76218 12.7704C2.14513 12.4976 1.3975 12.7196 1.15974 13.354C0.909592 14.0216 1.59247 14.7374 2.31422 14.5199C2.77938 14.3797 2.58067 13.6794 2.11199 13.8207C1.99913 13.8547 1.87034 13.7873 1.863 13.6605C1.85522 13.5259 1.99894 13.4058 2.12598 13.3782C2.6469 13.2649 2.85848 13.9009 2.83236 14.2707C2.76504 15.2234 1.95257 16.0848 1.10447 16.5099C0.745714 16.6897 0.946798 17.1587 1.29646 17.1855C2.00312 17.2396 2.70977 17.2937 3.41644 17.3478C3.62147 17.3635 3.79682 17.1699 3.79682 16.9852C3.79682 16.776 3.62206 16.6384 3.41644 16.6227V16.6227Z" fill="#F2F2F2"/>
<path d="M3.56452 27.5507C3.8647 27.2389 3.94441 26.7597 3.79901 26.3636C3.63459 25.9156 3.21016 25.5849 2.7288 25.4796C2.20873 25.3658 1.6742 25.4961 1.22766 25.7604C0.812582 26.0061 1.19412 26.6336 1.61163 26.3865C2.03332 26.1369 2.70877 26.0134 3.02507 26.4875C3.13405 26.6509 3.15527 26.9066 3.01162 27.0589C2.97324 27.0997 2.92738 27.1264 2.87918 27.1463C2.71066 27.0951 2.53143 27.0668 2.34357 27.072C1.96256 27.0826 1.83114 27.5545 2.1516 27.7476C2.34969 27.867 2.57772 27.913 2.80195 27.8975C3.18192 28.0866 3.39604 28.5156 3.21706 28.9424C2.98271 29.5012 2.22297 29.6229 1.77989 29.2103C1.42946 28.8839 0.891021 29.3962 1.24195 29.723C1.647 30.1002 2.22317 30.2551 2.77718 30.1475C3.31559 30.043 3.73118 29.6625 3.93038 29.1846C4.17858 28.5892 3.9892 27.9652 3.56452 27.5507L3.56452 27.5507Z" fill="#F2F2F2"/>
<path d="M3.73611 40.4597C3.80927 39.782 3.88242 39.1043 3.95558 38.4266C3.97665 38.2316 3.76568 38.0641 3.5752 38.0641C3.35201 38.0641 3.21595 38.231 3.19482 38.4266L2.97779 40.4371C2.27125 40.4438 1.56468 40.4513 0.858104 40.4555C0.854034 40.4556 0.851495 40.4551 0.847532 40.4551L0.849822 40.4506L0.941914 40.2949C0.993068 40.2084 1.04424 40.1219 1.09539 40.0354L1.77071 38.8936C2.01144 38.4866 1.3545 38.1206 1.11381 38.5276C0.852903 38.9688 0.59198 39.4099 0.331072 39.8511C0.204263 40.0655 0.0143214 40.3031 0.000792587 40.5568C-0.0139256 40.8329 0.177857 41.0599 0.449722 41.1393C0.670204 41.2037 0.91616 41.1801 1.14313 41.1781L1.93483 41.1712C2.25636 41.1684 2.57789 41.1657 2.89943 41.1628C2.84026 41.711 2.78107 42.2592 2.7219 42.8074C2.70085 43.0024 2.91181 43.1699 3.10228 43.1699C3.32548 43.1699 3.46155 43.003 3.48266 42.8074C3.54236 42.2545 3.60204 41.7015 3.66174 41.1486C4.01721 41.0802 4.0426 40.5826 3.73611 40.4597ZM0.686517 40.4508C0.651337 40.4544 0.657712 40.4313 0.686517 40.4508V40.4508Z" fill="#F2F2F2"/>
<path d="M180.868 84.6349L173.784 59.644C173.153 57.4428 170.786 56.1315 168.466 56.6983H168.466C166.033 57.2932 164.62 59.712 165.373 61.9969L173.566 87.7413L177.853 103.585C176.674 104.446 176.082 105.924 176.474 107.383C176.999 109.332 179.082 110.506 181.126 110.006C183.171 109.507 184.404 107.522 183.879 105.573C183.688 104.861 183.287 104.255 182.758 103.793L180.868 84.6349V84.6349Z" fill="#FFB6B6"/>
<path d="M121.257 79.2526L142.782 63.4643C144.675 62.0672 145.042 59.481 143.606 57.6549L143.606 57.6549C142.099 55.7385 139.214 55.4187 137.286 56.9543L115.456 74.0078L101.732 83.8371C100.446 83.1275 98.7869 83.1712 97.5228 84.074C95.8335 85.2805 95.4903 87.5639 96.7562 89.1739C98.0221 90.784 100.418 91.1112 102.107 89.9047C102.724 89.4642 103.159 88.8795 103.404 88.2371L121.257 79.2526V79.2526Z" fill="#FFB6B6"/>
<path d="M157.118 45.8571H147.192L142.929 52.8095L140.898 52.7027C138.801 52.5923 136.871 53.3326 135.464 54.6008C134.761 55.2349 135.467 56.8884 133.793 56.8587C131.8 56.8233 129.345 60.6062 129.987 62.5714V73.2061C133.175 73.094 135.876 68.2095 135.82 64.2633C135.82 64.2633 131.203 70.7984 137.651 74.456C137.651 74.456 136.501 86.6645 137.651 86.5905C138.801 86.5164 139.37 87.2246 137.821 87.8374C135.022 88.9443 138.632 90.2825 138.974 90.6091C139.203 90.8268 139.317 90.9357 139.317 90.9357C142.869 84.0608 156.3 93.9267 167.397 96.574C168.657 95.6653 169.166 93.6484 166.882 91.9346C164.736 90.3234 167.706 86.7954 168.505 87.354C169.284 87.8994 165.287 83.1625 165.876 80.9185C166.465 78.6745 167.347 79.516 166.465 78.6745C165.582 77.833 170.203 73.5122 167.49 69.4684L169.661 77.7469C168.197 78.0016 168.084 78.4895 168.532 79.4903C168.688 79.8363 169.512 79.9572 169.529 81.4156C169.547 82.874 170.492 80.889 170.019 81.7607C169.547 82.6324 170.521 82.03 170.815 82.149C174.389 83.2578 177.321 82.2471 179.944 80.2154C180.116 79.7584 181.752 78.1198 180.594 78.5633C179.437 79.0069 179.463 78.1001 180.718 77.9493C181.973 77.7984 180.56 77.1885 180.48 76.7702C180.331 75.9965 179.942 75.216 178.676 75.6231C177.998 71.5617 177.557 65.6602 175.351 63.6676C175.351 62.6325 174.154 56.1768 172.597 56.4176C171.04 56.6584 171.766 55.5597 171.262 55.173C168.989 53.4289 165.658 52.2964 163.216 52.2964H162.694L157.118 45.8571H157.118Z" fill="#6C63FF"/>
<path d="M160.049 41.7781C152.852 43.5763 145.386 44.319 142.336 48.2271C142.336 48.2271 146.013 41.6445 142.239 41.6732C135.898 41.7214 142.899 30.5707 145.257 29.2279C149.187 26.99 158.482 28.5161 158.482 28.5161L163.132 34.0553L160.049 41.7781V41.7781Z" fill="#2F2E41"/>
<path d="M152.354 43.5635C158.003 43.5635 162.581 39.1995 162.581 33.8162C162.581 28.4329 158.003 24.0689 152.354 24.0689C146.706 24.0689 142.128 28.4329 142.128 33.8162C142.128 39.1995 146.706 43.5635 152.354 43.5635Z" fill="#FFB6B6"/>
<path d="M157.257 31.7197L156.957 33.385L150.004 32.2466C150.252 31.6256 150.248 30.9084 149.932 30.3113C149.811 30.9602 149.52 31.5777 149.099 32.0985C144.874 32.5735 144.788 33.3006 142.222 31.7364C141.367 31.5964 140.793 30.8222 140.94 30.0073V30.0073C141.86 24.9018 143.573 19.9897 148.948 20.7612C151.74 21.1621 154.075 22.6312 155.58 24.6565C157.044 26.6344 157.721 29.1453 157.257 31.7197V31.7197Z" fill="#2F2E41"/>
<path d="M153.057 37.1736C154.013 31.868 150.275 26.8282 144.709 25.9169C144.027 25.8053 143.349 25.7617 142.683 25.7793C143.648 24.7342 144.987 24.0188 146.495 23.8154L154.936 23.6895C158.797 24.3215 165.327 24.3614 166.968 27.4507C168.481 30.2914 165.708 33.5793 166.956 36.5304C168.323 39.7645 167.34 42.5587 165.988 43.8539C164.423 45.3523 161.793 47.2007 159.621 46.9654C159.787 46.2918 159.727 45.5724 159.397 44.9508C159.274 45.61 159.01 46.2463 158.63 46.8075L142.989 51.0828C144.483 50.608 146.44 48.635 148.234 46.2508C149.297 44.8395 151.809 45.1919 151.122 41.81C150.434 38.4281 152.85 38.3209 153.057 37.1736V37.1736Z" fill="#2F2E41"/>
<path d="M124.287 87.6312H60.1294C56.9134 87.6312 54.297 85.1375 54.297 82.0721V38.3248C54.297 35.2596 56.9134 32.7657 60.1294 32.7657H124.287C127.503 32.7657 130.119 35.2596 130.119 38.3248V82.0721C130.119 85.1375 127.503 87.6312 124.287 87.6312V87.6312Z" fill="white"/>
<path d="M124.287 87.6312H60.1294C56.9134 87.6312 54.297 85.1375 54.297 82.0721V38.3248C54.297 35.2596 56.9134 32.7657 60.1294 32.7657H124.287C127.503 32.7657 130.119 35.2596 130.119 38.3248V82.0721C130.119 85.1375 127.503 87.6312 124.287 87.6312V87.6312ZM89.0046 33.2491C70.1162 33.2491 54.8041 47.8434 54.8041 65.8462V82.0721C54.8041 84.8753 57.1884 87.1478 60.1294 87.1478H124.287C127.228 87.1478 129.612 84.8753 129.612 82.0721V38.3248C129.612 35.5216 127.228 33.2491 124.287 33.2491H89.0046V33.2491Z" fill="#3F3D56"/>
<path d="M76.3305 71.6106H66.1871C65.6278 71.6106 65.1727 71.1769 65.1727 70.6438C65.1727 70.1107 65.6278 69.677 66.1871 69.677H76.3305C76.8899 69.677 77.3449 70.1107 77.3449 70.6438C77.3449 71.1769 76.8899 71.6106 76.3305 71.6106Z" fill="#CCCCCC"/>
<path d="M98.3926 78.6883H66.1871C65.6278 78.6883 65.1727 78.2546 65.1727 77.7216C65.1727 77.1885 65.6278 76.7548 66.1871 76.7548H98.3926C98.9519 76.7548 99.407 77.1885 99.407 77.7216C99.407 78.2546 98.9519 78.6883 98.3926 78.6883Z" fill="#CCCCCC"/>
<path d="M103.268 72.1625C112.091 72.1625 119.244 65.3452 119.244 56.9355C119.244 48.5259 112.091 41.7086 103.268 41.7086C94.4444 41.7086 87.2917 48.5259 87.2917 56.9355C87.2917 65.3452 94.4444 72.1625 103.268 72.1625Z" fill="#6C63FF"/>
<path d="M99.9813 51.1194C99.7692 51.1194 99.558 51.1749 99.369 51.285C99.0169 51.4901 98.8067 51.8473 98.8067 52.2406V61.6306C98.8067 62.0239 99.0169 62.3811 99.369 62.5863C99.7211 62.7913 100.15 62.8066 100.518 62.6275L110.132 57.9325C110.533 57.737 110.772 57.3644 110.772 56.9356C110.772 56.5068 110.533 56.1342 110.132 55.9387L100.518 51.2437C100.348 51.1607 100.164 51.1194 99.9813 51.1194Z" fill="white"/>
</g>
<defs>
<clipPath id="clip0_731_2297">
<rect width="184" height="144" fill="white"/>
</clipPath>
</defs>
</svg>
